<?xml version="1.0" standalone="no"?>
<!DOCTYPE svg PUBLIC "-//W3C//DTD SVG 20010904//EN"
 "http://www.w3.org/TR/2001/REC-SVG-20010904/DTD/svg10.dtd">
<svg version="1.0" xmlns="http://www.w3.org/2000/svg"
 width="1000.000000pt" height="1000.000000pt" viewBox="0 0 1000.000000 1000.000000"
 preserveAspectRatio="xMidYMid meet">
<metadata>
Created by potrace 1.11, written by Peter Selinger 2001-2013
</metadata>
<g transform="translate(0.000000,1000.000000) scale(0.100000,-0.100000)"
fill="#000000" stroke="none">
<path d="M0 5000 l0 -5000 5000 0 5000 0 0 5000 0 5000 -5000 0 -5000 0 0
-5000z m5867 1774 c234 -42 424 -141 584 -307 l69 -70 55 60 c196 217 490 336
825 336 311 -1 580 -119 802 -351 316 -330 414 -808 252 -1226 -89 -231 -159
-318 -721 -908 -356 -373 -1068 -1059 -1138 -1096 -46 -24 -115 -20 -163 9
-93 56 -829 771 -1268 1232 l-169 179 -159 -499 c-87 -274 -167 -514 -177
-534 -25 -50 -99 -113 -150 -128 -111 -34 -229 -3 -300 77 -45 51 -5 -64 -470
1375 -145 449 -266 817 -269 817 -3 0 -157 -474 -344 -1053 -186 -578 -349
-1071 -362 -1093 -29 -51 -74 -91 -132 -116 -59 -27 -165 -27 -224 0 -54 24
-120 95 -141 153 -59 159 -787 2472 -787 2499 0 111 127 216 237 195 74 -14
161 -78 177 -132 9 -32 302 -992 478 -1571 94 -309 175 -559 179 -555 4 5 129
379 279 833 451 1370 428 1303 461 1344 45 54 101 79 179 80 52 1 74 -4 109
-24 90 -51 75 -14 452 -1157 390 -1181 358 -1087 364 -1081 7 7 285 921 285
938 0 8 -18 48 -39 90 -92 176 -133 341 -134 530 0 146 12 226 55 358 63 199
156 349 306 494 280 271 613 371 999 302z"/>
<path d="M5494 6436 c-172 -39 -330 -140 -447 -284 -252 -309 -258 -707 -15
-1030 125 -166 764 -832 1182 -1232 158 -151 293 -276 300 -278 48 -11 1359
1321 1507 1531 109 155 160 306 161 477 2 356 -222 673 -559 794 -84 29 -95
31 -233 30 -171 -1 -255 -20 -379 -84 -144 -75 -250 -193 -307 -342 -47 -124
-95 -168 -182 -168 -84 0 -140 41 -172 127 -31 84 -75 165 -120 221 -77 99
-226 190 -370 226 -91 23 -289 30 -366 12z m1967 -242 c140 -41 281 -147 358
-268 71 -113 100 -198 122 -351 13 -98 0 -147 -52 -197 -61 -59 -147 -63 -209
-11 -43 36 -59 72 -75 168 -28 173 -101 272 -230 315 -81 26 -110 49 -136 105
-23 49 -24 94 -4 142 21 50 42 72 90 94 49 23 67 23 136 3z m238 -892 c123
-62 133 -234 18 -310 -32 -21 -52 -27 -97 -27 -74 0 -128 34 -160 100 -57 119
28 255 160 255 25 0 60 -8 79 -18z"/>
</g>
</svg>
