<?xml version="1.0" encoding="UTF-8" standalone="no"?>
<svg
   xmlns:dc="http://purl.org/dc/elements/1.1/"
   xmlns:cc="http://creativecommons.org/ns#"
   xmlns:rdf="http://www.w3.org/1999/02/22-rdf-syntax-ns#"
   xmlns:svg="http://www.w3.org/2000/svg"
   xmlns="http://www.w3.org/2000/svg"
   xmlns:sodipodi="http://sodipodi.sourceforge.net/DTD/sodipodi-0.dtd"
   xmlns:inkscape="http://www.inkscape.org/namespaces/inkscape"
   height="512pt"
   viewBox="0 0 512 512"
   width="512pt"
   version="1.1"
   id="svg9"
   sodipodi:docname="about_group.svg"
   inkscape:version="0.92.4 (5da689c313, 2019-01-14)">
  <metadata
     id="metadata15">
    <rdf:RDF>
      <cc:Work
         rdf:about="">
        <dc:format>image/svg+xml</dc:format>
        <dc:type
           rdf:resource="http://purl.org/dc/dcmitype/StillImage" />
      </cc:Work>
    </rdf:RDF>
  </metadata>
  <defs
     id="defs13" />
  <sodipodi:namedview
     pagecolor="#ffffff"
     bordercolor="#666666"
     borderopacity="1"
     objecttolerance="10"
     gridtolerance="10"
     guidetolerance="10"
     inkscape:pageopacity="0"
     inkscape:pageshadow="2"
     inkscape:window-width="1148"
     inkscape:window-height="712"
     id="namedview11"
     showgrid="false"
     inkscape:zoom="0.34570313"
     inkscape:cx="341.33333"
     inkscape:cy="341.33333"
     inkscape:window-x="221"
     inkscape:window-y="166"
     inkscape:window-maximized="0"
     inkscape:current-layer="svg9" />
  <linearGradient
     id="a"
     gradientUnits="userSpaceOnUse"
     x1="0"
     x2="512"
     y1="256"
     y2="256">
    <stop
       offset="0"
       stop-color="#80d8ff"
       id="stop2" />
    <stop
       offset="1"
       stop-color="#ea80fc"
       id="stop4" />
  </linearGradient>
  <path
     d="m438.433594 173.328125c20.953125-18.105469 34.234375-44.859375 34.234375-74.660156 0-54.40625-44.261719-98.667969-98.667969-98.667969s-98.667969 44.261719-98.667969 98.667969c0 29.773437 13.257813 56.507812 34.175781 74.613281-12.441406 6.582031-23.894531 15.09375-33.941406 25.335938-12.457031-2.515626-25.828125-2.6875-39.132812 0-10.050782-10.242188-21.5-18.753907-33.945313-25.335938 20.921875-18.105469 34.175781-44.839844 34.175781-74.613281.003907-54.40625-44.257812-98.667969-98.664062-98.667969s-98.667969 44.261719-98.667969 98.667969c0 29.800781 13.28125 56.554687 34.234375 74.660156-43.714844 23.183594-73.566406 69.167969-73.566406 122.003906v118c0 11.046875 8.953125 20 20 20h111.109375c-8.402344 17.816407-13.109375 37.699219-13.109375 58.667969 0 11.046875 8.953125 20 20 20h236c11.046875 0 20-8.953125 20-20 0-20.96875-4.707031-40.851562-13.109375-58.667969h111.109375c11.046875 0 20-8.953125 20-20v-118c0-52.835937-29.851562-98.820312-73.566406-122.003906zm-123.101563-74.660156c0-32.351563 26.320313-58.667969 58.667969-58.667969s58.667969 26.316406 58.667969 58.667969c0 32.347656-26.320313 58.664062-58.667969 58.664062s-58.667969-26.316406-58.667969-58.664062zm-.664062 196.664062c0 32.351563-26.320313 58.667969-58.667969 58.667969s-58.667969-26.316406-58.667969-58.667969c0-32.347656 26.320313-58.664062 58.667969-58.664062s58.667969 26.316406 58.667969 58.664062zm-235.335938-196.664062c0-32.351563 26.320313-58.667969 58.667969-58.667969s58.667969 26.316406 58.667969 58.667969c0 32.347656-26.320313 58.664062-58.667969 58.664062s-58.667969-26.316406-58.667969-58.664062zm-39.332031 196.664062c0-54.035156 43.960938-98 98-98 21.386719 0 41.773438 6.871094 58.5 19.347657-50.210938 38.078124-52.453125 112.253906-4.933594 153.316406-11.753906 6.234375-22.503906 14.113281-31.941406 23.335937h-119.625zm120.050781 176.667969c9.257813-44.480469 48.761719-78 95.949219-78s86.691406 33.519531 95.949219 78zm311.949219-78.667969h-119.625c-9.4375-9.21875-20.1875-17.101562-31.941406-23.335937 47.488281-41.035156 45.308594-115.214844-4.933594-153.316406 16.726562-12.476563 37.113281-19.347657 58.5-19.347657 54.039062 0 98 43.964844 98 98zm0 0"
     fill="url(#a)"
     id="path7"
     style="fill:#ff7878;fill-opacity:1" />
</svg>
