<?xml version="1.0" encoding="UTF-8" standalone="no"?>
<!-- Generator: Adobe Illustrator 19.0.0, SVG Export Plug-In . SVG Version: 6.00 Build 0)  -->

<svg
   xmlns:dc="http://purl.org/dc/elements/1.1/"
   xmlns:cc="http://creativecommons.org/ns#"
   xmlns:rdf="http://www.w3.org/1999/02/22-rdf-syntax-ns#"
   xmlns:svg="http://www.w3.org/2000/svg"
   xmlns="http://www.w3.org/2000/svg"
   xmlns:sodipodi="http://sodipodi.sourceforge.net/DTD/sodipodi-0.dtd"
   xmlns:inkscape="http://www.inkscape.org/namespaces/inkscape"
   version="1.1"
   id="Capa_1"
   x="0px"
   y="0px"
   viewBox="0 0 512.092 512.092"
   style="enable-background:new 0 0 512.092 512.092;"
   xml:space="preserve"
   sodipodi:docname="about_notes.svg"
   inkscape:version="0.92.4 (5da689c313, 2019-01-14)"><metadata
   id="metadata45"><rdf:RDF><cc:Work
       rdf:about=""><dc:format>image/svg+xml</dc:format><dc:type
         rdf:resource="http://purl.org/dc/dcmitype/StillImage" /></cc:Work></rdf:RDF></metadata><defs
   id="defs43" /><sodipodi:namedview
   pagecolor="#ffffff"
   bordercolor="#666666"
   borderopacity="1"
   objecttolerance="10"
   gridtolerance="10"
   guidetolerance="10"
   inkscape:pageopacity="0"
   inkscape:pageshadow="2"
   inkscape:window-width="1213"
   inkscape:window-height="731"
   id="namedview41"
   showgrid="false"
   inkscape:zoom="0.46085471"
   inkscape:cx="256.04599"
   inkscape:cy="256.04599"
   inkscape:window-x="643"
   inkscape:window-y="199"
   inkscape:window-maximized="0"
   inkscape:current-layer="Capa_1" />
<path
   style="fill:#ff4b4b;fill-opacity:1"
   d="M396.784,446.553L266.011,115.886c-1.446-3.641-4.771-6.196-8.661-6.656L54.683,85.38  c-5.752-0.808-11.07,3.2-11.878,8.952c-0.018,0.13-0.034,0.261-0.048,0.392L0.091,436.057c-0.763,5.841,3.353,11.196,9.194,11.959  c0.085,0.011,0.171,0.021,0.256,0.03l373.333,42.667h1.216c5.521,0.024,10.148-4.168,10.667-9.664l2.773-29.589  C397.672,449.788,397.416,448.107,396.784,446.553z"
   id="path2" />
<path
   style="fill:#ff7878;fill-opacity:1"
   d="M469.424,94.724c-0.684-5.851-5.983-10.04-11.834-9.355c-0.031,0.004-0.061,0.007-0.092,0.011  l-91.733,10.795L94.832,128.046c-5.801,0.659-9.994,5.86-9.408,11.669l32,341.333c0.519,5.496,5.146,9.688,10.667,9.664h1.216  l373.333-42.667c5.853-0.671,10.053-5.96,9.382-11.813c-0.005-0.045-0.01-0.089-0.016-0.134L469.424,94.724z"
   id="path4" />
<path
   style="fill:#455A64;"
   d="M309.424,170.713c-5.891,0.011-10.675-4.757-10.686-10.648c-0.005-2.84,1.123-5.565,3.134-7.571  l53.333-53.333c4.093-4.237,10.845-4.355,15.083-0.262c4.237,4.093,4.354,10.845,0.262,15.083c-0.086,0.089-0.173,0.176-0.262,0.262  l-53.333,53.333C314.96,169.579,312.251,170.707,309.424,170.713z"
   id="path6" />
<circle
   style="fill:#F44336;"
   cx="394.758"
   cy="74.713"
   r="53.333"
   id="circle8" />
<g
   id="g10">
</g>
<g
   id="g12">
</g>
<g
   id="g14">
</g>
<g
   id="g16">
</g>
<g
   id="g18">
</g>
<g
   id="g20">
</g>
<g
   id="g22">
</g>
<g
   id="g24">
</g>
<g
   id="g26">
</g>
<g
   id="g28">
</g>
<g
   id="g30">
</g>
<g
   id="g32">
</g>
<g
   id="g34">
</g>
<g
   id="g36">
</g>
<g
   id="g38">
</g>
</svg>