<svg id="App_Store" data-name="App Store" xmlns="http://www.w3.org/2000/svg" width="170" height="58" viewBox="0 0 170 58">
  <rect id="_Background" data-name="◼️ Background" width="170" height="58" rx="8" fill="#fff"/>
  <path id="Combined_Shape" data-name="Combined Shape" d="M68.226,35H65.748V18.934h2.4v2.077h.046a4.161,4.161,0,0,1,3.844-2.272c3.088,0,5.084,2.446,5.084,6.231s-1.978,6.242-5.038,6.242a4.141,4.141,0,0,1-3.8-2.192h-.058V35Zm3.156-14.172c-1.894,0-3.167,1.665-3.167,4.143,0,2.517,1.243,4.143,3.167,4.143,1.967,0,3.19-1.587,3.19-4.143S73.35,20.828,71.383,20.828ZM54.39,35H51.911V18.934h2.4v2.077h.046A4.161,4.161,0,0,1,58.2,18.74c3.088,0,5.084,2.446,5.084,6.231s-1.978,6.242-5.038,6.242a4.141,4.141,0,0,1-3.8-2.192H54.39V35Zm3.156-14.172c-1.894,0-3.167,1.665-3.167,4.143,0,2.517,1.243,4.143,3.167,4.143,1.967,0,3.19-1.587,3.19-4.143S59.513,20.828,57.546,20.828ZM8.2,31.681c-2.085,0-3.7-2.314-4.88-4A20.156,20.156,0,0,1,.26,20.039,12.519,12.519,0,0,1,1.336,11.7,7.726,7.726,0,0,1,7.844,7.735h.09a8.605,8.605,0,0,1,3.163.815l.01,0,.006,0,.006,0a5.845,5.845,0,0,0,1.975.573,5.944,5.944,0,0,0,1.876-.552l.01,0,.009,0,.005,0a10.191,10.191,0,0,1,3.649-.926c.146,0,.317.009.508.026a7.382,7.382,0,0,1,5.806,3.14,7.243,7.243,0,0,0-3.429,6.04,6.772,6.772,0,0,0,2.124,5,6.942,6.942,0,0,0,2.124,1.4v.008a16.451,16.451,0,0,1-2.209,4.491c-1.4,2.106-2.738,3.852-4.831,3.883h-.118a5.416,5.416,0,0,1-2.326-.578l-.006,0a6.479,6.479,0,0,0-2.775-.658,6.708,6.708,0,0,0-2.9.673l-.005,0-.01,0-.005,0a6.046,6.046,0,0,1-2.285.607H8.2Zm82.583-.4a7.248,7.248,0,0,1-4.473-1.321,4.683,4.683,0,0,1-1.839-3.568h2.536c.182,1.627,1.772,2.72,3.959,2.72,2.081,0,3.591-1.076,3.591-2.559,0-1.284-.913-2.057-3.052-2.582l-2.146-.517c-3.038-.733-4.453-2.152-4.453-4.464,0-2.838,2.478-4.819,6.025-4.819,3.495,0,5.9,1.937,5.978,4.819h-2.5c-.148-1.635-1.494-2.65-3.512-2.65-1.98,0-3.362,1.019-3.362,2.479,0,1.167.871,1.858,3.007,2.387l1.824.447a7.883,7.883,0,0,1,3.677,1.688,3.8,3.8,0,0,1,1.13,2.9C97.173,29.352,94.724,31.282,90.782,31.282Zm43.583-.046c-3.511,0-5.692-2.379-5.692-6.208a6.8,6.8,0,0,1,1.516-4.576,5.242,5.242,0,0,1,4.073-1.736,5.164,5.164,0,0,1,3.976,1.64,6.434,6.434,0,0,1,1.463,4.385v.85h-8.527v.149a3.161,3.161,0,0,0,3.247,3.488,2.734,2.734,0,0,0,2.789-1.767h2.353a4.168,4.168,0,0,1-1.691,2.714A5.87,5.87,0,0,1,134.365,31.236Zm-.1-10.523a3.128,3.128,0,0,0-3.075,3.144h6.036A2.958,2.958,0,0,0,134.262,20.714ZM112.74,31.236a5.484,5.484,0,0,1-4.158-1.674,6.612,6.612,0,0,1-1.568-4.592,6.587,6.587,0,0,1,1.571-4.582,6,6,0,0,1,8.308,0,6.583,6.583,0,0,1,1.572,4.582,6.615,6.615,0,0,1-1.568,4.592A5.487,5.487,0,0,1,112.74,31.236Zm0-10.476c-1.764,0-3.2,1.893-3.2,4.22s1.435,4.219,3.2,4.219,3.2-1.893,3.2-4.219S114.5,20.76,112.739,20.76Zm-8.878,10.327c-2.444,0-3.4-.914-3.4-3.259V20.9H98.708V18.934h1.756V16.078h2.49v2.857h2.295V20.9h-2.295v6.655c0,1.048.453,1.515,1.469,1.515a5.33,5.33,0,0,0,.815-.058v1.963A6.9,6.9,0,0,1,103.861,31.087Zm-66.1-.079H35.091L41.07,14.448h2.777l5.979,16.558h-2.72l-1.515-4.476H39.28l-1.515,4.476ZM42.4,17.2l-2.467,7.264h5L42.47,17.2Zm81.02,13.805h-2.479V18.934h2.364v2.055h.058a2.915,2.915,0,0,1,2.9-2.249,4.522,4.522,0,0,1,.849.092v2.306A3.593,3.593,0,0,0,126,21a2.491,2.491,0,0,0-2.582,2.777v7.229Zm2.343-21.155c-1.776,0-2.88-1.23-2.88-3.209a3.545,3.545,0,0,1,.769-2.357,2.631,2.631,0,0,1,2.063-.9c1.683,0,2.729,1.2,2.729,3.119v.4H123.96v.06a1.79,1.79,0,0,0,1.827,1.984,1.5,1.5,0,0,0,1.551-.992h1.029A2.47,2.47,0,0,1,125.763,9.851Zm-.067-5.56a1.765,1.765,0,0,0-1.731,1.792h3.4A1.667,1.667,0,0,0,125.7,4.291Zm-38.24,5.56c-1.6,0-2.676-1.3-2.676-3.234s1.066-3.234,2.651-3.234a2.2,2.2,0,0,1,1.989,1.123h.024V1.069h1.046V9.743h-1V8.685h-.018A2.245,2.245,0,0,1,87.457,9.851Zm.2-5.548c-1.1,0-1.8.909-1.8,2.315,0,1.427.691,2.314,1.8,2.314,1.076,0,1.8-.93,1.8-2.314S88.73,4.3,87.655,4.3ZM80.326,9.851a1.879,1.879,0,0,1-2.08-1.876c0-1.077.826-1.743,2.266-1.828l1.792-.1V5.523c0-.764-.512-1.22-1.371-1.22a1.316,1.316,0,0,0-1.443.992h-1.01a2.213,2.213,0,0,1,2.477-1.912c1.453,0,2.392.8,2.392,2.038V9.743h-.992V8.667h-.024A2.268,2.268,0,0,1,80.326,9.851ZM82.3,6.857l-1.671.1c-.84.054-1.322.424-1.322,1.016s.5.986,1.25.986A1.636,1.636,0,0,0,82.3,7.368ZM97.84,9.851a3.078,3.078,0,0,1-2.89-3.23,2.908,2.908,0,1,1,5.78,0A3.078,3.078,0,0,1,97.84,9.851Zm0-5.54A2.115,2.115,0,0,0,96.009,6.62a1.88,1.88,0,1,0,3.66,0A2.114,2.114,0,0,0,97.84,4.31ZM74.151,9.849a3.078,3.078,0,0,1-2.89-3.23,2.908,2.908,0,1,1,5.78,0A3.078,3.078,0,0,1,74.151,9.849Zm0-5.54a2.114,2.114,0,0,0-1.83,2.309,1.88,1.88,0,1,0,3.659,0A2.114,2.114,0,0,0,74.151,4.309ZM48.171,9.848a3.077,3.077,0,0,1-2.89-3.229,2.908,2.908,0,1,1,5.78,0A3.077,3.077,0,0,1,48.171,9.848Zm0-5.539a2.114,2.114,0,0,0-1.83,2.309,2.115,2.115,0,0,0,1.83,2.31A2.115,2.115,0,0,0,50,6.618,2.114,2.114,0,0,0,48.172,4.308Zm65.783,5.484c-1.146,0-1.593-.469-1.593-1.671V4.352h-.931v-.86h.931V1.984h1.046V3.492h1.214v.86h-1.214V8.067c0,.573.239.829.776.829.106,0,.349-.018.433-.03v.877A3.622,3.622,0,0,1,113.954,9.792Zm3.289-.048H116.2V1.07h1.046V4.49h.024a2.078,2.078,0,0,1,1.984-1.106,2.1,2.1,0,0,1,2.2,2.32V9.743h-1.046V5.9a1.385,1.385,0,0,0-1.479-1.588A1.63,1.63,0,0,0,117.244,6.1V9.743Zm-14,0h-1.046V3.492h.985v1h.023a2.105,2.105,0,0,1,1.984-1.106,2.054,2.054,0,0,1,2.164,2.3V9.743h-1.046V5.873c0-1.023-.5-1.563-1.436-1.563a1.589,1.589,0,0,0-1.629,1.756V9.743Zm-40.456,0h0l-1.046,0V3.491h.986v1h.023a2.1,2.1,0,0,1,1.984-1.106,2.055,2.055,0,0,1,2.164,2.3V9.742H65.848V5.872c0-1.023-.5-1.563-1.437-1.563a1.589,1.589,0,0,0-1.629,1.755V9.743Zm-7.962,0H53.758l-1.75-6.251h1.04L54.3,8.576h.024l1.412-5.085h1.01l1.418,5.085h.024l1.25-5.085h1.034L58.729,9.743H57.665L56.252,4.9h-.023L54.822,9.743Zm-14.929,0H36.978V1.068h2.914A4.024,4.024,0,0,1,42.9,2.211,4.549,4.549,0,0,1,43.987,5.4a4.549,4.549,0,0,1-1.079,3.2A4.014,4.014,0,0,1,39.893,9.742Zm-1.833-7.7V8.768h1.762c1.973,0,3.059-1.191,3.059-3.353s-1.086-3.372-3.059-3.372Zm31.683,7.7H68.69V1.069h1.049V9.738ZM13.156,7.314a3.091,3.091,0,0,1-.31-.012,6.75,6.75,0,0,1,1.664-4.89A7.207,7.207,0,0,1,19.176,0a7.04,7.04,0,0,1-1.622,5.078A6.051,6.051,0,0,1,13.156,7.314Z" transform="translate(15.001 12)" fill="#050505"/>
</svg>
