<svg width="25" height="25" viewBox="0 0 25 25" fill="none" xmlns="http://www.w3.org/2000/svg">
<path d="M12.5 25C19.4036 25 25 19.4036 25 12.5C25 5.59644 19.4036 0 12.5 0C5.59644 0 0 5.59644 0 12.5C0 19.4036 5.59644 25 12.5 25Z" fill="white"/>
<path d="M15.5736 10.1566H13.4902V8.80241C13.4902 8.28158 13.8548 8.17741 14.0632 8.17741C14.3236 8.17741 15.5215 8.17741 15.5215 8.17741V5.88574H13.4902C11.1986 5.88574 10.7298 7.60449 10.7298 8.64616V10.1566H9.42773V12.5003H10.7298C10.7298 15.5212 10.7298 19.1149 10.7298 19.1149H13.4902C13.4902 19.1149 13.4902 15.4691 13.4902 12.5003H15.3652L15.5736 10.1566Z" fill="black"/>
</svg>
