<svg width="1920" height="260" viewBox="0 0 1920 260" fill="none" xmlns="http://www.w3.org/2000/svg">
<g clip-path="url(#clip0)">
<path d="M1920 98.6001V260H0V98.6001C227.7 51.1001 461.4 20.2001 699.9 7.1001C786 2.4001 872.7 0 960 0C1114.2 0 1266.7 7.5 1417.1 22C1587.5 38.6 1755.4 64.2001 1920 98.6001Z" fill="#FF0800"/>
<path opacity="0.2" d="M1920 98.6V199C1893.9 224.6 1863.2 245.4 1829.1 260H1594.8C1499.3 219 1429.6 129.2 1417 22C1587.5 38.6 1755.4 64.2 1920 98.6Z" fill="white"/>
<path opacity="0.2" d="M868 260H0V98.6001C227.7 51.1001 461.4 20.2001 699.9 7.1001C764.3 85.0001 820.7 169.7 868 260Z" fill="white"/>
</g>
<defs>
<clipPath id="clip0">
<rect width="1920" height="260" fill="white"/>
</clipPath>
</defs>
</svg>
