<svg xmlns="http://www.w3.org/2000/svg" width="22" height="22" viewBox="0 0 22 22">
  <g id="help-circle" transform="translate(-1 -1)">
    <g id="Group_215" data-name="Group 215">
      <path id="Path_36" data-name="Path 36" d="M12,23A11,11,0,1,1,23,12,10.968,10.968,0,0,1,12,23ZM12,3a9,9,0,1,0,9,9A8.963,8.963,0,0,0,12,3Z" fill="#fff"/>
    </g>
    <g id="Group_216" data-name="Group 216">
      <path id="Path_37" data-name="Path 37" d="M11.9,14a.961.961,0,0,1-.9-.7,1.04,1.04,0,0,1,.6-1.3c.6-.2,2.3-1,2.3-2.1A1.955,1.955,0,0,0,12.6,8,2.081,2.081,0,0,0,10,9.2a1.04,1.04,0,0,1-1.3.6c-.5,0-.7-.6-.6-1.1a3.892,3.892,0,0,1,5.1-2.4,4.1,4.1,0,0,1,2.7,3.8c0,2.6-3.3,3.8-3.7,3.9Z" fill="#fff"/>
    </g>
    <g id="Group_217" data-name="Group 217">
      <path id="Path_38" data-name="Path 38" d="M12,18a1.025,1.025,0,0,1-1-1,.6.6,0,0,1,.1-.4c.1-.1.1-.2.2-.3a.967.967,0,0,1,1.4,0c.1.1.2.2.2.3s.1.3.1.4a.6.6,0,0,1-.1.4c-.1.1-.1.2-.2.3A.908.908,0,0,1,12,18Z" fill="#fff"/>
    </g>
  </g>
</svg>
