<svg width="25" height="25" viewBox="0 0 25 25" fill="none" xmlns="http://www.w3.org/2000/svg">
<path d="M12.5 25C19.4036 25 25 19.4036 25 12.5C25 5.59644 19.4036 0 12.5 0C5.59644 0 0 5.59644 0 12.5C0 19.4036 5.59644 25 12.5 25Z" fill="white"/>
<path d="M16.25 6.40625H8.75C7.44792 6.40625 6.40625 7.44792 6.40625 8.75V11.25V16.25C6.40625 17.5521 7.44792 18.5938 8.75 18.5938H16.25C17.5521 18.5938 18.5938 17.5521 18.5938 16.25V11.25V8.75C18.5938 7.44792 17.5521 6.40625 16.25 6.40625ZM16.9271 7.8125H17.1875V8.07292V9.89583H15.1042V7.8125H16.9271ZM10.7813 11.25C11.1458 10.7292 11.8229 10.3646 12.5 10.3646C13.1771 10.3646 13.8542 10.7292 14.2188 11.25C14.4792 11.6146 14.6354 12.0313 14.6354 12.5C14.6354 13.6979 13.6458 14.6354 12.5 14.6354C11.3542 14.6354 10.3646 13.6979 10.3646 12.5C10.3646 12.0313 10.5208 11.6146 10.7813 11.25ZM17.3958 16.25C17.3958 16.875 16.875 17.3958 16.25 17.3958H8.75C8.125 17.3958 7.60417 16.875 7.60417 16.25V11.25H9.42708C9.27083 11.6146 9.16667 12.0833 9.16667 12.5C9.16667 14.3229 10.6771 15.8333 12.5 15.8333C14.3229 15.8333 15.8333 14.3229 15.8333 12.5C15.8333 12.0833 15.7292 11.6146 15.5729 11.25H17.3958V16.25Z" fill="black"/>
</svg>
