<svg width="30" height="30" viewBox="0 0 30 30" fill="none" xmlns="http://www.w3.org/2000/svg">
<path d="M17.6527 13.0727C17.058 12.2401 16.0826 11.6929 14.9882 11.6929C13.8938 11.6929 12.9184 12.2401 12.3236 13.0727C11.943 13.6199 11.7051 14.286 11.7051 14.9998C11.7051 16.8079 13.1801 18.2829 14.9882 18.2829C16.7963 18.2829 18.2713 16.8079 18.2713 14.9998C18.2713 14.286 18.0334 13.6199 17.6527 13.0727Z" fill="white"/>
<path d="M19.7223 13.0967C19.9602 13.5725 20.103 14.3338 20.103 14.9999C20.103 17.8072 17.8191 20.1149 14.988 20.1149C12.1569 20.1149 9.87302 17.831 9.87302 14.9999C9.87302 14.31 10.0158 13.5725 10.2537 13.0967H7.375V20.7335C7.375 21.7327 8.25525 22.6129 9.25446 22.6129H20.7215C21.7208 22.6129 22.601 21.7327 22.601 20.7335V13.0967H19.7223Z" fill="white"/>
<path d="M21.7441 7.81529H18.9844V10.9795H22.1247V8.21974V7.7915L21.7441 7.81529Z" fill="white"/>
<path d="M22.4584 0.0117188H7.51784C3.37827 0.0117188 0 3.38999 0 7.52956V22.4939C0 26.6097 3.37827 29.9879 7.51784 29.9879H22.4822C26.6217 29.9879 30 26.6097 30 22.4701V7.52956C29.9762 3.38999 26.5979 0.0117188 22.4584 0.0117188ZM24.2665 13.0728V20.7334C24.2665 22.7318 22.7201 24.2782 20.7216 24.2782H9.25456C7.25615 24.2782 5.70975 22.7318 5.70975 20.7334V13.0728V9.26628C5.70975 7.26787 7.25615 5.72147 9.25456 5.72147H20.7216C22.7201 5.72147 24.2665 7.26787 24.2665 9.26628V13.0728Z" fill="white"/>
</svg>
