<svg width="30" height="30" viewBox="0 0 30 30" fill="none" xmlns="http://www.w3.org/2000/svg">
<path d="M22.4584 0.130371H7.51784C3.37827 0.130371 0 3.43782 0 7.49062V22.1412C0 26.1707 3.37827 29.4782 7.51784 29.4782H22.4822C26.6217 29.4782 30 26.1707 30 22.1179V7.49062C29.9762 3.43782 26.5979 0.130371 22.4584 0.130371ZM9.99207 23.8881H5.70975V11.7763H9.99207V23.8881ZM7.82712 9.91298C6.6138 9.91298 5.63838 8.95801 5.63838 7.77012C5.63838 6.58223 6.6138 5.62727 7.82712 5.62727C9.04044 5.62727 10.0159 6.58223 10.0159 7.77012C9.99207 8.95801 9.01665 9.91298 7.82712 9.91298ZM24.2902 23.8881H24.2665H20.6979V18.0186C20.6979 16.5978 20.5075 14.781 18.5329 14.781C16.5107 14.781 16.1776 16.3183 16.1776 17.9254V23.8881H12.609V11.7763H15.9397V13.4068H16.0349C16.5583 12.4751 17.7716 11.753 19.6749 11.753C23.6003 11.753 24.2902 13.9658 24.2902 17.2499V23.8881Z" fill="white"/>
</svg>
