<svg width="25" height="25" viewBox="0 0 25 25" fill="none" xmlns="http://www.w3.org/2000/svg">
<path d="M12.5 25C19.4036 25 25 19.4036 25 12.5C25 5.59644 19.4036 0 12.5 0C5.59644 0 0 5.59644 0 12.5C0 19.4036 5.59644 25 12.5 25Z" fill="#FF0800"/>
<path d="M9.06315 18.1772H6.66732V10.4689H9.06315V18.1772ZM7.76107 9.47933C6.87565 9.47933 6.30273 8.90641 6.30273 8.12516C6.30273 7.34391 6.87565 6.771 7.76107 6.771C8.64648 6.771 9.2194 7.34391 9.2194 8.12516C9.2194 8.90641 8.69857 9.47933 7.76107 9.47933ZM18.6986 18.1772H15.9382V14.1668C15.9382 13.1252 15.5215 12.396 14.584 12.396C13.8548 12.396 13.4902 12.8647 13.2819 13.3335C13.2298 13.4897 13.2298 13.7502 13.2298 13.9585V18.1252H10.5215C10.5215 18.1252 10.5736 11.0418 10.5215 10.4168H13.2298V11.6147C13.3861 11.0939 14.2715 10.3127 15.6257 10.3127C17.3444 10.3127 18.6986 11.4064 18.6986 13.8022V18.1772Z" fill="white"/>
</svg>
