<svg width="224" height="140" viewBox="0 0 224 140" fill="none" xmlns="http://www.w3.org/2000/svg">
<g clip-path="url(#clip0)">
<path d="M85.4113 43.3055C84.0477 40.4967 80.6389 39.324 77.8301 40.6876L62.0405 48.3779C60.7315 44.7236 61.386 46.578 61.386 46.578L54.6229 44.5873L50.5596 49.2505C50.5596 49.2505 53.3139 57.6771 53.4775 58.168C54.0229 59.6951 55.1956 60.895 56.6682 61.5222C57.3499 61.795 58.0862 61.9313 58.7953 61.9313C59.6406 61.9313 60.486 61.7404 61.2769 61.3586L82.766 50.8867C85.6022 49.5232 86.7748 46.1417 85.4113 43.3055Z" fill="#FFAB8F"/>
<path d="M27.8161 139.625C24.1346 139.625 21.1621 136.653 21.1621 132.971V79.7937C21.1621 76.1121 24.1346 73.1396 27.8161 73.1396C31.4976 73.1396 34.4701 76.1121 34.4701 79.7937V132.971C34.4701 136.653 31.4704 139.625 27.8161 139.625Z" fill="#FFB69E"/>
<path d="M43.987 139.625C40.3055 139.625 37.333 136.653 37.333 132.971V79.7937C37.333 76.1121 40.3055 73.1396 43.987 73.1396C47.6685 73.1396 50.641 76.1121 50.641 79.7937V132.971C50.641 136.653 47.6685 139.625 43.987 139.625Z" fill="#FFB69E"/>
<path d="M35.8881 22.9618C42.2288 22.9618 47.369 17.8216 47.369 11.4809C47.369 5.14017 42.2288 0 35.8881 0C29.5474 0 24.4072 5.14017 24.4072 11.4809C24.4072 17.8216 29.5474 22.9618 35.8881 22.9618Z" fill="#FFB69E"/>
<path d="M35.7791 34.7699C39.3242 34.7699 42.1331 31.7429 41.8877 28.1977L41.7786 26.6433H29.8068C29.8068 26.6433 29.7523 27.2705 29.6978 28.1705C29.3978 31.7429 32.2066 34.7699 35.7791 34.7699Z" fill="#FFB69E"/>
<path d="M10.5533 46.2509C10.5533 46.2509 0.408709 74.3395 0.326898 74.5577C-0.736652 77.4211 0.763226 80.6117 3.62663 81.6753C6.49003 82.7388 9.68068 81.239 10.7442 78.3756C10.826 78.1574 21.2434 49.2779 21.2434 49.2779L16.3892 46.2236L10.5533 46.2509Z" fill="#FFB69E"/>
<path d="M50.0141 47.7779C50.1778 48.2688 50.3687 48.7596 50.5323 49.2505L61.3587 46.578C60.2133 43.3328 59.1498 40.333 58.3044 37.906C55.741 30.4066 51.4049 26.616 45.4872 26.616H41.7512C41.8875 29.8612 38.8878 32.6155 35.7517 32.6155C32.3974 32.6155 29.9158 29.8612 29.7522 26.616H26.2888C20.3438 26.616 16.0351 30.4066 13.4717 37.906C12.6808 40.2512 11.6445 43.1146 10.5537 46.2235L21.2438 49.2505C21.4346 48.7596 21.5983 48.2415 21.7619 47.7779L13.908 89.0927C13.5262 91.0016 14.9988 92.7742 16.935 92.7742H54.8956C56.8318 92.7742 58.2771 91.0016 57.9226 89.0927L50.0141 47.7779Z" fill="#FF0800"/>
<path d="M87.8659 139.625C84.1844 139.625 81.2119 136.653 81.2119 132.971V79.7937C81.2119 76.1121 84.1844 73.1396 87.8659 73.1396C91.5474 73.1396 94.5199 76.1121 94.5199 79.7937V132.971C94.5199 136.653 91.5474 139.625 87.8659 139.625Z" fill="#FFB69E"/>
<path d="M104.064 139.625C100.383 139.625 97.4102 136.653 97.4102 132.971V79.7937C97.4102 76.1121 100.383 73.1396 104.064 73.1396C107.746 73.1396 110.718 76.1121 110.718 79.7937V132.971C110.718 136.653 107.718 139.625 104.064 139.625Z" fill="#FFB69E"/>
<path d="M95.9096 22.9889C102.25 22.9889 107.39 17.8487 107.39 11.508C107.39 5.16727 102.25 0.0270996 95.9096 0.0270996C89.5689 0.0270996 84.4287 5.16727 84.4287 11.508C84.4287 17.8487 89.5689 22.9889 95.9096 22.9889Z" fill="#FFB69E"/>
<path d="M95.8562 34.7697C99.4014 34.7697 102.21 31.7427 101.965 28.1975L101.856 26.6431H89.884C89.884 26.6431 89.8295 27.2703 89.7749 28.1702C89.4749 31.7427 92.2838 34.7697 95.8562 34.7697Z" fill="#FFB69E"/>
<path d="M70.6305 46.2507C70.6305 46.2507 60.4859 74.3393 60.404 74.5574C59.3405 77.4209 60.8404 80.6115 63.7038 81.6751C66.5672 82.7386 69.7578 81.2387 70.8214 78.3753C70.9032 78.1572 81.3205 49.2777 81.3205 49.2777L76.4664 46.2234L70.6305 46.2507Z" fill="#FFB69E"/>
<path d="M131.525 74.5573C131.443 74.3392 121.435 46.6051 121.435 46.6051L115.244 46.2778L110.608 49.2776C110.608 49.2776 121.026 78.157 121.108 78.3752C122.171 81.2659 125.334 82.7385 128.225 81.6749C131.089 80.6114 132.561 77.4207 131.525 74.5573Z" fill="#FFB69E"/>
<path d="M110.091 47.7779C110.255 48.2688 110.446 48.7596 110.609 49.2505L121.436 46.578C120.29 43.3328 119.227 40.333 118.381 37.906C115.818 30.4066 111.482 26.616 105.564 26.616H101.828C101.965 29.8612 98.9648 32.6155 95.8287 32.6155C92.4744 32.6155 89.9928 29.8612 89.8292 26.616H86.3113C80.3663 26.616 76.0575 30.4066 73.4941 37.906C72.7033 40.2512 71.667 43.1146 70.5762 46.2235L81.2662 49.2505C81.4571 48.7596 81.6207 48.2415 81.7844 47.7779L73.9032 89.0654C73.5214 90.9744 74.994 92.747 76.9302 92.747H114.891C116.827 92.747 118.272 90.9744 117.918 89.0654L110.091 47.7779Z" fill="black"/>
<path d="M185.358 48.0507C184.24 48.0507 183.095 47.6962 182.113 47.0144C176.768 43.1693 169.241 37.7697 165.014 37.7697L162.342 32.2338L165.014 26.6979C171.941 26.6979 179.359 31.9611 184.731 35.4244L198.83 21.7074C201.011 19.5803 204.529 19.6075 206.684 21.8164C208.811 23.9981 208.783 27.516 206.575 29.6704L189.231 46.5508C188.167 47.5053 186.776 48.0507 185.358 48.0507Z" fill="#80391B"/>
<path d="M179.439 31.9611C174.967 29.234 169.895 26.6433 165.041 26.6433L162.368 32.1792L165.041 37.7151C168.204 37.7151 173.167 40.7149 177.721 43.8237L179.439 31.9611Z" fill="#909090"/>
<path d="M150.26 22.9889C156.601 22.9889 161.741 17.8487 161.741 11.508C161.741 5.16727 156.601 0.0270996 150.26 0.0270996C143.919 0.0270996 138.779 5.16727 138.779 11.508C138.779 17.8487 143.919 22.9889 150.26 22.9889Z" fill="#80391B"/>
<path d="M158.36 139.625C154.679 139.625 151.706 136.653 151.706 132.971V79.7937C151.706 76.1121 154.679 73.1396 158.36 73.1396C162.042 73.1396 165.014 76.1121 165.014 79.7937V132.971C165.014 136.653 162.042 139.625 158.36 139.625Z" fill="black"/>
<path d="M142.188 139.625C138.507 139.625 135.534 136.653 135.534 132.971V79.7937C135.534 76.1121 138.507 73.1396 142.188 73.1396C145.87 73.1396 148.842 76.1121 148.842 79.7937V132.971C148.842 136.653 145.87 139.625 142.188 139.625Z" fill="black"/>
<path d="M186.558 22.9618C192.899 22.9618 198.039 17.8216 198.039 11.4809C198.039 5.14017 192.899 0 186.558 0C180.217 0 175.077 5.14017 175.077 11.4809C175.077 17.8216 180.217 22.9618 186.558 22.9618Z" fill="#FFB69E"/>
<path d="M156.397 27.8978L156.233 26.6433H145.189L145.025 27.8705C144.561 31.3066 147.234 34.3881 150.725 34.3881C154.161 34.4154 156.86 31.3338 156.397 27.8978Z" fill="#80391B"/>
<path d="M122.063 53.0956V80.4752C122.063 83.5295 124.545 86.0111 127.599 86.0111C130.654 86.0111 133.135 83.5295 133.135 80.4752V53.0956L126.836 51.1594L122.063 53.0956Z" fill="#80391B"/>
<path d="M156.206 26.6433C156.315 29.6158 153.561 32.1247 150.67 32.1247C147.589 32.1247 145.298 29.6158 145.162 26.6433H135.399C128.063 26.6433 122.091 32.5065 122.063 39.7059V39.7332V53.0957H133.163V39.7604C133.163 38.6969 134.253 37.7424 135.426 37.7424H135.562V79.7935H165.042V26.6433H156.206Z" fill="#909090"/>
<path d="M187.675 139.625C183.994 139.625 181.021 136.653 181.021 132.971V79.7937C181.021 76.1121 183.994 73.1396 187.675 73.1396C191.357 73.1396 194.329 76.1121 194.329 79.7937V132.971C194.329 136.653 191.357 139.625 187.675 139.625Z" fill="#909090"/>
<path d="M203.875 139.625C200.193 139.625 197.221 136.653 197.221 132.971V79.7937C197.221 76.1121 200.193 73.1396 203.875 73.1396C207.556 73.1396 210.529 76.1121 210.529 79.7937V132.971C210.529 136.653 207.529 139.625 203.875 139.625Z" fill="#909090"/>
<path d="M202.592 29.0158L202.429 26.6433H190.757L190.566 28.9613C190.266 32.4792 193.048 35.5062 196.593 35.5062C200.056 35.5062 202.838 32.5337 202.592 29.0158Z" fill="#FFB69E"/>
<path d="M212.928 53.0412V80.3389C212.928 83.3387 215.273 85.9021 218.273 86.0112C221.436 86.1203 224.027 83.6114 224.027 80.4753V53.0412L218.491 50.9141L212.928 53.0412Z" fill="#FFB69E"/>
<path d="M173.931 48.0506L171.286 41.8875L165.014 40.1694C165.014 40.224 165.014 57.4862 165.014 57.4862L173.931 48.0506Z" fill="#FFB69E"/>
<path d="M224 39.7059C223.973 32.5065 217.973 26.6433 210.665 26.6433H202.429C202.429 26.6706 202.429 26.7251 202.429 26.7524C202.565 29.9158 199.647 32.5883 196.593 32.5883C193.321 32.5883 190.893 29.9158 190.757 26.7524C190.757 26.7251 190.757 26.6706 190.757 26.6433H183.094C178.922 26.6433 174.94 28.4432 172.186 31.552L165.041 40.1695C165.041 40.224 173.931 48.0507 173.931 48.0507L181.076 40.4695L181.022 79.7935H210.528V37.7424H210.665C211.837 37.7424 212.901 38.6969 212.928 39.7604V53.0684H224V39.7604C224 39.7332 224 39.7059 224 39.7059Z" fill="#FF0800"/>
</g>
<defs>
<clipPath id="clip0">
<rect width="224" height="139.625" fill="white"/>
</clipPath>
</defs>
</svg>
