<svg width="150" height="150" viewBox="0 0 150 150" fill="none" xmlns="http://www.w3.org/2000/svg">
<path d="M75 149.999C116.421 149.999 150 116.42 150 74.9993C150 33.5783 116.421 0 75 0C33.5787 0 0 33.5783 0 74.9993C0 116.42 33.5787 149.999 75 149.999Z" fill="white"/>
<path d="M113.777 63H70.7464V79.6434C70.7419 79.8831 70.6447 80.1117 70.4752 80.2812C70.3058 80.4507 70.0772 80.548 69.8376 80.5524H64V96.7762C64.0036 97.0997 64.1337 97.4088 64.3624 97.6375C64.591 97.8663 64.9001 97.9964 65.2234 98H113.777C114.1 97.9964 114.409 97.8663 114.638 97.6375C114.866 97.4088 114.996 97.0997 115 96.7762V64.2238C114.996 63.9003 114.866 63.5912 114.638 63.3625C114.409 63.1337 114.1 63.0036 113.777 63Z" fill="#D0D0D0"/>
<path d="M103.395 82.0323C103.303 81.9101 103.185 81.8109 103.048 81.7425C102.912 81.6742 102.761 81.6386 102.608 81.6386C102.456 81.6386 102.305 81.6742 102.168 81.7425C102.032 81.8109 101.913 81.9101 101.822 82.0323L95.4949 89.5095C95.4034 89.6317 95.2847 89.7309 95.1482 89.7993C95.0116 89.8676 94.8611 89.9032 94.7084 89.9032C94.5557 89.9032 94.4051 89.8676 94.2686 89.7993C94.132 89.7309 94.0133 89.6317 93.9219 89.5095L82.0021 75.3937C81.9106 75.2714 81.7919 75.1722 81.6554 75.1039C81.5188 75.0356 81.3682 75 81.2156 75C81.0629 75 80.9123 75.0356 80.7758 75.1039C80.6392 75.1722 80.5205 75.2714 80.4291 75.3937L64 94.8903V96.7771C64.0036 97.1003 64.1337 97.4092 64.3624 97.6378C64.591 97.8664 64.9001 97.9964 65.2234 98H113.777C114.1 97.9964 114.409 97.8664 114.638 97.6378C114.866 97.4092 114.996 97.1003 115 96.7771V95.8337L103.395 82.0323Z" fill="black"/>
<path d="M106.5 77C108.985 77 111 74.9853 111 72.5C111 70.0147 108.985 68 106.5 68C104.015 68 102 70.0147 102 72.5C102 74.9853 104.015 77 106.5 77Z" fill="white"/>
<path d="M34 78.5111V55.4889C33.9986 55.1617 34.0624 54.8374 34.1878 54.5348C34.3131 54.2322 34.4974 53.9573 34.7301 53.7259C34.9628 53.4946 35.2393 53.3113 35.5437 53.1867C35.848 53.0621 36.1741 52.9986 36.5032 53H69.4968C69.8259 52.9986 70.152 53.0621 70.4563 53.1867C70.7607 53.3113 71.0372 53.4946 71.2699 53.7259C71.5026 53.9573 71.6869 54.2322 71.8122 54.5348C71.9376 54.8374 72.0014 55.1617 72 55.4889V78.5111C72.0014 78.8383 71.9376 79.1626 71.8122 79.4652C71.6869 79.7678 71.5026 80.0427 71.2699 80.2741C71.0372 80.5054 70.7607 80.6887 70.4563 80.8133C70.152 80.9379 69.8259 81.0013 69.4968 81H36.5032C36.1741 81.0013 35.848 80.9379 35.5437 80.8133C35.2393 80.6887 34.9628 80.5054 34.7301 80.2741C34.4974 80.0427 34.3131 79.7678 34.1878 79.4652C34.0624 79.1626 33.9986 78.8383 34 78.5111Z" fill="black"/>
<path d="M49 62.1217C49 61.1361 49.6584 60.7137 50.4815 61.2065L58.3827 66.0993C59.2058 66.5921 59.2058 67.4017 58.3827 67.8945L50.4815 72.7873C49.6584 73.2801 49 72.8929 49 71.8721V62.1217Z" fill="white"/>
<path d="M70.0701 120.529C69.9242 119.477 69.1767 119.044 68.5265 118.99C68.2826 118.965 68.0363 118.993 67.8038 119.07C67.5713 119.147 67.3578 119.273 67.1774 119.438C66.997 119.273 66.7835 119.147 66.551 119.07C66.3185 118.993 66.0722 118.965 65.8283 118.99C65.178 119.044 64.4306 119.477 64.2847 120.529C63.9971 122.632 66.8938 124.063 67.0174 124.123C67.0673 124.147 67.122 124.16 67.1774 124.16C67.2328 124.16 67.2875 124.147 67.3374 124.123C67.459 124.063 70.3557 122.632 70.0701 120.529Z" fill="#FF0800"/>
<path d="M83.4077 121.44C82.5229 120.021 81.5451 118.662 80.4806 117.372C79.7574 116.511 78.7122 115.384 77.8472 114.907C77.1544 114.531 76.0565 114.22 74.91 114.077C74.1908 113.988 72.8721 113.897 72.1429 114.295C71.5028 114.642 71.209 115.927 71.0895 116.663C70.8991 117.834 70.8748 119.418 71.4359 120.018C71.5975 120.178 71.7909 120.303 72.0037 120.385C72.2165 120.466 72.444 120.502 72.6716 120.491C73.5468 120.463 74.3764 120.095 74.9829 119.465C75.2017 119.23 75.3009 119.253 75.8094 119.509C76.3999 119.857 77.0851 120.011 77.7682 119.949C77.7885 119.968 77.8999 120.085 77.9566 120.681C78.0032 121.166 77.9991 121.812 77.9951 122.499C77.9951 123.895 77.9789 125.43 78.3334 126.632C77.7155 126.336 77.0639 126.117 76.3928 125.978C74.8289 125.657 72.4974 125.687 70.1456 127.58C69.6616 127.18 69.1236 126.851 68.5473 126.602C67.0564 125.966 65.5695 126.055 64.2488 126.861C63.4375 127.376 62.8124 128.136 62.4642 129.03C62.0996 129.94 61.9466 130.92 62.0165 131.897C62.1542 133.97 63.2035 135.685 64.7552 136.372C66.1732 136.998 69.2117 137.248 71.8613 137.248C73.808 137.248 75.544 137.113 76.2793 136.891C78.2757 136.223 80.2034 135.367 82.0363 134.333C85.0424 132.626 86.6103 130.978 86.6954 129.43C86.8352 127.091 84.2139 122.723 83.4077 121.44Z" fill="#FFB69E"/>
<path d="M29.4161 106.411C28.0123 107.813 20.649 112.876 19.2431 111.484C17.8373 110.092 22.9258 102.741 24.3296 101.339C25.0092 100.691 25.916 100.334 26.856 100.345C27.796 100.355 28.6945 100.732 29.3592 101.395C30.0239 102.058 30.402 102.954 30.4127 103.892C30.4233 104.829 30.0656 105.734 29.4161 106.411Z" fill="#FF7A00"/>
<path d="M29.4017 100.961C29.5662 100.633 29.6384 100.268 29.6105 99.9026C29.5827 99.5376 29.4559 99.1869 29.2437 98.8881C29.0407 98.6073 28.7657 98.3862 28.4476 98.2477C27.1046 97.6416 26.3916 99.0558 27.3315 99.7366C28.2714 100.417 28.711 102.363 28.711 102.363L29.4017 100.961Z" fill="url(#paint0_linear)"/>
<path d="M30.0336 102.047C30.3121 101.942 30.6153 101.92 30.9061 101.985C31.1968 102.049 31.4625 102.196 31.6704 102.409C31.8443 102.592 31.9696 102.814 32.035 103.058C32.3429 104.153 31.172 104.532 30.7608 103.736C30.3496 102.94 29.041 102.415 29.041 102.415L30.0336 102.047Z" fill="url(#paint1_linear)"/>
<path d="M32.3342 100.199C31.8521 100.757 29.2694 102.826 28.7103 102.357C28.1512 101.888 29.8305 99.0195 30.3106 98.4639C30.4248 98.3313 30.5642 98.2224 30.7206 98.1434C30.8771 98.0645 31.0476 98.017 31.2224 98.0038C31.3973 97.9906 31.573 98.0118 31.7396 98.0663C31.9062 98.1209 32.0604 98.2076 32.1934 98.3215C32.3265 98.4354 32.4357 98.5744 32.5148 98.7304C32.594 98.8865 32.6415 99.0565 32.6548 99.2309C32.6681 99.4053 32.6468 99.5805 32.5921 99.7467C32.5374 99.9128 32.4505 100.067 32.3363 100.199H32.3342Z" fill="url(#paint2_linear)"/>
<path d="M31.1192 100.807C31.1192 100.807 32.679 99.6294 33.6959 100.605C34.7127 101.581 33.5865 103.029 32.3832 102.569C31.18 102.108 29.0732 102.405 29.0732 102.405L31.1192 100.807Z" fill="url(#paint3_linear)"/>
<path d="M125.87 47.0241C125.87 48.5433 124.879 50.6423 123.682 51.7878C123.151 52.2989 122.578 52.6201 122.033 52.6201C121.7 52.6189 121.37 52.5699 121.051 52.4746C120.646 52.3534 120.215 52.3534 119.811 52.4746C119.492 52.5699 119.161 52.6189 118.829 52.6201C118.257 52.6201 117.658 52.2665 117.105 51.713C115.944 50.5595 115 48.515 115 47.0241C115 44.8302 116.317 43.5049 117.552 43.1857C118.162 43.0658 118.792 43.0964 119.388 43.2746C119.96 43.4234 120.558 43.4489 121.142 43.3494C121.257 43.3292 121.375 43.3049 121.49 43.2746C122.086 43.0964 122.716 43.0658 123.326 43.1857C124.563 43.511 125.87 44.8362 125.87 47.0241Z" fill="#FF0800"/>
<path d="M126.461 40.137C126.461 40.137 126.155 42.2603 124.547 42.8784C123.009 43.4683 121.638 41.8683 121.077 41.9976C121.052 42.0021 121.028 42.011 121.006 42.0239C121.026 41.9673 121.642 40.135 123.234 40.0138C124.826 39.8926 125.718 40.6239 126.461 40.137Z" fill="#18A744"/>
<path d="M126.461 40.137C126.461 40.137 125.485 41.3249 124.109 41.3249C122.894 41.3249 121.417 41.8663 121.071 41.9976L121 42.0239C121.02 41.9673 121.636 40.135 123.228 40.0138C124.82 39.8926 125.718 40.6239 126.461 40.137Z" fill="#18A744"/>
<path d="M121.577 44.105C121.577 44.3535 121.186 44.5616 120.663 44.6101C120.59 44.6101 120.516 44.6202 120.439 44.6202C120.358 44.6179 120.277 44.6111 120.197 44.6C119.681 44.5515 119.292 44.3454 119.292 44.0969L121.577 44.105Z" fill="#FE4D47"/>
<path d="M121.308 41.9978L120.473 43.2645C120.541 43.5413 120.591 43.8219 120.625 44.1049C120.643 44.2685 120.657 44.4362 120.663 44.6099C120.59 44.6099 120.515 44.62 120.438 44.62C120.358 44.6177 120.277 44.611 120.197 44.5998C120.197 44.4281 120.175 44.2584 120.155 44.0968C120.066 43.3802 119.861 42.6828 119.547 42.0321C119.533 42.0056 119.524 41.9766 119.522 41.9467C119.519 41.9168 119.522 41.8866 119.531 41.8579C119.539 41.8292 119.554 41.8025 119.573 41.7794C119.592 41.7563 119.616 41.7371 119.642 41.723C119.669 41.709 119.698 41.7003 119.728 41.6974C119.758 41.6946 119.788 41.6977 119.817 41.7065C119.846 41.7153 119.873 41.7297 119.896 41.7488C119.919 41.768 119.938 41.7915 119.952 41.818C120.092 42.0947 120.21 42.3818 120.305 42.6766L120.923 41.7392C120.939 41.7141 120.961 41.6925 120.986 41.6756C121.011 41.6587 121.039 41.647 121.068 41.641C121.098 41.6349 121.128 41.6348 121.158 41.6406C121.187 41.6464 121.216 41.6579 121.241 41.6746C121.267 41.6907 121.29 41.7121 121.308 41.7374C121.326 41.7628 121.338 41.7914 121.344 41.8217C121.351 41.852 121.351 41.8833 121.344 41.9136C121.338 41.9438 121.325 41.9725 121.308 41.9978Z" fill="#18A744"/>
<path d="M83.9351 36.4451L65.051 18.9087C64.9203 18.7874 64.8148 18.6417 64.7404 18.4798C64.666 18.3179 64.6242 18.1431 64.6173 17.9652C64.6104 17.7874 64.6387 17.61 64.7004 17.4432C64.7621 17.2765 64.8561 17.1236 64.9771 16.9933C65.098 16.8626 65.2437 16.7571 65.4056 16.6829C65.5676 16.6087 65.7427 16.5672 65.9209 16.5608C66.0991 16.5544 66.277 16.5832 66.4442 16.6456C66.6114 16.708 66.7648 16.8028 66.8955 16.9245L85.781 34.4594C86.0446 34.7048 86.2003 35.0445 86.2139 35.4039C86.2275 35.7633 86.0979 36.113 85.8535 36.3763C85.7324 36.5067 85.5868 36.612 85.4248 36.6861C85.2629 36.7602 85.0878 36.8016 84.9097 36.808C84.7315 36.8144 84.5538 36.7856 84.3866 36.7233C84.2193 36.6611 84.0659 36.5665 83.9351 36.4451Z" fill="#D0D0D0"/>
<path d="M66.3624 21.0149L65.1148 19.8638C65.0414 19.7958 64.9822 19.714 64.9404 19.6232C64.8986 19.5324 64.8751 19.4343 64.8712 19.3345C64.8673 19.2346 64.8831 19.1351 64.9177 19.0415C64.9524 18.9479 65.0051 18.8621 65.0729 18.789L66.7607 16.9597C66.8286 16.8865 66.9104 16.8274 67.0013 16.7858C67.0923 16.7443 67.1905 16.7211 67.2905 16.7176C67.3905 16.7141 67.4903 16.7304 67.5841 16.7655C67.6779 16.8006 67.7639 16.8539 67.8372 16.9222L69.0833 18.0719L66.3624 21.0149Z" fill="#505050"/>
<path d="M66.0088 17.7805L65.08 18.7872C65.0121 18.8603 64.9594 18.9461 64.9248 19.0397C64.8902 19.1333 64.8744 19.2329 64.8783 19.3327C64.8821 19.4325 64.9056 19.5306 64.9474 19.6214C64.9892 19.7123 65.0485 19.794 65.1218 19.8621L66.3694 21.0132L67.8133 19.4482L66.0088 17.7805Z" fill="#505050"/>
<path d="M66.0118 23.8329L65.0337 22.9304C64.9492 22.8524 64.8808 22.7585 64.8326 22.6542C64.7844 22.5498 64.7573 22.437 64.7528 22.3223C64.7483 22.2075 64.7665 22.0931 64.8064 21.9855C64.8463 21.8779 64.907 21.7794 64.9852 21.6954L69.6593 16.6624C69.7373 16.5783 69.831 16.5105 69.9352 16.4627C70.0395 16.415 70.1522 16.3882 70.2668 16.384C70.3815 16.3798 70.496 16.3983 70.6037 16.4383C70.7113 16.4783 70.8101 16.5391 70.8944 16.6172L71.8726 17.5197C71.9568 17.5978 72.0249 17.6918 72.073 17.7961C72.121 17.9004 72.1481 18.0132 72.1526 18.1278C72.1571 18.2425 72.139 18.3569 72.0992 18.4644C72.0595 18.572 71.999 18.6706 71.921 18.7547L67.2469 23.7877C67.169 23.8718 67.0752 23.9396 66.971 23.9874C66.8668 24.0351 66.7541 24.0619 66.6394 24.0661C66.5247 24.0702 66.4103 24.0518 66.3026 24.0118C66.1949 23.9718 66.0961 23.911 66.0118 23.8329Z" fill="#202020"/>
<path d="M67.4123 19.0832L64.9881 21.6926C64.9102 21.7766 64.8497 21.8752 64.8099 21.9828C64.7702 22.0903 64.7521 22.2047 64.7566 22.3194C64.7611 22.4341 64.7881 22.5468 64.8362 22.6511C64.8842 22.7555 64.9523 22.8494 65.0366 22.9275L66.0147 23.83C66.1847 23.9875 66.41 24.0714 66.6413 24.0632C66.8726 24.0551 67.091 23.9555 67.2485 23.7863L69.6726 21.177L67.4123 19.0832Z" fill="#202020"/>
<path d="M67.0337 26.7109L65.734 25.5117C65.6223 25.4079 65.5321 25.2832 65.4685 25.1448C65.405 25.0063 65.3693 24.8567 65.3635 24.7046C65.3577 24.5525 65.3819 24.4008 65.4348 24.2582C65.4876 24.1156 65.5681 23.9849 65.6716 23.8736L71.8818 17.1847C71.9852 17.073 72.1096 16.9829 72.248 16.9195C72.3864 16.856 72.5361 16.8205 72.6884 16.815C72.8406 16.8095 72.9926 16.834 73.1356 16.8873C73.2785 16.9405 73.4096 17.0214 73.5214 17.1253L74.8196 18.3231C74.9316 18.4267 75.0221 18.5514 75.0859 18.69C75.1497 18.8285 75.1857 18.9782 75.1916 19.1305C75.1975 19.2828 75.1734 19.4346 75.1205 19.5774C75.0676 19.7202 74.9871 19.8511 74.8835 19.9625L68.6733 26.6514C68.4642 26.8765 68.1741 27.0091 67.8667 27.0203C67.5593 27.0314 67.2597 26.9201 67.0337 26.7109Z" fill="black"/>
<path d="M68.8659 20.4327L65.6759 23.8692C65.5724 23.9806 65.4919 24.1113 65.439 24.2539C65.3862 24.3965 65.362 24.5482 65.3677 24.7003C65.3735 24.8524 65.4092 25.0019 65.4728 25.1404C65.5364 25.2789 65.6266 25.4036 65.7382 25.5073L67.0379 26.7065C67.264 26.9158 67.5636 27.0271 67.871 27.0159C68.1784 27.0048 68.4685 26.8721 68.6776 26.6471L71.8663 23.2121L68.8659 20.4327Z" fill="black"/>
<path d="M83.276 35.8311L83.9385 36.4424C84.0693 36.5638 84.2227 36.6584 84.39 36.7206C84.5572 36.7829 84.7349 36.8116 84.9131 36.8052C85.0912 36.7988 85.2663 36.7574 85.4282 36.6834C85.5902 36.6093 85.7358 36.504 85.857 36.3735L85.7803 34.4612L85.1118 33.8444L83.276 35.8311Z" fill="#D0D0D0"/>
<path d="M81.741 35.2921L82.9872 36.4418C83.0604 36.5101 83.1464 36.5634 83.2402 36.5985C83.334 36.6336 83.4338 36.6499 83.5338 36.6464C83.6338 36.6429 83.7321 36.6197 83.823 36.5782C83.9139 36.5366 83.9957 36.4775 84.0636 36.4043L85.7514 34.5751C85.8192 34.5019 85.872 34.4161 85.9066 34.3225C85.9412 34.2289 85.957 34.1294 85.9531 34.0296C85.9492 33.9297 85.9257 33.8316 85.8839 33.7408C85.8422 33.65 85.7829 33.5682 85.7096 33.5002L84.462 32.3491L81.741 35.2921Z" fill="#505050"/>
<path d="M84.9901 35.4063L84.0627 36.4115C83.9947 36.4847 83.9129 36.5438 83.822 36.5854C83.7311 36.6269 83.6328 36.6501 83.5328 36.6536C83.4328 36.6571 83.3331 36.6408 83.2393 36.6057C83.1455 36.5706 83.0595 36.5174 82.9862 36.449L81.7401 35.2993L83.1826 33.7358L84.9901 35.4063Z" fill="#D0D0D0"/>
<path d="M84.0599 36.4088L84.9654 35.4274L84.8615 32.7202L84.4669 32.3561L81.7387 35.2951L82.9848 36.4449C83.058 36.5131 83.1438 36.5663 83.2374 36.6014C83.331 36.6365 83.4306 36.6528 83.5304 36.6495C83.6303 36.6461 83.7284 36.6232 83.8193 36.5819C83.9101 36.5406 83.9919 36.4818 84.0599 36.4088Z" fill="#505050"/>
<path d="M85.7944 30.4423L84.8163 29.5398C84.6463 29.3823 84.421 29.2984 84.1897 29.3066C83.9584 29.3148 83.7401 29.4144 83.5826 29.5835L78.9084 34.6166C78.8302 34.7006 78.7694 34.7992 78.7294 34.9068C78.6894 35.0145 78.6711 35.129 78.6755 35.2439C78.6798 35.3587 78.7068 35.4716 78.7549 35.5761C78.803 35.6807 78.8711 35.7747 78.9555 35.853L79.9337 36.7555C80.018 36.8336 80.1168 36.8944 80.2244 36.9344C80.3321 36.9744 80.4466 36.9929 80.5613 36.9887C80.676 36.9845 80.7886 36.9577 80.8929 36.91C80.9971 36.8622 81.0908 36.7944 81.1688 36.7103L85.8429 31.6773C85.9211 31.5933 85.9818 31.4948 86.0217 31.3872C86.0616 31.2796 86.0798 31.1652 86.0753 31.0504C86.0708 30.9357 86.0437 30.8229 85.9955 30.7185C85.9473 30.6142 85.8789 30.5203 85.7944 30.4423Z" fill="#202020"/>
<path d="M83.5896 34.1053L81.1668 36.7132C81.0889 36.7973 80.9952 36.8651 80.8909 36.9129C80.7867 36.9606 80.674 36.9874 80.5593 36.9916C80.4446 36.9957 80.3302 36.9773 80.2225 36.9373C80.1148 36.8973 80.016 36.8365 79.9317 36.7584L78.9536 35.8559C78.8693 35.7777 78.8012 35.6838 78.7532 35.5795C78.7051 35.4751 78.6781 35.3624 78.6736 35.2477C78.6691 35.1331 78.6872 35.0187 78.7269 34.9111C78.7667 34.8036 78.8272 34.705 78.9051 34.6209L81.3292 32.0115L83.5896 34.1053Z" fill="#D0D0D0"/>
<path d="M84.9815 29.6865L84.8192 29.5368C84.6493 29.3792 84.4239 29.2954 84.1927 29.3036C83.9614 29.3117 83.743 29.4113 83.5855 29.5804L78.9114 34.6135C78.8331 34.6975 78.7723 34.7961 78.7323 34.9038C78.6924 35.0114 78.674 35.1259 78.6784 35.2408C78.6828 35.3556 78.7098 35.4686 78.7578 35.5731C78.8059 35.6776 78.8741 35.7717 78.9585 35.8499L79.9366 36.7524C80.0209 36.8305 80.1197 36.8913 80.2274 36.9314C80.3351 36.9714 80.4495 36.9898 80.5642 36.9856C80.6789 36.9814 80.7916 36.9547 80.8958 36.9069C81 36.8592 81.0938 36.7913 81.1717 36.7073L85.0839 32.494L84.9815 29.6865Z" fill="#202020"/>
<path d="M85.0936 27.8626L83.7939 26.6635C83.5679 26.4542 83.2683 26.3429 82.9608 26.354C82.6534 26.3652 82.3633 26.4978 82.1542 26.7229L75.9468 33.4088C75.7381 33.6342 75.6276 33.9335 75.6395 34.2408C75.6515 34.5482 75.785 34.8386 76.0106 35.0483L77.3089 36.2461C77.4207 36.35 77.5518 36.4308 77.6947 36.4841C77.8377 36.5373 77.9896 36.5619 78.1419 36.5564C78.2942 36.5508 78.4439 36.5153 78.5823 36.4519C78.7207 36.3885 78.8451 36.2983 78.9485 36.1867L85.1587 29.4978C85.3664 29.2726 85.4762 28.9742 85.464 28.6677C85.4518 28.3612 85.3186 28.0717 85.0936 27.8626Z" fill="black"/>
<path d="M82.1353 32.7562L78.9452 36.1898C78.8418 36.3015 78.7173 36.3916 78.5789 36.455C78.4405 36.5185 78.2909 36.554 78.1386 36.5595C77.9863 36.565 77.8343 36.5404 77.6914 36.4872C77.5484 36.434 77.4173 36.3531 77.3055 36.2492L76.0073 35.0514C75.7816 34.8417 75.6482 34.5513 75.6362 34.244C75.6242 33.9366 75.7347 33.6373 75.9434 33.4119L79.1335 29.9754L82.1353 32.7562Z" fill="black"/>
<defs>
<linearGradient id="paint0_linear" x1="508.362" y1="918.529" x2="527.71" y2="966.614" gradientUnits="userSpaceOnUse">
<stop stop-color="#18A744"/>
<stop offset="1" stop-color="white"/>
</linearGradient>
<linearGradient id="paint1_linear" x1="569.394" y1="527.655" x2="574.607" y2="555.675" gradientUnits="userSpaceOnUse">
<stop stop-color="#18A744"/>
<stop offset="1" stop-color="white"/>
</linearGradient>
<linearGradient id="paint2_linear" x1="749.258" y1="949.752" x2="764.276" y2="1003.56" gradientUnits="userSpaceOnUse">
<stop stop-color="#18A744"/>
<stop offset="1" stop-color="white"/>
</linearGradient>
<linearGradient id="paint3_linear" x1="919.621" y1="569.569" x2="923.537" y2="601.044" gradientUnits="userSpaceOnUse">
<stop stop-color="#18A744"/>
<stop offset="1" stop-color="white"/>
</linearGradient>
</defs>
</svg>
