<svg width="184" height="236" viewBox="0 0 184 236" fill="none" xmlns="http://www.w3.org/2000/svg">
<path d="M92 184C142.81 184 184 142.81 184 92C184 41.1898 142.81 0 92 0C41.1898 0 0 41.1898 0 92C0 142.81 41.1898 184 92 184Z" fill="#FF0800"/>
<path d="M46 126.931C52.2891 126.931 58.5781 126.931 64.8672 126.931L64.975 128.225L55.7391 142.205L45.8203 128.081L46 126.931Z" fill="#B3B3B3"/>
<path d="M46.108 127.326L45.9283 134.478L32.5596 141.126V162.509C33.8893 163.515 35.2189 164.522 36.6205 165.456H55.0924H77.6252V141.126L65.1908 134.119L64.508 126.967L46.108 127.326Z" fill="#FFB69E"/>
<path d="M39.3875 133.651L42.5859 132.394L45.1734 130.058L54.3016 136.958H56.5656L65.6937 130.022L71.4797 133.615L81.5422 150.722L75.6484 182.562C57.4641 179.292 41.1484 170.703 28.3547 158.448L26.2344 152.087L39.3875 133.651Z" fill="#939393"/>
<path d="M68.5316 131.495L64.866 126.967L56.5645 136.994L63.6801 144.9L68.5316 131.495Z" fill="#B5B5B5"/>
<path d="M42.2979 131.423L45.9994 126.967L54.301 136.994L46.8979 144.828L42.2979 131.423Z" fill="#B5B5B5"/>
<path d="M42.2979 131.424L17.8963 139.366C16.89 139.689 16.2791 140.516 16.0635 141.558L15.7041 143.463C24.7244 156.795 37.1229 167.649 51.7135 174.764L42.2979 131.424Z" fill="white"/>
<path d="M42.299 131.424L39.4959 132.286L32.0928 144.9L41.4365 145.188L35.6865 148.458L46.324 171.889C48.085 172.895 49.8459 173.83 51.6787 174.728L42.299 131.424Z" fill="#EEF3F7"/>
<path d="M68.5332 131.496L92.9348 139.366C93.941 139.689 94.552 140.516 94.7676 141.558L102.961 183.389C99.3676 183.821 95.7379 184.036 92.0004 184.036C89.2332 184.036 86.502 183.892 83.7707 183.677L82.0098 177.711C81.9738 177.567 81.8301 177.496 81.6863 177.496C81.5426 177.496 81.4348 177.639 81.4348 177.747L81.2191 183.389C73.277 182.455 65.6582 180.55 58.4707 177.711L68.5332 131.496Z" fill="#EEF3F7"/>
<path d="M68.5334 131.495L70.0787 131.963L78.7396 144.972L69.3959 145.259L75.1459 148.53L61.3818 178.753C60.4115 178.43 59.4412 178.07 58.5068 177.675L68.5334 131.495Z" fill="white"/>
<path d="M58.5068 177.711L59.2615 174.153L56.6381 139.258L58.0756 138.647L56.5662 136.958H54.3021L52.7568 138.611L54.2303 139.258L51.6787 174.405L51.7506 174.692C53.9428 175.806 56.2068 176.812 58.5068 177.711Z" fill="black"/>
<path d="M126.176 133.148L123.337 138.539L114.245 139.581L117.659 165.205C130.992 163.552 143.354 161.072 154.387 157.873L155.645 139.905L149.895 139.042L147.092 133.4L126.176 133.148Z" fill="#FFB69E"/>
<path d="M119.6 151.189C129.878 156.184 140.444 157.226 151.585 151.476L151.477 162.186C142.169 170.092 131.28 176.166 119.349 179.867L119.6 151.189Z" fill="#B5B5B5"/>
<path d="M147.272 133.472L165.169 138.359C166.93 138.898 168.655 139.653 170.092 140.623C161.934 153.705 150.578 164.594 137.102 172.177L147.272 133.472Z" fill="#EEF3F7"/>
<path d="M147.092 133.364L149.464 134.299L157.514 146.374L148.062 146.23L153.92 149.356L140.516 170.2C139.402 170.883 138.252 171.566 137.102 172.213L147.092 133.364Z" fill="white"/>
<path d="M126.32 133.292L108.316 137.856C103.644 139.222 99.4391 141.881 99.2234 146.805L97.5703 183.82C102.242 183.533 106.806 182.922 111.263 181.952L112.125 170.523L113.491 181.448C120.966 179.652 128.117 176.956 134.766 173.434L126.32 133.292Z" fill="white"/>
<path d="M126.5 133.184L123.697 134.262L115.862 146.05H125.314L119.42 149.069L133.651 174.045C134.047 173.83 134.442 173.65 134.837 173.434L126.5 133.184Z" fill="#EEF3F7"/>
<path d="M124.2 172.464L126.285 172.033C127.183 171.853 127.902 171.35 128.369 170.631C128.836 169.948 129.052 169.05 128.872 168.152L126.428 155.789C125.494 151.117 121.864 148.745 117.695 148.206C116.114 147.991 114.425 148.063 112.808 148.386C111.191 148.709 109.61 149.284 108.208 150.075C104.578 152.159 102.099 155.753 103.033 160.425L105.477 172.788C105.656 173.686 106.16 174.405 106.878 174.872C107.561 175.339 108.46 175.555 109.358 175.375L111.442 174.944L111.263 174.081L109.178 174.513C108.531 174.656 107.885 174.477 107.381 174.153C106.878 173.794 106.483 173.255 106.339 172.608L103.86 160.281C103.033 156.041 105.261 152.77 108.603 150.866C109.933 150.111 111.406 149.572 112.952 149.284C114.497 148.997 116.078 148.925 117.588 149.105C121.397 149.572 124.739 151.764 125.566 155.969L128.01 168.331C128.153 168.978 127.974 169.625 127.65 170.128C127.291 170.631 126.752 171.027 126.105 171.17L124.02 171.602L124.2 172.464Z" fill="#FF0800"/>
<path d="M127.075 157.658L126.715 155.753C125.745 150.938 122.008 148.494 117.731 147.955C116.114 147.739 114.389 147.811 112.736 148.134C111.083 148.458 109.465 149.033 108.064 149.859C104.326 151.98 101.775 155.681 102.745 160.497L103.105 162.402L104.542 162.114L104.183 160.209C103.356 156.113 105.548 152.95 108.783 151.117C110.076 150.399 111.514 149.859 113.023 149.572C114.533 149.284 116.078 149.213 117.551 149.392C121.253 149.859 124.487 151.944 125.278 156.041L125.637 157.945L127.075 157.658Z" fill="#4D4D4D"/>
<path d="M109.753 175.519L110.867 175.303C111.154 175.627 111.585 175.77 112.017 175.698C112.663 175.555 113.131 174.908 112.987 174.261C112.843 173.614 112.196 173.183 111.549 173.291C111.118 173.363 110.759 173.686 110.615 174.081L109.501 174.297L109.753 175.519Z" fill="black"/>
<path d="M125.061 172.464L123.947 172.68C123.804 173.075 123.48 173.398 123.013 173.47C122.366 173.614 121.719 173.183 121.575 172.5C121.432 171.853 121.863 171.206 122.546 171.063C122.977 170.991 123.408 171.134 123.696 171.458L124.81 171.242L125.061 172.464Z" fill="black"/>
<path d="M113.383 148.027L112.952 145.87L112.089 146.05L111.227 146.23L111.658 148.386C111.981 148.278 112.305 148.206 112.628 148.134C112.916 148.098 113.131 148.063 113.383 148.027Z" fill="#666666"/>
<path d="M123.697 134.298C123.661 134.298 110.472 134.406 112.7 145.942L111.478 146.194C108.962 133.22 123.625 133.076 123.661 133.076L123.697 134.298Z" fill="#4D4D4D"/>
<path d="M150.003 133.112C152.159 133.184 156.292 133.759 159.49 137.64C161.503 140.12 163.156 143.894 163.587 149.751C163.192 150.219 162.832 150.686 162.437 151.153C162.15 144.864 160.568 140.911 158.52 138.431C155.645 134.945 151.907 134.406 149.967 134.334L150.003 133.112Z" fill="#4D4D4D"/>
<path d="M51.2833 19.1189H97.6067C100.446 19.1189 102.782 21.4548 102.782 24.2939V54.7689C102.782 57.608 100.446 59.9439 97.6067 59.9439H60.1958C57.9317 64.5439 47.0067 66.6642 47.0067 66.6642C47.0067 66.6642 50.4208 63.933 52.3614 59.9439H51.3192C48.4801 59.9439 46.1442 57.608 46.1442 54.7689V24.2939C46.0723 21.4548 48.4083 19.1189 51.2833 19.1189Z" fill="#D9D9D9"/>
<path d="M110.221 23.467C125.602 23.467 138.108 33.3858 138.108 45.6405C138.108 52.6842 133.975 58.9374 127.578 62.9983C129.088 68.1374 133.724 71.8389 133.724 71.8389C133.724 71.8389 124.272 70.0061 121.11 66.053C117.767 67.203 114.066 67.8139 110.221 67.8139C94.8393 67.8139 82.333 57.8952 82.333 45.6405C82.333 33.3858 94.8393 23.467 110.221 23.467Z" fill="black"/>
<path d="M51.1748 26.45H83.6264V28.4625H51.1748V26.45ZM51.1748 39.1H74.9295V41.1125H51.1748V39.1ZM51.1748 32.775H83.6264V34.7875H51.1748V32.775Z" fill="#FEFEFE"/>
<path d="M95.1621 38.6328H127.614V40.6453H95.1621V38.6328ZM95.1621 51.2469H118.917V53.2594H95.1621V51.2469ZM95.1621 44.9219H127.614V46.9344H95.1621V44.9219Z" fill="#FEFEFE"/>
<path d="M55.451 123.625C63.8069 123.625 70.5807 116.851 70.5807 108.495C70.5807 100.139 63.8069 93.3655 55.451 93.3655C47.0951 93.3655 40.3213 100.139 40.3213 108.495C40.3213 116.851 47.0951 123.625 55.451 123.625Z" fill="#FFB69E"/>
<path d="M137.101 130.058C145.457 130.058 152.231 123.284 152.231 114.928C152.231 106.572 145.457 99.7986 137.101 99.7986C128.745 99.7986 121.972 106.572 121.972 114.928C121.972 123.284 128.745 130.058 137.101 130.058Z" fill="#FFB69E"/>
<path d="M107.094 195.284H76.9062V234.42H107.094V195.284Z" fill="black"/>
<path d="M77.9844 196.614H105.081L106.016 233.234H78.9188L77.9844 196.614Z" fill="#DCE3DB"/>
<path d="M105.082 196.614H78.4521V232.336H105.082V196.614Z" fill="white"/>
<path d="M88.5136 194.314H95.8089C96.348 194.314 96.7793 194.745 96.7793 195.285V198.411H87.5792V195.285C87.5433 194.745 87.9746 194.314 88.5136 194.314Z" fill="#666666"/>
<path d="M87.364 198.159H96.9593C97.1749 198.159 97.3186 198.339 97.3186 198.519C97.3186 198.734 97.139 198.878 96.9593 198.878H87.364C87.1484 198.878 87.0046 198.698 87.0046 198.519C86.9687 198.339 87.1484 198.159 87.364 198.159Z" fill="#B0B0B0"/>
<path d="M91.2094 193.38L90.4188 198.195H90.0234L90.8141 193.416C90.5984 193.128 90.4906 192.733 90.4906 192.373C90.4906 192.158 90.5266 191.906 90.6344 191.691C90.7422 191.475 90.8859 191.295 91.0656 191.152C91.6766 190.648 92.7188 190.648 93.3297 191.152C93.5094 191.295 93.6531 191.511 93.7609 191.727C93.8688 191.942 93.9047 192.158 93.9047 192.409C93.9047 192.769 93.7969 193.128 93.5812 193.452L94.3719 198.231H93.9766L93.1859 193.416C93.1859 193.344 93.1859 193.308 93.2219 193.236C93.4016 192.984 93.5094 192.697 93.5094 192.373C93.5094 192.194 93.4734 192.014 93.4016 191.87C93.3297 191.727 93.2219 191.583 93.0781 191.475C92.6109 191.116 91.7844 191.116 91.3172 191.475C91.1734 191.583 91.0656 191.727 90.9937 191.87C90.9219 192.014 90.8859 192.194 90.8859 192.373C90.8859 192.661 90.9937 192.984 91.1734 193.236C91.1734 193.236 91.2094 193.308 91.2094 193.38Z" fill="#909090"/>
<path d="M88.9453 207.108H102.817V207.467H88.9453V207.108ZM88.9453 210.486H97.6063V210.845H88.9453V210.486ZM88.9453 208.797H102.817V209.156H88.9453V208.797Z" fill="#C2C2C4"/>
<path d="M88.9453 216.092H102.817V216.451H88.9453V216.092ZM88.9453 219.506H97.6063V219.865H88.9453V219.506ZM88.9453 217.781H102.817V218.14H88.9453V217.781Z" fill="#C2C2C4"/>
<path d="M88.9453 225.112H102.817V225.472H88.9453V225.112ZM88.9453 228.49H97.6063V228.85H88.9453V228.49ZM88.9453 226.801H102.817V227.161H88.9453V226.801Z" fill="#C2C2C4"/>
<path d="M82.8717 206.353C83.5904 206.353 84.2373 206.641 84.7045 207.108C85.1717 207.575 85.4592 208.222 85.4592 208.941C85.4592 209.66 85.1717 210.306 84.7045 210.774C84.2373 211.241 83.5904 211.528 82.8717 211.528C82.1529 211.528 81.5061 211.241 81.0389 210.774C80.5717 210.306 80.2842 209.66 80.2842 208.941C80.2842 208.222 80.5717 207.575 81.0389 207.108C81.5061 206.641 82.1529 206.353 82.8717 206.353ZM84.4529 207.395C84.0576 207 83.4826 206.749 82.8717 206.749C82.2607 206.749 81.6857 207 81.2904 207.395C80.8951 207.791 80.6436 208.366 80.6436 208.977C80.6436 209.588 80.8951 210.163 81.2904 210.558C81.6857 210.953 82.2607 211.205 82.8717 211.205C83.4826 211.205 84.0576 210.953 84.4529 210.558C84.8482 210.163 85.0998 209.588 85.0998 208.977C85.0998 208.366 84.8482 207.791 84.4529 207.395Z" fill="black"/>
<path d="M82.8717 215.374C83.5904 215.374 84.2373 215.661 84.7045 216.128C85.1717 216.596 85.4592 217.243 85.4592 217.961C85.4592 218.68 85.1717 219.327 84.7045 219.794C84.2373 220.261 83.5904 220.549 82.8717 220.549C82.1529 220.549 81.5061 220.261 81.0389 219.794C80.5717 219.327 80.2842 218.68 80.2842 217.961C80.2842 217.243 80.5717 216.596 81.0389 216.128C81.5061 215.661 82.1529 215.374 82.8717 215.374ZM84.4529 216.416C84.0576 216.021 83.4826 215.769 82.8717 215.769C82.2607 215.769 81.6857 216.021 81.2904 216.416C80.8951 216.811 80.6436 217.386 80.6436 217.997C80.6436 218.608 80.8951 219.183 81.2904 219.578C81.6857 219.974 82.2607 220.225 82.8717 220.225C83.4826 220.225 84.0576 219.974 84.4529 219.578C84.8482 219.183 85.0998 218.608 85.0998 217.997C85.0998 217.35 84.8482 216.811 84.4529 216.416Z" fill="black"/>
<path d="M82.8717 224.358C83.5904 224.358 84.2373 224.646 84.7045 225.113C85.1717 225.58 85.4592 226.227 85.4592 226.946C85.4592 227.664 85.1717 228.311 84.7045 228.778C84.2373 229.246 83.5904 229.533 82.8717 229.533C82.1529 229.533 81.5061 229.246 81.0389 228.778C80.5717 228.311 80.2842 227.664 80.2842 226.946C80.2842 226.227 80.5717 225.58 81.0389 225.113C81.5061 224.646 82.1529 224.358 82.8717 224.358ZM84.4529 225.4C84.0576 225.005 83.4826 224.753 82.8717 224.753C82.2607 224.753 81.6857 225.005 81.2904 225.4C80.8951 225.796 80.6436 226.371 80.6436 226.982C80.6436 227.593 80.8951 228.168 81.2904 228.563C81.6857 228.958 82.2607 229.21 82.8717 229.21C83.4826 229.21 84.0576 228.958 84.4529 228.563C84.8482 228.168 85.0998 227.593 85.0998 226.982C85.0998 226.371 84.8482 225.796 84.4529 225.4Z" fill="black"/>
<path d="M81.4698 209.264C81.362 209.192 81.362 209.048 81.4339 208.941C81.5058 208.833 81.6495 208.833 81.7573 208.905L82.512 209.48L83.6979 207.862C83.7698 207.755 83.9136 207.755 84.0214 207.826C84.1292 207.898 84.1292 208.042 84.0573 208.15L82.7276 209.947C82.6558 210.055 82.512 210.055 82.4042 209.983L81.4698 209.264Z" fill="#FF0800"/>
<path d="M81.6134 218.32C81.5056 218.248 81.5056 218.104 81.5774 217.997C81.6493 217.889 81.7931 217.889 81.9009 217.961L82.6556 218.536L83.8415 216.919C83.9134 216.811 84.0571 216.811 84.1649 216.883C84.2728 216.954 84.2728 217.098 84.2009 217.206L82.8712 219.003C82.7993 219.111 82.6556 219.111 82.5477 219.039L81.6134 218.32Z" fill="#FF0800"/>
<path d="M81.6134 227.34C81.5056 227.269 81.5056 227.125 81.5774 227.017C81.6493 226.909 81.7931 226.909 81.9009 226.981L82.6556 227.556L83.8415 225.939C83.9134 225.831 84.0571 225.831 84.1649 225.903C84.2728 225.975 84.2728 226.119 84.2009 226.226L82.8712 228.023C82.7993 228.131 82.6556 228.131 82.5477 228.059L81.6134 227.34Z" fill="#FF0800"/>
<path d="M84.5252 203.263C84.4174 203.263 84.3096 203.155 84.3096 203.047C84.3096 202.939 84.4174 202.831 84.5252 202.831H88.2627L89.0893 200.819C89.1252 200.711 89.2689 200.639 89.3768 200.711C89.4486 200.747 89.4846 200.783 89.4846 200.819L90.7424 203.945L91.7846 202.149C91.8564 202.041 92.0002 202.005 92.108 202.077C92.1439 202.113 92.1799 202.113 92.1799 202.149L92.7908 203.083L93.6893 202.149C93.7611 202.041 93.9049 202.041 94.0127 202.149L94.0486 202.184L94.408 202.831H99.2596C99.3674 202.831 99.4752 202.939 99.4752 203.047C99.4752 203.155 99.3674 203.263 99.2596 203.263H94.3002C94.2283 203.263 94.1564 203.227 94.1205 203.155L93.833 202.652L92.9705 203.586L92.9346 203.622C92.8268 203.694 92.683 203.658 92.6111 203.55L92.0361 202.652L90.9221 204.52C90.8861 204.556 90.8502 204.592 90.8143 204.628C90.7064 204.664 90.5627 204.628 90.5268 204.485L89.3049 201.43L88.6221 203.083C88.5861 203.191 88.5143 203.227 88.4064 203.227L84.5252 203.263Z" fill="#FF0800"/>
<path d="M51.8223 205.491C51.5348 205.491 51.2473 205.383 51.0316 205.167L48.0129 202.148C47.7973 201.933 47.6895 201.681 47.6895 201.394C47.6895 201.106 47.7973 200.819 48.0129 200.603L51.0316 197.584C51.427 197.189 52.1457 197.189 52.541 197.584L55.5598 200.603C55.7754 200.819 55.8832 201.07 55.8832 201.358C55.8832 201.645 55.7754 201.897 55.5598 202.112L52.541 205.131C52.3973 205.383 52.1098 205.491 51.8223 205.491Z" fill="#909090"/>
<path d="M42.7495 205.943L30.1963 218.496L34.7195 223.02L47.2728 210.466L42.7495 205.943Z" fill="#909090"/>
<path d="M25.6955 231.653C25.408 231.653 25.1564 231.545 24.9408 231.33L21.9221 228.311C21.7064 228.095 21.5986 227.844 21.5986 227.556C21.5986 227.269 21.7064 227.017 21.9221 226.802L24.9408 223.783C25.3721 223.352 26.0189 223.352 26.4502 223.783L29.4689 226.802C29.9002 227.233 29.9002 227.88 29.4689 228.311L26.4502 231.33C26.2346 231.545 25.9471 231.653 25.6955 231.653Z" fill="#909090"/>
<path d="M54.0853 212.75L40.501 199.166L42.765 196.902C43.5916 196.075 44.9572 196.075 45.7838 196.902L56.3494 207.467C57.176 208.294 57.176 209.659 56.3494 210.486L54.0853 212.75Z" fill="#262626"/>
<path d="M51.0666 217.278L35.9729 202.184C35.5416 201.753 35.5416 201.106 35.9729 200.675L37.4822 199.166C38.3088 198.339 39.6744 198.339 40.501 199.166L54.0854 212.75C54.9119 213.577 54.9119 214.942 54.0854 215.769L52.576 217.278C52.1447 217.673 51.4619 217.673 51.0666 217.278Z" fill="black"/>
<path d="M23.4318 216.236L37.0162 229.82L34.7521 232.084C33.9256 232.911 32.56 232.911 31.7334 232.084L21.1678 221.519C20.3412 220.692 20.3412 219.327 21.1678 218.5L23.4318 216.236Z" fill="#262626"/>
<path d="M26.4502 211.708L41.5439 226.801C41.9752 227.233 41.9752 227.88 41.5439 228.311L40.0346 229.82C39.208 230.647 37.8424 230.647 37.0158 229.82L23.4314 216.236C22.6049 215.409 22.6049 214.044 23.4314 213.217L24.9408 211.708C25.3361 211.276 26.0189 211.276 26.4502 211.708Z" fill="black"/>
<path d="M37.0158 229.82C37.8424 230.647 39.208 230.647 40.0346 229.82L41.5439 228.311C41.9752 227.88 41.9752 227.233 41.5439 226.801L33.9971 219.255L30.2236 223.028L37.0158 229.82Z" fill="black"/>
<path d="M51.0674 217.278C51.4986 217.709 52.1455 217.709 52.5768 217.278L54.0861 215.769C54.9127 214.942 54.9127 213.577 54.0861 212.75L47.2939 205.958L43.5205 209.731L51.0674 217.278Z" fill="black"/>
<path d="M141.702 197.117C142.457 196.722 143.283 196.506 144.182 196.506C145.224 196.506 146.23 196.794 147.093 197.333C147.596 197.225 148.099 197.153 148.638 197.153C150.147 197.153 151.585 197.62 152.807 198.483C152.879 198.483 152.951 198.483 153.058 198.483C155.287 198.483 157.155 199.776 158.054 201.681C160.174 202.22 161.791 203.981 162.151 206.137C163.876 207.323 164.954 209.336 164.954 211.528C164.954 212.462 164.774 213.397 164.379 214.223C164.451 214.69 164.487 215.158 164.487 215.589C164.487 219.075 162.187 222.058 158.952 222.956C158.449 224.969 156.832 226.658 154.568 226.658C154.388 226.658 154.208 226.658 154.065 226.622C154.101 226.801 154.101 227.053 154.101 227.305C154.101 229.533 152.304 231.401 150.04 231.401C148.494 231.401 147.093 230.539 146.41 229.173L143.14 223.783L143.104 223.747C143.032 223.639 142.96 223.459 142.852 223.315C141.738 223.962 140.48 224.214 139.187 224.214C136.132 224.214 133.472 222.417 132.179 219.83C132.143 219.83 132.143 219.83 132.107 219.83C129.16 219.83 126.68 217.853 125.89 215.122C124.416 213.9 123.554 212.067 123.554 210.09C123.554 207.395 125.207 205.023 127.579 204.053C127.83 201.25 130.166 198.986 133.077 198.986C133.149 198.986 133.185 198.986 133.257 198.986C134.694 197.44 136.707 196.542 138.863 196.542C139.833 196.542 140.804 196.722 141.702 197.117Z" fill="black"/>
<path d="M151.764 227.341C151.764 228.311 151.009 229.102 150.039 229.102C149.356 229.102 148.745 228.706 148.494 228.095L145.187 222.633C144.576 221.555 143.714 220.01 141.773 221.267C141.054 221.735 140.156 221.914 139.222 221.914C136.49 221.914 134.19 219.866 133.795 217.17C133.292 217.386 132.753 217.53 132.142 217.53C130.022 217.53 128.261 215.877 128.045 213.792C126.787 213.074 125.925 211.708 125.925 210.127C125.925 207.827 127.758 205.922 130.022 205.922H130.201C130.022 205.527 129.914 205.06 129.914 204.556C129.914 202.76 131.315 201.322 133.076 201.322C133.508 201.322 133.903 201.394 134.262 201.538C135.197 199.92 136.886 198.842 138.862 198.842C140.012 198.842 141.054 199.202 141.917 199.813C142.492 199.202 143.283 198.806 144.217 198.806C145.187 198.806 146.05 199.238 146.625 199.956C147.236 199.669 147.955 199.489 148.673 199.489C150.039 199.489 151.261 200.028 152.159 200.963C152.447 200.855 152.77 200.819 153.094 200.819C154.783 200.819 156.184 202.185 156.256 203.91C156.436 203.874 156.615 203.874 156.795 203.874C158.52 203.874 159.922 205.311 159.922 207.072C159.922 207.252 159.922 207.431 159.886 207.575C161.503 208.15 162.653 209.695 162.653 211.528C162.653 212.427 162.401 213.217 161.934 213.9C162.114 214.439 162.222 215.014 162.222 215.589C162.222 218.5 159.886 220.872 157.011 220.872H156.831C156.831 220.98 156.867 221.124 156.867 221.231C157.047 222.885 155.969 224.322 154.675 224.322C153.489 224.322 153.273 223.495 152.375 223.963C151.8 224.25 151.404 224.825 151.404 225.508C151.297 226.263 151.764 226.55 151.764 227.341Z" fill="black"/>
<path d="M152.051 227.341C152.051 227.916 151.835 228.419 151.476 228.778C151.117 229.138 150.613 229.389 150.038 229.389C149.643 229.389 149.284 229.281 148.96 229.066C148.637 228.85 148.385 228.563 148.206 228.203L144.899 222.741C144.612 222.238 144.253 221.591 143.785 221.267C143.354 220.98 142.743 220.908 141.917 221.447C141.521 221.698 141.09 221.878 140.623 221.986C140.156 222.094 139.688 222.13 139.221 222.13C137.784 222.13 136.454 221.591 135.448 220.728C134.513 219.902 133.831 218.788 133.543 217.53C133.363 217.602 133.184 217.638 133.04 217.673C132.753 217.745 132.429 217.781 132.142 217.781C131.028 217.781 129.985 217.35 129.195 216.631C128.44 215.948 127.937 214.978 127.793 213.936C127.182 213.541 126.643 213.002 126.284 212.355C125.888 211.672 125.673 210.917 125.673 210.091C125.673 208.869 126.176 207.719 126.967 206.928C127.721 206.173 128.728 205.67 129.842 205.634C129.806 205.527 129.77 205.419 129.77 205.311C129.734 205.059 129.698 204.808 129.698 204.556C129.698 203.586 130.093 202.723 130.704 202.077C131.315 201.43 132.178 201.034 133.148 201.034C133.363 201.034 133.579 201.07 133.795 201.106C133.938 201.142 134.046 201.178 134.19 201.214C134.693 200.459 135.34 199.813 136.131 199.345C136.957 198.878 137.892 198.591 138.934 198.591C139.509 198.591 140.084 198.698 140.623 198.842C140.946 198.914 141.629 199.273 141.953 199.453C142.24 199.202 142.563 198.986 142.923 198.806C143.354 198.627 143.785 198.519 144.288 198.519C144.792 198.519 145.295 198.627 145.726 198.842C146.121 199.022 146.445 199.273 146.768 199.597C147.056 199.489 147.343 199.381 147.631 199.309C147.99 199.238 148.385 199.202 148.745 199.202C149.463 199.202 150.11 199.345 150.721 199.597C151.296 199.848 151.835 200.208 152.303 200.603C152.41 200.567 152.518 200.567 152.626 200.531C152.806 200.495 152.949 200.495 153.129 200.495C154.063 200.495 154.89 200.855 155.501 201.466C156.04 202.005 156.435 202.723 156.543 203.55C156.615 203.55 156.723 203.55 156.795 203.55C157.729 203.55 158.592 203.945 159.203 204.556C159.813 205.167 160.209 206.066 160.209 207C160.209 207.108 160.209 207.18 160.209 207.288V207.323C160.999 207.647 161.646 208.186 162.149 208.869C162.653 209.588 162.976 210.486 162.976 211.456C162.976 211.923 162.904 212.355 162.76 212.786C162.653 213.181 162.473 213.541 162.257 213.864C162.329 214.116 162.401 214.367 162.437 214.619C162.473 214.906 162.509 215.23 162.509 215.517C162.509 217.063 161.898 218.464 160.892 219.47C159.921 220.441 158.592 221.088 157.118 221.123V221.159C157.118 221.303 157.154 221.411 157.154 221.555C157.154 222.309 156.903 223.028 156.507 223.531C156.112 224.07 155.537 224.43 154.89 224.502H154.638C154.063 224.502 153.704 224.322 153.381 224.178C153.093 224.034 152.842 223.927 152.446 224.106C152.195 224.214 152.015 224.43 151.871 224.645C151.728 224.861 151.656 225.113 151.656 225.4C151.656 225.688 151.763 225.903 151.835 226.119C151.907 226.55 152.051 226.873 152.051 227.341ZM151.045 228.383C151.296 228.131 151.476 227.736 151.476 227.341C151.476 226.981 151.368 226.73 151.26 226.514C151.153 226.227 151.009 225.975 151.009 225.544C151.009 225.148 151.117 224.789 151.296 224.466C151.476 224.142 151.763 223.891 152.123 223.711C152.77 223.388 153.093 223.567 153.56 223.783C153.812 223.891 154.135 224.034 154.567 224.034C155.106 224.034 155.609 223.711 155.932 223.28C156.256 222.848 156.471 222.273 156.471 221.627C156.471 221.519 156.471 221.411 156.435 221.303V221.267C156.435 221.231 156.435 221.159 156.435 221.123V220.908C156.435 220.764 156.579 220.62 156.723 220.62H156.903C158.268 220.584 159.418 220.153 160.388 219.147C161.287 218.248 161.826 216.991 161.826 215.589C161.826 215.302 161.79 215.014 161.754 214.763C161.718 214.475 161.646 214.223 161.574 213.972C161.574 213.972 161.574 213.756 161.61 213.72C161.826 213.397 162.006 213.038 162.113 212.678C162.221 212.319 162.293 211.923 162.293 211.528C162.293 210.702 162.042 209.911 161.574 209.264C161.107 208.617 160.46 208.114 159.706 207.827C159.562 207.791 159.49 207.647 159.526 207.503C159.526 207.431 159.562 207.359 159.562 207.288C159.562 207.216 159.562 207.144 159.562 207.036C159.562 206.245 159.238 205.527 158.735 204.988C158.232 204.448 157.513 204.125 156.723 204.125C156.651 204.125 156.579 204.125 156.471 204.125C156.399 204.125 156.328 204.125 156.22 204.161H156.184C156.04 204.161 155.896 204.053 155.896 203.873C155.86 203.083 155.537 202.4 154.998 201.897C154.495 201.394 153.776 201.07 153.021 201.07C152.878 201.07 152.734 201.07 152.59 201.106C152.446 201.142 152.303 201.178 152.159 201.214C152.051 201.25 151.943 201.214 151.871 201.142C151.44 200.711 150.937 200.352 150.362 200.136C149.823 199.92 149.212 199.777 148.601 199.777C148.242 199.777 147.918 199.813 147.595 199.884C147.271 199.956 146.948 200.064 146.66 200.208C146.553 200.28 146.409 200.244 146.301 200.136C146.049 199.813 145.69 199.561 145.331 199.381C144.971 199.202 144.576 199.13 144.145 199.13C143.749 199.13 143.354 199.202 143.031 199.381C142.671 199.525 142.348 199.777 142.096 200.064C141.988 200.172 141.845 200.172 141.701 200.1C141.27 199.813 140.838 199.561 140.335 199.417C139.868 199.273 139.365 199.202 138.826 199.202C137.928 199.202 137.065 199.453 136.346 199.884C135.592 200.316 134.945 200.963 134.513 201.753C134.442 201.861 134.298 201.933 134.154 201.861C133.974 201.789 133.831 201.753 133.615 201.717C133.435 201.681 133.256 201.681 133.076 201.681C132.285 201.681 131.567 202.005 131.028 202.544C130.488 203.083 130.201 203.802 130.201 204.628C130.201 204.844 130.237 205.059 130.273 205.275C130.309 205.491 130.381 205.67 130.453 205.886L130.488 205.994C130.488 206.138 130.345 206.281 130.201 206.281H130.057C129.015 206.281 128.045 206.713 127.362 207.431C126.679 208.15 126.248 209.12 126.248 210.198C126.248 210.917 126.428 211.6 126.787 212.175C127.146 212.786 127.613 213.253 128.224 213.613C128.296 213.648 128.368 213.756 128.368 213.828C128.476 214.798 128.943 215.697 129.626 216.308C130.309 216.919 131.207 217.314 132.178 217.314C132.429 217.314 132.717 217.278 132.968 217.242C133.22 217.206 133.471 217.098 133.687 217.027C133.723 217.027 133.759 216.991 133.795 216.991C133.938 216.955 134.118 217.063 134.118 217.242C134.298 218.536 134.945 219.65 135.879 220.441C136.778 221.231 137.963 221.698 139.257 221.698C139.688 221.698 140.12 221.663 140.551 221.555C140.946 221.447 141.342 221.303 141.665 221.088C142.743 220.369 143.57 220.477 144.181 220.908C144.756 221.303 145.151 222.022 145.474 222.561L148.781 227.988L148.817 228.023C148.924 228.275 149.104 228.491 149.356 228.634C149.571 228.778 149.823 228.85 150.11 228.85C150.434 228.814 150.793 228.634 151.045 228.383Z" fill="#FEFEFE"/>
<path d="M161.467 213.792C161.575 213.684 161.754 213.684 161.862 213.828C161.97 213.936 161.97 214.116 161.826 214.223C161.503 214.511 161.107 214.762 160.676 214.906C160.281 215.05 159.814 215.158 159.382 215.158C158.376 215.158 157.442 214.727 156.795 214.044C156.292 213.541 155.932 212.858 155.789 212.103C155.753 212.139 155.717 212.175 155.681 212.211C155.07 212.822 154.243 213.217 153.309 213.217C152.95 213.217 152.626 213.181 152.303 213.073C151.979 212.966 151.692 212.822 151.404 212.642C151.261 212.534 151.225 212.355 151.332 212.247C151.44 212.103 151.62 212.067 151.728 212.175C151.943 212.319 152.195 212.462 152.482 212.534C152.734 212.606 153.022 212.678 153.309 212.678C154.064 212.678 154.782 212.355 155.286 211.852C155.789 211.348 156.112 210.63 156.112 209.839C156.112 209.695 156.256 209.551 156.4 209.551C156.543 209.551 156.687 209.695 156.687 209.839C156.687 210.414 156.543 210.953 156.292 211.42V211.456C156.292 212.319 156.651 213.109 157.19 213.684C157.765 214.259 158.52 214.619 159.382 214.619C159.778 214.619 160.137 214.547 160.461 214.403C160.892 214.223 161.215 214.044 161.467 213.792ZM128.62 214.655C128.692 214.798 128.656 214.978 128.548 215.05C128.404 215.122 128.225 215.086 128.153 214.978C127.722 214.331 127.614 213.612 127.722 212.894C127.865 212.211 128.261 211.528 128.872 211.097C129.015 210.989 129.195 211.025 129.267 211.169C129.375 211.312 129.339 211.492 129.195 211.564C128.692 211.923 128.404 212.427 128.297 212.966C128.153 213.577 128.261 214.152 128.62 214.655ZM156.004 223.316C156.112 223.208 156.292 223.208 156.4 223.352C156.507 223.459 156.507 223.639 156.364 223.747C156.076 223.998 155.789 224.178 155.429 224.322C155.106 224.466 154.711 224.537 154.351 224.537C153.525 224.537 152.734 224.178 152.195 223.639C151.656 223.064 151.297 222.309 151.297 221.447C151.297 221.303 151.44 221.159 151.584 221.159C151.728 221.159 151.872 221.303 151.872 221.447C151.872 222.13 152.159 222.777 152.59 223.244C153.022 223.711 153.668 223.962 154.315 223.962C154.639 223.962 154.926 223.891 155.178 223.819C155.537 223.675 155.789 223.495 156.004 223.316ZM153.884 216.523C153.992 216.416 154.172 216.38 154.279 216.487C154.315 216.523 154.351 216.595 154.387 216.667V216.559C154.423 216.416 154.567 216.272 154.711 216.308C154.854 216.344 154.998 216.487 154.962 216.631C154.854 217.494 155.106 218.32 155.573 218.967C156.04 219.614 156.795 220.045 157.622 220.189C158.017 220.225 158.376 220.225 158.736 220.117C159.095 220.045 159.454 219.866 159.742 219.65C159.886 219.542 160.065 219.578 160.137 219.722C160.245 219.866 160.209 220.045 160.065 220.117C159.706 220.369 159.275 220.548 158.843 220.656C158.412 220.764 157.981 220.8 157.514 220.728C156.507 220.584 155.645 220.045 155.07 219.291C154.531 218.608 154.279 217.709 154.315 216.811C154.315 216.847 154.279 216.883 154.279 216.883C153.956 217.242 153.597 217.566 153.165 217.817C152.734 218.069 152.303 218.212 151.8 218.284C151.117 218.392 150.434 218.32 149.859 218.069C149.248 217.817 148.673 217.458 148.242 216.919C148.134 216.811 148.134 216.631 148.278 216.523C148.386 216.416 148.565 216.416 148.673 216.559C149.032 216.991 149.536 217.314 150.075 217.53C150.578 217.709 151.153 217.781 151.728 217.709C152.159 217.637 152.554 217.494 152.878 217.314C153.309 217.134 153.632 216.847 153.884 216.523ZM144.72 209.767C144.648 209.623 144.684 209.444 144.828 209.372C144.972 209.3 145.151 209.336 145.223 209.48L145.259 209.551C145.295 209.48 145.331 209.444 145.403 209.444C145.978 209.264 146.409 208.869 146.661 208.366C146.912 207.862 146.984 207.251 146.804 206.676C146.732 206.425 146.589 206.173 146.445 205.958C146.265 205.742 146.086 205.562 145.87 205.419C145.726 205.347 145.69 205.167 145.762 205.023C145.834 204.88 146.014 204.844 146.157 204.916C146.445 205.095 146.697 205.311 146.912 205.562C147.02 205.67 147.092 205.814 147.164 205.958C147.272 205.742 147.379 205.527 147.523 205.347C147.954 204.808 148.601 204.412 149.356 204.305C149.679 204.269 150.039 204.305 150.326 204.377C150.65 204.448 150.937 204.592 151.225 204.808C151.368 204.916 151.368 205.095 151.297 205.203C151.189 205.347 151.009 205.347 150.901 205.275C150.686 205.131 150.47 205.023 150.182 204.951C149.931 204.88 149.679 204.88 149.392 204.88C148.817 204.951 148.278 205.239 147.954 205.67C147.595 206.101 147.415 206.676 147.487 207.287C147.487 207.323 147.487 207.395 147.487 207.431C147.451 207.827 147.343 208.186 147.2 208.545C146.876 209.192 146.337 209.695 145.582 209.911C145.547 209.911 145.511 209.911 145.475 209.911C145.582 210.126 145.654 210.378 145.69 210.63C145.762 211.061 145.798 211.492 145.726 211.959V211.995C145.582 212.966 145.043 213.792 144.289 214.367C143.534 214.906 142.6 215.158 141.629 215.014H141.593C141.45 214.978 141.342 214.834 141.342 214.691C141.378 214.547 141.522 214.439 141.665 214.439H141.701C142.528 214.583 143.282 214.331 143.929 213.9C144.54 213.433 145.007 212.75 145.115 211.923V211.887C145.187 211.492 145.151 211.133 145.079 210.773C145.079 210.414 144.936 210.091 144.72 209.767ZM139.617 208.509C139.617 208.366 139.761 208.222 139.904 208.222C140.048 208.222 140.192 208.366 140.192 208.509C140.192 208.941 140.12 209.408 139.94 209.839C139.797 210.27 139.545 210.63 139.222 210.989L139.186 211.025C138.503 211.744 137.604 212.139 136.706 212.175C136.275 212.211 135.843 212.139 135.412 211.995C135.556 212.283 135.664 212.57 135.736 212.858C135.843 213.325 135.879 213.792 135.807 214.259V214.295V214.331C135.664 215.373 135.125 216.308 134.37 216.919C133.579 217.53 132.573 217.853 131.531 217.709C131.387 217.673 131.243 217.53 131.279 217.386C131.315 217.242 131.459 217.098 131.603 217.134C132.501 217.242 133.364 216.991 134.011 216.452C134.657 215.948 135.125 215.158 135.232 214.259V214.223V214.187C135.268 213.756 135.268 213.361 135.161 212.966C135.053 212.57 134.909 212.175 134.693 211.852C134.657 211.78 134.622 211.708 134.657 211.6C134.478 211.492 134.262 211.348 134.118 211.205L134.082 211.169C133.975 211.061 133.939 210.881 134.047 210.773C134.154 210.666 134.334 210.63 134.442 210.737L134.478 210.773C135.089 211.312 135.879 211.6 136.67 211.564C137.425 211.528 138.179 211.205 138.754 210.594L138.79 210.558C139.042 210.27 139.257 209.947 139.401 209.587C139.545 209.264 139.617 208.905 139.617 208.509Z" fill="#FEFEFE"/>
</svg>
