<svg width="223" height="211" viewBox="0 0 223 211" fill="none" xmlns="http://www.w3.org/2000/svg">
<g clip-path="url(#clip0)">
<path d="M203.122 115.231L176.319 113.15L149.516 115.231C147.112 115.411 145.318 117.51 145.498 119.914C145.677 122.318 147.776 124.112 150.18 123.933L176.319 121.869C204.163 124.058 202.459 123.951 202.8 123.951C205.06 123.951 206.962 122.21 207.141 119.932C207.32 117.51 205.526 115.429 203.122 115.231Z" fill="#80391B"/>
<path d="M140.17 102.045L142.968 102.153C143.166 102.045 143.381 101.92 143.56 101.776L158.523 90.7608C159.832 89.7921 160.604 88.2671 160.604 86.6345V68.8017C160.622 67.797 161.519 66.9359 162.577 66.9359H162.739V102.924L189.847 102.942V66.9359H190.008C191.067 66.9359 191.982 67.7791 191.982 68.8017V86.6345C191.982 88.2671 192.753 89.7921 194.063 90.7608L209.025 101.776C209.222 101.92 209.42 102.045 209.635 102.153L212.434 102.045C213.187 101.92 213.923 101.956 214.623 102.081C215.215 101.74 215.753 101.274 216.183 100.682C217.852 98.4035 217.367 95.1921 215.089 93.5237L202.208 84.0332V68.7658V68.7479C202.172 62.1099 196.7 56.6919 189.99 56.6919C186.887 56.6919 165.663 56.6919 162.559 56.6919C155.85 56.6919 150.378 62.092 150.342 68.7479V68.7658V84.0332L137.461 93.5237C134.483 95.7304 134.752 100.251 137.945 102.081C138.699 101.956 139.434 101.92 140.17 102.045Z" fill="#80391B"/>
<path d="M215.089 102.189C215.125 102.189 215.143 102.207 215.179 102.207C215.143 102.207 215.125 102.189 215.089 102.189Z" fill="#80391B"/>
<path d="M176.32 53.3011C182.175 53.3011 186.922 48.5541 186.922 42.6983C186.922 36.8425 182.175 32.0955 176.32 32.0955C170.464 32.0955 165.717 36.8425 165.717 42.6983C165.717 48.5541 170.464 53.3011 176.32 53.3011Z" fill="#80391B"/>
<path d="M190.043 56.6919H182.113C182.221 59.9212 179.225 62.6481 176.103 62.6481C172.748 62.6481 170.255 59.9212 170.093 56.6919H162.612C155.902 56.6919 150.43 62.092 150.395 68.7479V79.7275H160.639V68.7838C160.657 67.7791 161.554 66.918 162.612 66.918H162.773V102.889L189.882 102.942V66.9359H190.043C191.102 66.9359 192.017 67.7791 192.017 68.8017V79.7454H202.261V68.7658C202.225 62.092 196.735 56.6919 190.043 56.6919Z" fill="black"/>
<path d="M219.591 106.853C219.017 104.378 217.026 102.548 214.675 102.081C213.976 101.938 213.24 101.92 212.487 102.045L209.688 102.153L189.9 102.942L162.792 102.924L142.985 102.153L140.187 102.045C139.451 101.938 138.715 101.956 137.998 102.099C135.558 102.584 133.584 104.467 133.046 106.979C132.329 110.388 134.499 113.725 137.908 114.442L172.067 121.672C174.74 122.246 177.503 122.264 180.194 121.726L214.747 114.442C218.12 113.707 220.38 110.352 219.591 106.853Z" fill="#909090"/>
<path d="M39.0025 124.076C35.6835 123.305 33.6383 119.968 34.4097 116.667L46.3581 65.8416C47.1295 62.5226 50.4664 60.4774 53.7675 61.2488C57.0865 62.0203 59.1317 65.3572 58.3602 68.6583L46.4298 119.484C45.6405 122.803 42.3215 124.848 39.0025 124.076Z" fill="#FFB69E"/>
<path d="M72.1569 119.484L60.2086 68.6583C59.4371 65.3393 61.4823 62.0203 64.8013 61.2488C68.1203 60.4774 71.4393 62.5226 72.2107 65.8416L84.1591 116.667C84.9305 119.986 82.8853 123.305 79.5663 124.076C76.2653 124.848 72.9463 122.821 72.1569 119.484Z" fill="#FFB69E"/>
<path d="M53.6235 88.8949L58.3777 68.658C59.1492 65.339 57.104 62.02 53.785 61.2486C50.466 60.4772 47.147 62.5224 46.3755 65.8414L41.5137 86.5447L53.6235 88.8949Z" fill="black"/>
<path d="M64.9618 88.895L76.982 86.1501L72.2098 65.8235C71.4383 62.5046 68.1014 60.4593 64.8004 61.2308C61.4814 62.0022 59.4361 65.3392 60.2076 68.6402L64.9618 88.895Z" fill="black"/>
<path d="M113.438 22.8381C112.505 20.3803 109.778 19.1603 107.32 20.0932L91.6399 26.0495L72.8922 24.5784H45.6944L26.9466 26.0495L11.2667 20.0932C8.80881 19.1603 6.08186 20.3982 5.14896 22.8381C4.21605 25.296 5.45394 28.0229 7.89385 28.9558L24.5605 35.2888C25.2064 35.54 25.9061 35.6476 26.6237 35.5759L45.6765 34.0689V68.6401H72.9101V34.0689L91.9629 35.5759C92.6446 35.6297 93.3443 35.54 94.026 35.2888L110.693 28.9558C113.133 28.0229 114.371 25.278 113.438 22.8381Z" fill="#FFB69E"/>
<path d="M72.9104 24.5605H64.5501C64.6577 27.5207 61.9129 30.0145 59.0424 30.0145C55.9746 30.0145 53.6961 27.5207 53.5347 24.5605H45.6767L33.1543 25.5473V35.0557L45.6767 34.069V68.6403H72.9104V34.069L85.5763 35.0737V25.5652L72.9104 24.5605Z" fill="#FF0800"/>
<path d="M59.2934 21.3133C65.1789 21.3133 69.95 16.5421 69.95 10.6566C69.95 4.77114 65.1789 0 59.2934 0C53.4079 0 48.6367 4.77114 48.6367 10.6566C48.6367 16.5421 53.4079 21.3133 59.2934 21.3133Z" fill="#FFB69E"/>
<path d="M14.1753 16.3068L3.63086 29.9478L8.30085 33.5577L18.8453 19.9168L14.1753 16.3068Z" fill="#909090"/>
<path d="M4.87981 38.0335C7.57485 38.0335 9.75961 35.8488 9.75961 33.1537C9.75961 30.4587 7.57485 28.2739 4.87981 28.2739C2.18476 28.2739 0 30.4587 0 33.1537C0 35.8488 2.18476 38.0335 4.87981 38.0335Z" fill="#606060"/>
<path d="M17.9579 21.1158C20.653 21.1158 22.8377 18.9311 22.8377 16.236C22.8377 13.541 20.653 11.3562 17.9579 11.3562C15.2629 11.3562 13.0781 13.541 13.0781 16.236C13.0781 18.9311 15.2629 21.1158 17.9579 21.1158Z" fill="#606060"/>
<path d="M104.429 16.1904L99.7588 19.8003L110.303 33.4412L114.973 29.8313L104.429 16.1904Z" fill="#909090"/>
<path d="M113.707 37.9261C116.402 37.9261 118.587 35.7414 118.587 33.0463C118.587 30.3513 116.402 28.1665 113.707 28.1665C111.012 28.1665 108.827 30.3513 108.827 33.0463C108.827 35.7414 111.012 37.9261 113.707 37.9261Z" fill="#606060"/>
<path d="M100.646 21.0084C103.341 21.0084 105.526 18.8236 105.526 16.1286C105.526 13.4335 103.341 11.2488 100.646 11.2488C97.9514 11.2488 95.7666 13.4335 95.7666 16.1286C95.7666 18.8236 97.9514 21.0084 100.646 21.0084Z" fill="#606060"/>
<path d="M14.1191 186.007V126.552C14.1191 125.565 14.9623 124.758 15.9849 124.758H104.091C105.113 124.758 105.956 125.565 105.956 126.552V185.989H14.1191V186.007Z" fill="black"/>
<path d="M105.974 186.007V193.667C105.974 194.726 105.131 195.587 104.109 195.587H15.9849C14.9623 195.587 14.1191 194.726 14.1191 193.667V186.007H105.974Z" fill="#E2E2E2"/>
<path d="M46.6455 208.971H73.4306L71.5289 195.569H48.5651L46.6455 208.971Z" fill="#C9C9C9"/>
<path d="M80.1398 208.971H39.9531V210.89H80.1398V208.971Z" fill="#E2E2E2"/>
<path d="M102.745 127.969H17.3125V182.795H102.745V127.969Z" fill="white"/>
<path d="M84.912 174.525H35.1631V176.444H84.912V174.525Z" fill="#C9C9C9"/>
<path d="M83.0103 168.784H37.0827C36.0242 168.784 35.1631 167.923 35.1631 166.864V136.24C35.1631 135.181 36.0242 134.32 37.0827 134.32H83.0103C84.0688 134.32 84.9299 135.181 84.9299 136.24V166.864C84.912 167.923 84.0509 168.784 83.0103 168.784Z" fill="#FF0800"/>
<path d="M54.3057 141.03L70.9365 151.561L54.3057 162.074V141.03Z" fill="white"/>
<path d="M128.705 207.41L128.688 191.514C128.688 189.326 130.464 187.55 132.67 187.532L212.093 187.478C214.282 187.478 216.058 189.254 216.076 191.443L216.094 207.338C216.094 209.527 214.317 211.303 212.129 211.321L132.706 211.374C130.482 211.374 128.705 209.598 128.705 207.41Z" fill="black"/>
<path d="M188.286 211.338L188.269 187.514L204.164 187.496L204.182 211.321L188.286 211.338Z" fill="#909090"/>
<path d="M112.792 183.585L112.774 159.76C112.774 157.571 114.551 155.795 116.757 155.777L212.075 155.705C214.264 155.705 216.04 157.481 216.058 159.67L216.076 183.495C216.076 185.684 214.3 187.46 212.111 187.478L116.793 187.549C114.586 187.567 112.792 185.791 112.792 183.585Z" fill="#E2E2E2"/>
<path d="M200.18 175.583V167.635L144.565 167.671V175.619L200.18 175.583ZM128.688 175.637H136.635V167.689H128.688V175.637Z" fill="black"/>
<path d="M136.599 151.794L136.581 127.969C136.581 125.78 138.357 124.004 140.546 123.986L212.039 123.933C214.227 123.933 216.004 125.709 216.021 127.897L216.039 151.722C216.039 153.911 214.263 155.687 212.075 155.705L140.582 155.759C138.393 155.777 136.617 154.001 136.599 151.794Z" fill="#303030"/>
<path d="M176.319 155.741L176.301 123.969L160.406 123.986L160.424 155.759L176.319 155.741ZM152.494 155.759H156.477L156.459 123.986H152.477L152.494 155.759Z" fill="black"/>
</g>
<defs>
<clipPath id="clip0">
<rect width="223" height="210.872" fill="white"/>
</clipPath>
</defs>
</svg>
