<svg width="238" height="200" viewBox="0 0 238 200" fill="none" xmlns="http://www.w3.org/2000/svg">
<g clip-path="url(#clip0)">
<path d="M150.51 47.9263H87.4907C85.4018 47.9274 83.3988 48.7565 81.9218 50.2314C80.4447 51.7063 79.6144 53.7063 79.6133 55.7922V192.134C79.6144 194.22 80.4447 196.22 81.9218 197.695C83.3988 199.17 85.4018 199.999 87.4907 200H150.51C152.598 199.999 154.601 199.17 156.078 197.695C157.556 196.22 158.386 194.22 158.387 192.134V55.7922C158.386 53.7063 157.556 51.7063 156.078 50.2314C154.601 48.7565 152.598 47.9274 150.51 47.9263ZM113.749 58.4141C113.751 57.7196 114.029 57.0543 114.521 56.5632C115.013 56.0721 115.679 55.795 116.374 55.7922H132.129C132.825 55.795 133.491 56.0721 133.983 56.5632C134.474 57.0543 134.752 57.7196 134.755 58.4141C134.752 59.1086 134.474 59.7739 133.983 60.265C133.491 60.7561 132.825 61.0333 132.129 61.0361H116.374C116.029 61.0367 115.688 60.9692 115.369 60.8377C115.05 60.7061 114.76 60.513 114.516 60.2694C114.272 60.0258 114.079 59.7365 113.947 59.4182C113.816 59.0998 113.748 58.7586 113.749 58.4141ZM100.62 55.7922C101.139 55.7922 101.647 55.9459 102.078 56.234C102.51 56.5221 102.847 56.9316 103.046 57.4107C103.244 57.8898 103.296 58.417 103.195 58.9257C103.094 59.4343 102.844 59.9014 102.476 60.2681C102.109 60.6348 101.641 60.8845 101.132 60.9857C100.623 61.0869 100.095 61.035 99.6148 60.8365C99.135 60.6381 98.7249 60.302 98.4363 59.8708C98.1478 59.4396 97.9938 58.9327 97.9938 58.4141C97.9966 57.7196 98.2742 57.0543 98.766 56.5632C99.2578 56.0721 99.9241 55.795 100.62 55.7922ZM119 194.756C117.961 194.756 116.946 194.449 116.083 193.873C115.219 193.296 114.546 192.477 114.148 191.519C113.751 190.561 113.647 189.507 113.849 188.489C114.052 187.472 114.552 186.538 115.287 185.804C116.021 185.071 116.957 184.572 117.976 184.369C118.994 184.167 120.05 184.271 121.01 184.668C121.969 185.064 122.79 185.737 123.367 186.599C123.944 187.461 124.252 188.475 124.252 189.512C124.253 190.201 124.117 190.884 123.854 191.52C123.59 192.157 123.203 192.735 122.715 193.222C122.228 193.709 121.648 194.096 121.011 194.359C120.373 194.622 119.69 194.757 119 194.756ZM153.135 147.561V179.025H84.8649V68.902H153.135V147.561Z" fill="black"/>
<path d="M118.892 150.397C133.882 150.397 146.033 138.264 146.033 123.297C146.033 108.329 133.882 96.1958 118.892 96.1958C103.903 96.1958 91.752 108.329 91.752 123.297C91.752 138.264 103.903 150.397 118.892 150.397Z" fill="#FF0800"/>
<path d="M145.86 109.628H119.366V119.858C119.363 120.006 119.303 120.146 119.199 120.25C119.095 120.355 118.954 120.414 118.806 120.417H115.212V130.389C115.214 130.588 115.294 130.778 115.435 130.919C115.576 131.059 115.766 131.139 115.965 131.141H145.86C146.06 131.139 146.25 131.059 146.391 130.919C146.531 130.778 146.612 130.588 146.614 130.389V110.381C146.612 110.182 146.531 109.992 146.391 109.851C146.25 109.711 146.06 109.631 145.86 109.628Z" fill="#909090"/>
<path d="M139.425 121.32C139.369 121.244 139.296 121.183 139.212 121.141C139.128 121.099 139.035 121.078 138.941 121.078C138.847 121.078 138.754 121.099 138.67 121.141C138.586 121.183 138.513 121.244 138.457 121.32L134.561 125.919C134.505 125.994 134.432 126.055 134.348 126.097C134.264 126.139 134.171 126.161 134.077 126.161C133.983 126.161 133.89 126.139 133.806 126.097C133.722 126.055 133.649 125.994 133.593 125.919L126.253 117.236C126.197 117.161 126.124 117.1 126.04 117.058C125.956 117.016 125.863 116.994 125.769 116.994C125.675 116.994 125.582 117.016 125.498 117.058C125.414 117.1 125.341 117.161 125.285 117.236L115.169 129.229V130.389C115.171 130.588 115.251 130.778 115.392 130.919C115.533 131.059 115.723 131.139 115.922 131.141H145.818C146.017 131.139 146.207 131.059 146.348 130.919C146.489 130.778 146.569 130.588 146.571 130.389V129.809L139.425 121.32Z" fill="black"/>
<path d="M141.362 117.989C142.908 117.989 144.16 116.738 144.16 115.195C144.16 113.652 142.908 112.401 141.362 112.401C139.817 112.401 138.564 113.652 138.564 115.195C138.564 116.738 139.817 117.989 141.362 117.989Z" fill="white"/>
<path d="M140.114 115.195C140.114 114.588 140.311 113.998 140.676 113.514C141.041 113.029 141.554 112.676 142.137 112.508C141.885 112.438 141.624 112.402 141.362 112.401C140.62 112.401 139.909 112.695 139.384 113.219C138.859 113.743 138.564 114.454 138.564 115.195C138.564 115.936 138.859 116.646 139.384 117.17C139.909 117.694 140.62 117.989 141.362 117.989C141.624 117.986 141.885 117.95 142.137 117.881C141.556 117.71 141.045 117.356 140.681 116.872C140.316 116.388 140.118 115.8 140.114 115.195Z" fill="#D9EAFC"/>
<path d="M119.474 119.987C119.471 120.135 119.411 120.275 119.307 120.379C119.203 120.484 119.062 120.543 118.914 120.546H90.4395C90.2919 120.543 90.1512 120.484 90.0468 120.379C89.9425 120.275 89.8826 120.135 89.8799 119.987V98.3024C89.8826 98.1551 89.9425 98.0146 90.0468 97.9104C90.1512 97.8062 90.2919 97.7464 90.4395 97.7437H118.914C119.062 97.7464 119.203 97.8062 119.307 97.9104C119.411 98.0146 119.471 98.1551 119.474 98.3024V119.987Z" fill="black"/>
<path d="M99.0273 103.74C99.0273 103.138 99.4578 102.88 99.9959 103.181L109.38 108.597C109.918 108.898 109.918 109.392 109.38 109.693L99.9959 115.109C99.4578 115.409 99.0273 115.173 99.0273 114.55V103.74Z" fill="#F0F0F0"/>
<path d="M101.222 103.89L99.9734 103.181C99.4353 102.88 99.0049 103.116 99.0049 103.739V114.55C99.0049 115.151 99.4353 115.409 99.9734 115.108L101.222 114.399V103.89Z" fill="#CECECE"/>
<path d="M117.751 101.998C117.749 102.083 117.715 102.164 117.654 102.224C117.594 102.284 117.513 102.319 117.429 102.321H115.104C115.019 102.319 114.938 102.284 114.878 102.224C114.818 102.164 114.783 102.083 114.781 101.998V99.6774C114.783 99.5925 114.818 99.5118 114.878 99.4518C114.938 99.3918 115.019 99.3572 115.104 99.355H117.429C117.513 99.3572 117.594 99.3918 117.654 99.4518C117.715 99.5118 117.749 99.5925 117.751 99.6774V101.998Z" fill="#808080"/>
<path d="M117.751 106.146C117.749 106.231 117.715 106.312 117.654 106.372C117.594 106.432 117.513 106.467 117.429 106.469H115.104C115.019 106.467 114.938 106.432 114.878 106.372C114.818 106.312 114.783 106.231 114.781 106.146V103.825C114.783 103.74 114.818 103.66 114.878 103.6C114.938 103.54 115.019 103.505 115.104 103.503H117.429C117.513 103.505 117.594 103.54 117.654 103.6C117.715 103.66 117.749 103.74 117.751 103.825V106.146Z" fill="#808080"/>
<path d="M117.751 110.294C117.749 110.379 117.715 110.46 117.654 110.52C117.594 110.58 117.513 110.615 117.429 110.617H115.104C115.019 110.615 114.938 110.58 114.878 110.52C114.818 110.46 114.783 110.379 114.781 110.294V107.973C114.783 107.888 114.818 107.808 114.878 107.748C114.938 107.688 115.019 107.653 115.104 107.651H117.429C117.513 107.653 117.594 107.688 117.654 107.748C117.715 107.808 117.749 107.888 117.751 107.973V110.294Z" fill="#808080"/>
<path d="M117.751 114.442C117.749 114.527 117.715 114.608 117.654 114.668C117.594 114.728 117.513 114.762 117.429 114.765H115.104C115.019 114.762 114.938 114.728 114.878 114.668C114.818 114.608 114.783 114.527 114.781 114.442V112.121C114.783 112.036 114.818 111.956 114.878 111.896C114.938 111.836 115.019 111.801 115.104 111.799H117.429C117.513 111.801 117.594 111.836 117.654 111.896C117.715 111.956 117.749 112.036 117.751 112.121V114.442Z" fill="#808080"/>
<path d="M117.751 118.59C117.749 118.675 117.715 118.756 117.654 118.816C117.594 118.876 117.513 118.91 117.429 118.913H115.104C115.019 118.91 114.938 118.876 114.878 118.816C114.818 118.756 114.783 118.675 114.781 118.59V116.269C114.783 116.184 114.818 116.104 114.878 116.044C114.938 115.984 115.019 115.949 115.104 115.947H117.429C117.513 115.949 117.594 115.984 117.654 116.044C117.715 116.104 117.749 116.184 117.751 116.269V118.59Z" fill="#808080"/>
<path d="M94.6147 101.998C94.6125 102.083 94.5778 102.164 94.5177 102.224C94.4577 102.284 94.3768 102.319 94.2919 102.321H91.9674C91.8824 102.319 91.8016 102.284 91.7415 102.224C91.6814 102.164 91.6467 102.083 91.6445 101.998V99.6774C91.6467 99.5925 91.6814 99.5118 91.7415 99.4518C91.8016 99.3918 91.8824 99.3572 91.9674 99.355H94.2703C94.3553 99.3572 94.4361 99.3918 94.4962 99.4518C94.5563 99.5118 94.591 99.5925 94.5932 99.6774V101.998H94.6147Z" fill="#808080"/>
<path d="M94.6147 106.146C94.6125 106.231 94.5778 106.312 94.5177 106.372C94.4577 106.432 94.3768 106.467 94.2919 106.469H91.9674C91.8824 106.467 91.8016 106.432 91.7415 106.372C91.6814 106.312 91.6467 106.231 91.6445 106.146V103.825C91.6467 103.74 91.6814 103.66 91.7415 103.6C91.8016 103.54 91.8824 103.505 91.9674 103.503H94.2703C94.3553 103.505 94.4361 103.54 94.4962 103.6C94.5563 103.66 94.591 103.74 94.5932 103.825V106.146H94.6147Z" fill="#808080"/>
<path d="M94.6147 110.294C94.6125 110.379 94.5778 110.46 94.5177 110.52C94.4577 110.58 94.3768 110.615 94.2919 110.617H91.9674C91.8824 110.615 91.8016 110.58 91.7415 110.52C91.6814 110.46 91.6467 110.379 91.6445 110.294V107.973C91.6467 107.888 91.6814 107.808 91.7415 107.748C91.8016 107.688 91.8824 107.653 91.9674 107.651H94.2703C94.3553 107.653 94.4361 107.688 94.4962 107.748C94.5563 107.808 94.591 107.888 94.5932 107.973V110.294H94.6147Z" fill="#808080"/>
<path d="M94.6147 114.442C94.6125 114.527 94.5778 114.608 94.5177 114.668C94.4577 114.728 94.3768 114.762 94.2919 114.765H91.9674C91.8824 114.762 91.8016 114.728 91.7415 114.668C91.6814 114.608 91.6467 114.527 91.6445 114.442V112.121C91.6467 112.036 91.6814 111.956 91.7415 111.896C91.8016 111.836 91.8824 111.801 91.9674 111.799H94.2703C94.3553 111.801 94.4361 111.836 94.4962 111.896C94.5563 111.956 94.591 112.036 94.5932 112.121V114.442H94.6147Z" fill="#808080"/>
<path d="M94.6147 118.59C94.6125 118.675 94.5778 118.756 94.5177 118.816C94.4577 118.876 94.3768 118.91 94.2919 118.913H91.9674C91.8824 118.91 91.8016 118.876 91.7415 118.816C91.6814 118.756 91.6467 118.675 91.6445 118.59V116.269C91.6467 116.184 91.6814 116.104 91.7415 116.044C91.8016 115.984 91.8824 115.949 91.9674 115.947H94.2703C94.3553 115.949 94.4361 115.984 94.4962 116.044C94.5563 116.104 94.591 116.184 94.5932 116.269V118.59H94.6147Z" fill="#808080"/>
<path d="M112.715 123.189H93.4522C93.3046 123.192 93.1639 123.252 93.0595 123.356C92.9552 123.46 92.8953 123.601 92.8926 123.748V131.077C93.653 133.614 94.7844 136.026 96.2501 138.234H103.245L107.765 142.747C107.98 142.962 108.152 142.897 108.152 142.575V138.234H112.715C112.863 138.231 113.003 138.171 113.108 138.067C113.212 137.963 113.272 137.822 113.275 137.675V123.748C113.272 123.601 113.212 123.46 113.108 123.356C113.003 123.252 112.863 123.192 112.715 123.189Z" fill="#909090"/>
<path d="M95.0879 123.727C95.0907 123.579 95.1505 123.439 95.2549 123.335C95.3592 123.23 95.5 123.171 95.6475 123.168H93.4522C93.3046 123.171 93.1639 123.23 93.0595 123.335C92.9552 123.439 92.8953 123.579 92.8926 123.727V131.055C93.4414 132.874 94.1771 134.632 95.0879 136.299V123.727Z" fill="black"/>
<path d="M108.584 128.67H97.5855C97.3629 128.67 97.1494 128.582 96.9919 128.424C96.8345 128.267 96.7461 128.054 96.7461 127.832C96.7461 127.61 96.8345 127.396 96.9919 127.239C97.1494 127.082 97.3629 126.994 97.5855 126.994H108.584C108.806 126.994 109.02 127.082 109.177 127.239C109.335 127.396 109.423 127.61 109.423 127.832C109.418 128.052 109.327 128.262 109.171 128.418C109.015 128.574 108.805 128.665 108.584 128.67Z" fill="white"/>
<path d="M108.584 131.571H97.5855C97.3629 131.571 97.1494 131.483 96.9919 131.325C96.8345 131.168 96.7461 130.955 96.7461 130.733C96.7461 130.51 96.8345 130.297 96.9919 130.14C97.1494 129.983 97.3629 129.895 97.5855 129.895H108.584C108.806 129.895 109.02 129.983 109.177 130.14C109.335 130.297 109.423 130.51 109.423 130.733C109.418 130.953 109.327 131.163 109.171 131.319C109.015 131.475 108.805 131.565 108.584 131.571Z" fill="white"/>
<path d="M103.095 134.451H97.5855C97.3629 134.451 97.1494 134.362 96.9919 134.205C96.8345 134.048 96.7461 133.835 96.7461 133.613C96.7461 133.39 96.8345 133.177 96.9919 133.02C97.1494 132.863 97.3629 132.774 97.5855 132.774H103.095C103.318 132.774 103.531 132.863 103.689 133.02C103.846 133.177 103.935 133.39 103.935 133.613C103.935 133.835 103.846 134.048 103.689 134.205C103.531 134.362 103.318 134.451 103.095 134.451Z" fill="white"/>
<path d="M133.27 133.978H115.814C115.667 133.981 115.526 134.041 115.422 134.145C115.317 134.249 115.258 134.39 115.255 134.537V147.733C115.258 147.88 115.317 148.021 115.422 148.125C115.526 148.229 115.667 148.289 115.814 148.291H129.417C130.95 147.648 132.42 146.864 133.808 145.949V134.558C133.815 134.484 133.806 134.409 133.782 134.338C133.758 134.268 133.719 134.203 133.668 134.148C133.618 134.093 133.556 134.05 133.487 134.021C133.418 133.991 133.344 133.977 133.27 133.978Z" fill="black"/>
<path d="M121.475 138.147C121.475 137.545 121.905 137.288 122.443 137.588L127.609 140.576C128.147 140.877 128.147 141.371 127.609 141.672L122.443 144.659C121.905 144.96 121.475 144.724 121.475 144.1V138.147Z" fill="white"/>
<path d="M70.8964 0H7.87737C5.78851 0.00113886 3.78554 0.83023 2.30849 2.30512C0.831442 3.78002 0.00114052 5.78008 0 7.86589L0 144.208C0.00114052 146.294 0.831442 148.294 2.30849 149.769C3.78554 151.244 5.78851 152.073 7.87737 152.074H70.8964C72.9852 152.073 74.9882 151.244 76.4652 149.769C77.9423 148.294 78.7726 146.294 78.7737 144.208V7.86589C78.7726 5.78008 77.9423 3.78002 76.4652 2.30512C74.9882 0.83023 72.9852 0.00113886 70.8964 0V0ZM34.1353 10.4879C34.1381 9.79334 34.4157 9.12808 34.9075 8.63697C35.3993 8.14587 36.0655 7.86872 36.7611 7.86589H52.5158C53.2114 7.86872 53.8776 8.14587 54.3694 8.63697C54.8612 9.12808 55.1388 9.79334 55.1416 10.4879C55.1388 11.1824 54.8612 11.8476 54.3694 12.3387C53.8776 12.8298 53.2114 13.107 52.5158 13.1098H36.7611C36.4161 13.1104 36.0744 13.043 35.7556 12.9114C35.4367 12.7798 35.147 12.5867 34.9031 12.3431C34.6592 12.0995 34.4658 11.8103 34.334 11.4919C34.2022 11.1735 34.1347 10.8323 34.1353 10.4879ZM21.0063 7.86589C21.5257 7.86589 22.0333 8.01967 22.4651 8.30777C22.8969 8.59588 23.2335 9.00537 23.4322 9.48448C23.631 9.96358 23.683 10.4908 23.5817 10.9994C23.4804 11.508 23.2303 11.9752 22.863 12.3419C22.4958 12.7086 22.0279 12.9583 21.5186 13.0594C21.0092 13.1606 20.4813 13.1087 20.0015 12.9102C19.5217 12.7118 19.1116 12.3757 18.8231 11.9445C18.5345 11.5134 18.3805 11.0064 18.3805 10.4879C18.3834 9.79334 18.6609 9.12808 19.1527 8.63697C19.6446 8.14587 20.3108 7.86872 21.0063 7.86589ZM39.3869 146.809C38.3482 146.809 37.3329 146.501 36.4692 145.925C35.6056 145.349 34.9325 144.53 34.535 143.571C34.1376 142.613 34.0336 141.559 34.2362 140.542C34.4388 139.524 34.939 138.59 35.6734 137.857C36.4079 137.123 37.3436 136.624 38.3623 136.421C39.381 136.219 40.437 136.323 41.3966 136.72C42.3562 137.117 43.1763 137.789 43.7534 138.651C44.3304 139.514 44.6384 140.527 44.6384 141.565C44.6393 142.253 44.504 142.936 44.2404 143.572C43.9768 144.209 43.59 144.787 43.1022 145.274C42.6144 145.762 42.0351 146.148 41.3976 146.411C40.76 146.674 40.0768 146.809 39.3869 146.809ZM73.5222 99.6346V131.098H5.25158V20.9757H73.5222V99.6346Z" fill="black"/>
<path d="M230.144 0H167.125C165.037 0.00113886 163.034 0.83023 161.557 2.30512C160.079 3.78002 159.249 5.78008 159.248 7.86589V144.208C159.249 146.294 160.079 148.294 161.557 149.769C163.034 151.244 165.037 152.073 167.125 152.074H230.144C232.233 152.073 234.236 151.244 235.713 149.769C237.19 148.294 238.021 146.294 238.022 144.208V7.86589C238.017 5.78112 237.186 3.78304 235.709 2.30888C234.233 0.834726 232.232 0.004542 230.144 0V0ZM193.383 10.4879C193.386 9.79334 193.664 9.12808 194.156 8.63697C194.647 8.14587 195.314 7.86872 196.009 7.86589H211.764C212.459 7.86872 213.126 8.14587 213.617 8.63697C214.109 9.12808 214.387 9.79334 214.39 10.4879C214.387 11.1824 214.109 11.8476 213.617 12.3387C213.126 12.8298 212.459 13.107 211.764 13.1098H196.009C195.664 13.1104 195.322 13.043 195.004 12.9114C194.685 12.7798 194.395 12.5867 194.151 12.3431C193.907 12.0995 193.714 11.8103 193.582 11.4919C193.45 11.1735 193.383 10.8323 193.383 10.4879ZM180.254 7.86589C180.774 7.86589 181.281 8.01967 181.713 8.30777C182.145 8.59588 182.482 9.00537 182.68 9.48448C182.879 9.96358 182.931 10.4908 182.83 10.9994C182.728 11.508 182.478 11.9752 182.111 12.3419C181.744 12.7086 181.276 12.9583 180.767 13.0594C180.257 13.1606 179.729 13.1087 179.25 12.9102C178.77 12.7118 178.36 12.3757 178.071 11.9445C177.783 11.5134 177.629 11.0064 177.629 10.4879C177.631 9.79334 177.909 9.12808 178.401 8.63697C178.893 8.14587 179.559 7.86872 180.254 7.86589ZM198.635 146.809C197.596 146.809 196.581 146.501 195.717 145.925C194.854 145.349 194.181 144.53 193.783 143.571C193.386 142.613 193.282 141.559 193.484 140.542C193.687 139.524 194.187 138.59 194.921 137.857C195.656 137.123 196.592 136.624 197.61 136.421C198.629 136.219 199.685 136.323 200.645 136.72C201.604 137.117 202.424 137.789 203.001 138.651C203.578 139.514 203.886 140.527 203.886 141.565C203.887 142.253 203.752 142.936 203.488 143.572C203.225 144.209 202.838 144.787 202.35 145.274C201.862 145.762 201.283 146.148 200.646 146.411C200.008 146.674 199.325 146.809 198.635 146.809ZM232.749 99.6346V131.098H164.5V20.9757H232.77L232.749 99.6346Z" fill="black"/>
<path d="M187.464 69.5683V55.2549C187.463 55.0515 187.503 54.8499 187.58 54.6618C187.658 54.4736 187.772 54.3027 187.916 54.1589C188.06 54.015 188.231 53.901 188.419 53.8236C188.608 53.7461 188.81 53.7067 189.014 53.7075H209.439C209.642 53.7067 209.844 53.7461 210.033 53.8236C210.221 53.901 210.392 54.015 210.536 54.1589C210.68 54.3027 210.795 54.4736 210.872 54.6618C210.95 54.8499 210.989 55.0515 210.988 55.2549V69.5683C210.989 69.7717 210.95 69.9733 210.872 70.1614C210.795 70.3496 210.68 70.5205 210.536 70.6643C210.392 70.8082 210.221 70.9221 210.033 70.9996C209.844 71.0771 209.642 71.1165 209.439 71.1157H189.014C188.81 71.1165 188.608 71.0771 188.419 70.9996C188.231 70.9221 188.06 70.8082 187.916 70.6643C187.772 70.5205 187.658 70.3496 187.58 70.1614C187.503 69.9733 187.463 69.7717 187.464 69.5683Z" fill="black"/>
<path d="M215.25 84.1394C217.057 84.1394 218.521 82.6768 218.521 80.8727C218.521 79.0685 217.057 77.606 215.25 77.606C213.443 77.606 211.979 79.0685 211.979 80.8727C211.979 82.6768 213.443 84.1394 215.25 84.1394Z" fill="#80391B"/>
<path d="M219.468 85.1709H211.01C210.023 85.1692 209.076 85.5567 208.375 86.2491C207.673 86.9415 207.274 87.8826 207.265 88.8674V92.521H210.407V88.8889C210.411 88.7327 210.477 88.5845 210.59 88.476C210.702 88.3676 210.853 88.3075 211.01 88.3087H211.031V92.521H219.382V88.3087H219.468C219.625 88.3075 219.775 88.3676 219.888 88.476C220.001 88.5845 220.066 88.7327 220.071 88.8889V92.521H223.213V88.8674C223.203 87.8826 222.804 86.9415 222.103 86.2491C221.401 85.5567 220.454 85.1692 219.468 85.1709Z" fill="#80391B"/>
<path d="M219.468 85.1709H216.885C216.429 85.551 215.854 85.7592 215.26 85.7592C214.666 85.7592 214.091 85.551 213.635 85.1709H211.01C210.023 85.1692 209.076 85.5567 208.375 86.2491C207.673 86.9415 207.274 87.8826 207.265 88.8674V91.167H210.407V88.8889C210.411 88.7327 210.477 88.5845 210.59 88.476C210.702 88.3676 210.853 88.3075 211.01 88.3087H211.031V92.521H219.382V88.3087H219.468C219.625 88.3075 219.775 88.3676 219.888 88.476C220.001 88.5845 220.066 88.7327 220.071 88.8889V91.167H223.213V88.8674C223.203 87.8826 222.804 86.9415 222.103 86.2491C221.401 85.5567 220.454 85.1692 219.468 85.1709Z" fill="#808080"/>
<path d="M198.635 84.1394C200.442 84.1394 201.906 82.6768 201.906 80.8727C201.906 79.0685 200.442 77.606 198.635 77.606C196.828 77.606 195.363 79.0685 195.363 80.8727C195.363 82.6768 196.828 84.1394 198.635 84.1394Z" fill="#FFB69E"/>
<path d="M202.853 85.1709H194.394C193.408 85.1692 192.461 85.5567 191.76 86.2491C191.058 86.9415 190.659 87.8826 190.649 88.8674V92.521H193.792V88.8889C193.796 88.7327 193.862 88.5845 193.975 88.476C194.087 88.3676 194.238 88.3075 194.394 88.3087H194.416V92.521H202.767V88.3087H202.853C203.009 88.3075 203.16 88.3676 203.273 88.476C203.385 88.5845 203.451 88.7327 203.456 88.8889V92.521H206.598V88.8674C206.584 87.8838 206.184 86.945 205.483 86.2534C204.783 85.5619 203.838 85.1731 202.853 85.1709Z" fill="#FFB69E"/>
<path d="M202.853 85.1709H200.12C199.664 85.551 199.088 85.7592 198.495 85.7592C197.901 85.7592 197.325 85.551 196.87 85.1709H194.373C193.387 85.1692 192.44 85.5567 191.738 86.2491C191.037 86.9415 190.638 87.8826 190.628 88.8674V91.167H193.77V88.8889C193.775 88.7327 193.84 88.5845 193.953 88.476C194.066 88.3676 194.216 88.3075 194.373 88.3087H194.394V92.521H202.745V88.3087H202.831C202.988 88.3075 203.139 88.3676 203.251 88.476C203.364 88.5845 203.43 88.7327 203.434 88.8889V91.167H206.576V88.8674C206.572 87.8847 206.177 86.9439 205.479 86.251C204.782 85.5582 203.837 85.1698 202.853 85.1709Z" fill="#FF0800"/>
<path d="M181.997 84.0749C183.804 84.0749 185.269 82.6124 185.269 80.8082C185.269 79.0041 183.804 77.5415 181.997 77.5415C180.19 77.5415 178.726 79.0041 178.726 80.8082C178.726 82.6124 180.19 84.0749 181.997 84.0749Z" fill="#FFB69E"/>
<path d="M186.216 85.1279H177.758C176.771 85.1262 175.824 85.5137 175.123 86.2061C174.421 86.8985 174.022 87.8396 174.013 88.8245V92.478H177.155V88.846C177.16 88.6898 177.225 88.5415 177.338 88.4331C177.45 88.3246 177.601 88.2645 177.758 88.2657H177.779V92.478H186.13V88.2657H186.216C186.373 88.2645 186.523 88.3246 186.636 88.4331C186.749 88.5415 186.814 88.6898 186.819 88.846V92.478H189.961V88.8245C189.951 87.8396 189.552 86.8985 188.851 86.2061C188.15 85.5137 187.202 85.1262 186.216 85.1279Z" fill="#FFB69E"/>
<path d="M186.216 85.1279H183.504C183.048 85.5081 182.473 85.7163 181.879 85.7163C181.285 85.7163 180.71 85.5081 180.254 85.1279H177.758C176.771 85.1262 175.824 85.5137 175.123 86.2061C174.421 86.8985 174.022 87.8396 174.013 88.8245V91.1241H177.155V88.846C177.16 88.6898 177.225 88.5415 177.338 88.4331C177.45 88.3246 177.601 88.2645 177.758 88.2657H177.779V92.478H186.13V88.2657H186.216C186.373 88.2645 186.523 88.3246 186.636 88.4331C186.749 88.5415 186.814 88.6898 186.819 88.846V91.1241H189.961V88.8245C189.951 87.8396 189.552 86.8985 188.851 86.2061C188.15 85.5137 187.202 85.1262 186.216 85.1279Z" fill="#909090"/>
<path d="M207.868 89.9851C209.675 89.9851 211.14 88.5225 211.14 86.7184C211.14 84.9142 209.675 83.4517 207.868 83.4517C206.061 83.4517 204.597 84.9142 204.597 86.7184C204.597 88.5225 206.061 89.9851 207.868 89.9851Z" fill="#FFB69E"/>
<path d="M212.086 91.0166H203.628C202.641 91.0149 201.694 91.4024 200.993 92.0948C200.291 92.7872 199.892 93.7283 199.883 94.7132V98.3667H203.025V94.7346C203.03 94.5784 203.095 94.4302 203.208 94.3217C203.321 94.2133 203.471 94.1532 203.628 94.1544H203.649V98.3667H212V94.1544H212.086C212.243 94.1532 212.393 94.2133 212.506 94.3217C212.619 94.4302 212.684 94.5784 212.689 94.7346V98.3667H215.831V94.7132C215.818 93.7295 215.417 92.7907 214.717 92.0991C214.016 91.4076 213.071 91.0188 212.086 91.0166Z" fill="#FFB69E"/>
<path d="M212.086 91.0166H209.504C209.048 91.3967 208.473 91.6049 207.879 91.6049C207.285 91.6049 206.71 91.3967 206.254 91.0166H203.628C202.641 91.0149 201.694 91.4024 200.993 92.0948C200.291 92.7872 199.892 93.7283 199.883 94.7132V97.0127H203.025V94.7346C203.03 94.5784 203.095 94.4302 203.208 94.3217C203.321 94.2133 203.471 94.1532 203.628 94.1544H203.649V98.3667H212V94.1544H212.086C212.243 94.1532 212.393 94.2133 212.506 94.3217C212.619 94.4302 212.684 94.5784 212.689 94.7346V97.0127H215.831V94.7132C215.818 93.7295 215.417 92.7907 214.717 92.0991C214.016 91.4076 213.071 91.0188 212.086 91.0166Z" fill="#555555"/>
<path d="M191.231 89.9851C193.038 89.9851 194.503 88.5225 194.503 86.7184C194.503 84.9142 193.038 83.4517 191.231 83.4517C189.425 83.4517 187.96 84.9142 187.96 86.7184C187.96 88.5225 189.425 89.9851 191.231 89.9851Z" fill="#BA6746"/>
<path d="M195.45 91.0166H186.991C186.005 91.0149 185.058 91.4024 184.356 92.0948C183.655 92.7872 183.256 93.7283 183.246 94.7132V98.3667H186.388V94.7346C186.393 94.5784 186.459 94.4302 186.571 94.3217C186.684 94.2133 186.835 94.1532 186.991 94.1544H187.013V98.3667H195.385V94.1544H195.471C195.628 94.1532 195.778 94.2133 195.891 94.3217C196.004 94.4302 196.069 94.5784 196.074 94.7346V98.3667H199.216V94.7132C199.198 93.7272 198.793 92.7877 198.089 92.0965C197.385 91.4053 196.437 91.0176 195.45 91.0166Z" fill="#BA6746"/>
<path d="M195.45 91.0166H192.738C192.282 91.3967 191.707 91.6049 191.113 91.6049C190.519 91.6049 189.944 91.3967 189.488 91.0166H186.991C186.005 91.0149 185.058 91.4024 184.356 92.0948C183.655 92.7872 183.256 93.7283 183.246 94.7132V97.0127H186.388V94.7346C186.393 94.5784 186.459 94.4302 186.571 94.3217C186.684 94.2133 186.835 94.1532 186.991 94.1544H187.013V98.3667H195.385V94.1544H195.471C195.628 94.1532 195.778 94.2133 195.891 94.3217C196.004 94.4302 196.069 94.5784 196.074 94.7346V97.0127H199.216V94.7132C199.198 93.7272 198.793 92.7877 198.089 92.0965C197.385 91.4053 196.437 91.0176 195.45 91.0166Z" fill="#404040"/>
<path d="M196.614 59.4324C196.614 58.8306 197.045 58.5727 197.583 58.8736L202.748 61.8609C203.286 62.1618 203.286 62.6561 202.748 62.957L197.583 65.9443C197.045 66.2452 196.614 66.0088 196.614 65.3856V59.4324Z" fill="white"/>
<path d="M35.513 68.745C35.358 67.6253 34.5638 67.1654 33.8729 67.1074C33.6138 67.0814 33.3521 67.1104 33.1051 67.1927C32.858 67.2749 32.6312 67.4084 32.4395 67.5845C32.2479 67.4084 32.021 67.2749 31.774 67.1927C31.5269 67.1104 31.2652 67.0814 31.0061 67.1074C30.3152 67.1654 29.521 67.6253 29.3661 68.745C29.0604 70.9823 32.1382 72.5039 32.2695 72.5684C32.3225 72.5939 32.3806 72.6071 32.4395 72.6071C32.4984 72.6071 32.5565 72.5939 32.6096 72.5684C32.7387 72.5039 35.8165 70.9823 35.513 68.745Z" fill="#FF0800"/>
<path d="M49.6832 69.7141C48.7431 68.2045 47.7041 66.7586 46.5731 65.3857C45.8048 64.4702 44.6942 63.271 43.7752 62.7638C43.0391 62.364 41.8725 62.0331 40.6543 61.8805C39.8903 61.7859 38.4891 61.6892 37.7143 62.1126C37.0342 62.4822 36.7221 63.8491 36.5951 64.6314C36.3928 65.8779 36.367 67.5628 36.9632 68.2011C37.1349 68.3716 37.3404 68.5044 37.5664 68.591C37.7925 68.6776 38.0342 68.7161 38.2761 68.704C39.206 68.6744 40.0874 68.2825 40.7318 67.6123C40.9643 67.363 41.0697 67.3866 41.61 67.6596C42.2374 68.0296 42.9654 68.1935 43.6912 68.1281C43.7127 68.1474 43.8311 68.2721 43.8914 68.9061C43.9409 69.4219 43.9366 70.1096 43.9323 70.8403C43.9323 72.3254 43.9151 73.9587 44.2917 75.2375C43.6353 74.9226 42.9429 74.6888 42.2298 74.5411C40.5682 74.1994 38.091 74.2317 35.5921 76.2454C35.078 75.8205 34.5063 75.4704 33.894 75.2052C32.3099 74.5282 30.7301 74.6228 29.3268 75.4803C28.4649 76.0286 27.8006 76.8372 27.4307 77.7885C27.0434 78.7561 26.8807 79.7988 26.955 80.8382C27.1014 83.0432 28.2163 84.8678 29.8649 85.5985C31.3715 86.2648 34.5999 86.5312 37.4151 86.5312C39.4835 86.5312 41.328 86.3873 42.1093 86.1508C44.2304 85.4406 46.2787 84.5295 48.2261 83.43C51.4201 81.614 53.086 79.8603 53.1764 78.214C53.3249 75.7253 50.5398 71.0789 49.6832 69.7141Z" fill="#FFC89F"/>
<path d="M35.9431 100.924C34.4516 102.416 26.628 107.802 25.1343 106.321C23.6406 104.84 29.0472 97.0193 30.5387 95.5278C31.2608 94.8387 32.2243 94.4592 33.223 94.4705C34.2217 94.4817 35.1764 94.8829 35.8826 95.5882C36.5889 96.2934 36.9906 97.2466 37.0019 98.2439C37.0132 99.2412 36.6332 100.203 35.9431 100.924Z" fill="url(#paint0_linear)"/>
<path d="M35.928 95.1257C36.1027 94.7775 36.1794 94.3884 36.1499 94C36.1203 93.6116 35.9856 93.2385 35.7601 92.9207C35.5444 92.622 35.2523 92.3867 34.9143 92.2394C33.4873 91.5947 32.7297 93.0991 33.7283 93.8233C34.727 94.5476 35.1941 96.6172 35.1941 96.6172L35.928 95.1257Z" fill="url(#paint1_linear)"/>
<path d="M36.5995 96.2819C36.8954 96.17 37.2176 96.1468 37.5266 96.2152C37.8355 96.2835 38.1177 96.4404 38.3386 96.6666C38.5234 96.8607 38.6566 97.0979 38.726 97.3565C39.0532 98.5214 37.8091 98.9254 37.3722 98.0786C36.9353 97.2319 35.5449 96.6731 35.5449 96.6731L36.5995 96.2819Z" fill="url(#paint2_linear)"/>
<path d="M39.0443 94.3157C38.5321 94.9089 35.7879 97.1096 35.1939 96.611C34.5999 96.1124 36.3841 93.0606 36.8942 92.4696C37.0156 92.3285 37.1636 92.2126 37.3299 92.1287C37.4961 92.0447 37.6773 91.9942 37.863 91.9801C38.0488 91.9661 38.2355 91.9887 38.4126 92.0467C38.5896 92.1046 38.7534 92.1969 38.8947 92.3181C39.0361 92.4393 39.1521 92.5871 39.2362 92.7531C39.3203 92.9191 39.3709 93.1 39.3849 93.2855C39.399 93.471 39.3764 93.6575 39.3183 93.8342C39.2602 94.011 39.1679 94.1746 39.0465 94.3157H39.0443Z" fill="url(#paint3_linear)"/>
<path d="M37.7539 94.9624C37.7539 94.9624 39.4112 93.7094 40.4916 94.7475C41.5721 95.7855 40.3754 97.3265 39.0969 96.8365C37.8185 96.3464 35.5801 96.6624 35.5801 96.6624L37.7539 94.9624Z" fill="url(#paint4_linear)"/>
<path d="M53.807 99.2907C53.807 100.907 52.7545 103.14 51.4825 104.358C50.9186 104.902 50.3095 105.244 49.7306 105.244C49.377 105.243 49.0254 105.19 48.6867 105.089C48.2571 104.96 47.7991 104.96 47.3695 105.089C47.0308 105.19 46.6792 105.243 46.3256 105.244C45.7187 105.244 45.0816 104.868 44.494 104.279C43.2608 103.052 42.2578 100.877 42.2578 99.2907C42.2578 96.9567 43.6568 95.5468 44.9697 95.2073C45.6177 95.0798 46.2871 95.1122 46.9197 95.3018C47.5283 95.4602 48.1636 95.4873 48.7836 95.3814C48.9062 95.3599 49.0311 95.3341 49.1537 95.3018C49.7863 95.1122 50.4557 95.0798 51.1037 95.2073C52.4188 95.5533 53.807 96.9631 53.807 99.2907Z" fill="#FF0800"/>
<path d="M54.382 91.9641C54.382 91.9641 54.0571 94.2229 52.3481 94.8805C50.7146 95.5081 49.2574 93.806 48.6613 93.9435C48.6347 93.9482 48.6092 93.9577 48.5859 93.9714C48.6075 93.9113 49.2618 91.962 50.9535 91.833C52.6452 91.7041 53.5922 92.4821 54.382 91.9641Z" fill="#AEF255"/>
<path d="M54.3817 91.9641C54.3817 91.9641 53.3443 93.2278 51.8829 93.2278C50.5915 93.2278 49.0225 93.8038 48.6544 93.9435L48.5791 93.9714C48.6006 93.9113 49.2549 91.962 50.9466 91.833C52.6383 91.7041 53.5918 92.4821 54.3817 91.9641Z" fill="#66AD4D"/>
<path d="M49.2461 96.1853C49.2461 96.4497 48.8307 96.6711 48.2755 96.7226C48.198 96.7226 48.1183 96.7334 48.0366 96.7334C47.9508 96.7309 47.8653 96.7238 47.7804 96.7119C47.2316 96.6603 46.8184 96.4411 46.8184 96.1768L49.2461 96.1853Z" fill="#B7B7B7"/>
<path d="M48.9602 93.9436L48.0735 95.2911C48.1453 95.5856 48.1992 95.8842 48.2349 96.1852C48.2543 96.3592 48.2693 96.5376 48.2758 96.7224C48.1983 96.7224 48.1187 96.7332 48.0369 96.7332C47.9512 96.7308 47.8657 96.7236 47.7808 96.7117C47.7808 96.529 47.7571 96.3485 47.7356 96.1766C47.6415 95.4142 47.4234 94.6723 47.0899 93.9801C47.0749 93.9519 47.0656 93.921 47.0626 93.8892C47.0596 93.8574 47.0629 93.8253 47.0723 93.7948C47.0817 93.7643 47.097 93.7359 47.1174 93.7113C47.1377 93.6866 47.1628 93.6663 47.191 93.6513C47.2193 93.6364 47.2502 93.6271 47.2821 93.6241C47.3139 93.6211 47.3461 93.6243 47.3766 93.6337C47.4072 93.6431 47.4356 93.6584 47.4603 93.6787C47.485 93.6991 47.5054 93.7241 47.5203 93.7523C47.6685 94.0467 47.7937 94.3521 47.8948 94.6657L48.5513 93.6685C48.5689 93.6418 48.5916 93.6188 48.6182 93.6008C48.6447 93.5829 48.6745 93.5704 48.7059 93.564C48.7373 93.5576 48.7697 93.5575 48.8011 93.5636C48.8326 93.5697 48.8625 93.582 48.8892 93.5997C48.9173 93.6169 48.9415 93.6397 48.9605 93.6666C48.9794 93.6936 48.9926 93.7241 48.9993 93.7563C49.0059 93.7885 49.0059 93.8218 48.9992 93.854C48.9925 93.8862 48.9792 93.9167 48.9602 93.9436Z" fill="#AF4700"/>
<path d="M53.7557 52.9184L26.3743 52.8303C26.1849 52.8297 25.9975 52.7919 25.8227 52.719C25.648 52.6461 25.4894 52.5396 25.3558 52.4055C25.2223 52.2714 25.1166 52.1123 25.0446 51.9374C24.9727 51.7625 24.936 51.5751 24.9365 51.386C24.9368 51.1966 24.9745 51.009 25.0475 50.8342C25.1205 50.6593 25.2274 50.5005 25.3619 50.367C25.4965 50.2334 25.6561 50.1277 25.8317 50.0558C26.0073 49.984 26.1953 49.9474 26.385 49.9483L53.7664 50.0342C54.1491 50.0359 54.5154 50.1892 54.785 50.4604C55.0545 50.7316 55.2053 51.0985 55.2041 51.4806C55.2036 51.67 55.1657 51.8574 55.0926 52.0321C55.0195 52.2069 54.9126 52.3655 54.7781 52.4991C54.6436 52.6326 54.4841 52.7383 54.3087 52.8103C54.1332 52.8822 53.9453 52.919 53.7557 52.9184Z" fill="#808080"/>
<path d="M28.9164 53.531H27.1128C27.0065 53.5307 26.9013 53.5095 26.8032 53.4687C26.7052 53.4278 26.6161 53.368 26.5412 53.2928C26.4662 53.2176 26.4069 53.1283 26.3664 53.0302C26.326 52.932 26.3054 52.8269 26.3057 52.7208V50.073C26.3059 49.9667 26.3272 49.8615 26.3683 49.7635C26.4094 49.6654 26.4694 49.5764 26.545 49.5015C26.6205 49.4266 26.7102 49.3674 26.8087 49.3272C26.9073 49.2869 27.0128 49.2665 27.1192 49.2671H28.9207L28.9164 53.531Z" fill="black"/>
<path d="M26.3096 51.2573V52.7144C26.3093 52.8206 26.3299 52.9257 26.3704 53.0238C26.4108 53.122 26.4701 53.2112 26.5451 53.2865C26.62 53.3617 26.7091 53.4215 26.8072 53.4623C26.9052 53.5032 27.0104 53.5244 27.1167 53.5247H28.9203V51.2595L26.3096 51.2573Z" fill="black"/>
<path d="M30.6728 55.9872H29.2587C29.1365 55.9872 29.0155 55.9631 28.9027 55.9163C28.7899 55.8695 28.6874 55.8009 28.6012 55.7144C28.515 55.6279 28.4468 55.5253 28.4004 55.4124C28.3541 55.2996 28.3305 55.1786 28.3311 55.0566L28.3547 47.7495C28.355 47.6276 28.3794 47.5069 28.4263 47.3944C28.4733 47.2819 28.542 47.1797 28.6286 47.0937C28.7151 47.0076 28.8178 46.9395 28.9307 46.8931C29.0436 46.8467 29.1646 46.823 29.2867 46.8232H30.7007C30.8228 46.8235 30.9437 46.8478 31.0564 46.8947C31.1691 46.9417 31.2714 47.0103 31.3576 47.0967C31.4437 47.1831 31.512 47.2856 31.5584 47.3984C31.6049 47.5111 31.6287 47.6319 31.6284 47.7538L31.6047 55.0609C31.6044 55.1829 31.5801 55.3035 31.5331 55.4161C31.4861 55.5286 31.4174 55.6308 31.3308 55.7168C31.2443 55.8028 31.1416 55.871 31.0287 55.9174C30.9158 55.9638 30.7949 55.9875 30.6728 55.9872Z" fill="black"/>
<path d="M28.344 51.2637L28.3311 55.0526C28.3308 55.1745 28.3545 55.2953 28.401 55.4081C28.4475 55.5208 28.5157 55.6233 28.6019 55.7098C28.688 55.7962 28.7903 55.8648 28.903 55.9117C29.0157 55.9586 29.1366 55.9829 29.2587 55.9832H30.6727C30.919 55.9838 31.1554 55.8868 31.3301 55.7136C31.5048 55.5403 31.6035 55.3049 31.6047 55.0591L31.6176 51.2701L28.344 51.2637Z" fill="black"/>
<path d="M33.5435 57.5006H31.6645C31.5026 57.5001 31.3423 57.4677 31.1929 57.4052C31.0435 57.3428 30.9078 57.2517 30.7937 57.1369C30.6796 57.0222 30.5892 56.8861 30.5278 56.7365C30.4663 56.5868 30.435 56.4266 30.4356 56.2649L30.4657 46.555C30.466 46.3931 30.4982 46.2329 30.5606 46.0834C30.623 45.934 30.7142 45.7983 30.8292 45.6841C30.9441 45.5699 31.0805 45.4795 31.2305 45.418C31.3805 45.3565 31.5411 45.3251 31.7033 45.3257H33.58C33.7422 45.326 33.9027 45.3582 34.0523 45.4205C34.202 45.4827 34.3379 45.5739 34.4522 45.6887C34.5666 45.8034 34.6571 45.9396 34.7187 46.0894C34.7803 46.2391 34.8117 46.3996 34.8112 46.5615L34.781 56.2713C34.7799 56.5981 34.6489 56.9111 34.4169 57.1416C34.1849 57.3721 33.8707 57.5012 33.5435 57.5006Z" fill="black"/>
<path d="M30.4506 51.2705L30.4356 56.2587C30.435 56.4204 30.4663 56.5807 30.5278 56.7303C30.5892 56.8799 30.6796 57.016 30.7937 57.1307C30.9078 57.2455 31.0435 57.3367 31.1929 57.3991C31.3423 57.4615 31.5026 57.4939 31.6645 57.4945H33.5435C33.8707 57.495 34.1849 57.3659 34.4169 57.1354C34.6489 56.9049 34.7799 56.5919 34.781 56.2651L34.7961 51.2791L30.4506 51.2705Z" fill="black"/>
<path d="M52.7979 52.9143H53.7556C53.9453 52.9149 54.1332 52.8782 54.3086 52.8062C54.484 52.7343 54.6436 52.6285 54.7781 52.495C54.9126 52.3615 55.0194 52.2028 55.0925 52.0281C55.1656 51.8533 55.2035 51.6659 55.2041 51.4766L53.7664 50.0366H52.8L52.7979 52.9143Z" fill="url(#paint5_linear)"/>
<path d="M51.2119 53.5998H53.0134C53.1198 53.6004 53.2254 53.58 53.3239 53.5398C53.4224 53.4996 53.5121 53.4403 53.5876 53.3654C53.6632 53.2906 53.7233 53.2016 53.7643 53.1035C53.8054 53.0054 53.8267 52.9002 53.8269 52.7939V50.1462C53.8272 50.04 53.8066 49.9349 53.7662 49.8368C53.7258 49.7386 53.6664 49.6494 53.5914 49.5741C53.5165 49.4989 53.4274 49.4391 53.3294 49.3983C53.2313 49.3574 53.1261 49.3362 53.0198 49.3359H51.2162L51.2119 53.5998Z" fill="black"/>
<path d="M53.8308 51.3454V52.8004C53.8306 52.9067 53.8093 53.0119 53.7682 53.11C53.7272 53.208 53.6671 53.2971 53.5915 53.3719C53.516 53.4468 53.4263 53.506 53.3278 53.5463C53.2293 53.5865 53.1237 53.6069 53.0173 53.6063H51.2158V51.3433L53.8308 51.3454Z" fill="url(#paint6_linear)"/>
<path d="M53.8269 52.8002V51.3796L51.7952 49.3379H51.2248L51.2119 53.604H53.0134C53.1197 53.6045 53.225 53.5842 53.3234 53.5441C53.4218 53.504 53.5113 53.445 53.5869 53.3703C53.6624 53.2957 53.7225 53.2069 53.7637 53.1091C53.8049 53.0113 53.8264 52.9063 53.8269 52.8002Z" fill="black"/>
<path d="M50.8824 46.8838H49.4683C49.2221 46.8832 48.9857 46.9802 48.811 47.1534C48.6363 47.3267 48.5375 47.5621 48.5364 47.8079L48.5127 55.115C48.5121 55.2372 48.5357 55.3582 48.582 55.4712C48.6284 55.5842 48.6966 55.6869 48.7827 55.7736C48.8689 55.8602 48.9714 55.929 49.0842 55.9761C49.197 56.0231 49.3181 56.0475 49.4403 56.0478H50.8544C50.9765 56.0481 51.0975 56.0243 51.2104 55.9779C51.3233 55.9315 51.4259 55.8634 51.5125 55.7774C51.599 55.6913 51.6677 55.5892 51.7147 55.4766C51.7617 55.3641 51.7861 55.2434 51.7863 55.1215L51.81 47.8144C51.8106 47.6924 51.787 47.5715 51.7406 47.4586C51.6943 47.3457 51.626 47.2431 51.5398 47.1566C51.4536 47.0701 51.3512 47.0015 51.2384 46.9547C51.1255 46.9079 51.0046 46.8838 50.8824 46.8838Z" fill="black"/>
<path d="M51.7992 51.339L51.7863 55.1258C51.7861 55.2477 51.7617 55.3684 51.7147 55.4809C51.6677 55.5934 51.599 55.6956 51.5125 55.7816C51.4259 55.8677 51.3233 55.9358 51.2104 55.9822C51.0975 56.0286 50.9765 56.0523 50.8544 56.052H49.4403C49.3182 56.0518 49.1974 56.0275 49.0847 55.9806C48.972 55.9336 48.8696 55.865 48.7835 55.7786C48.6974 55.6922 48.6291 55.5897 48.5826 55.4769C48.5362 55.3642 48.5124 55.2434 48.5127 55.1215L48.5256 51.3325L51.7992 51.339Z" fill="url(#paint7_linear)"/>
<path d="M49.7029 46.8794H49.4683C49.2221 46.8788 48.9857 46.9758 48.811 47.149C48.6363 47.3223 48.5375 47.5577 48.5364 47.8035L48.5127 55.1106C48.5121 55.2327 48.5357 55.3538 48.582 55.4668C48.6284 55.5798 48.6966 55.6825 48.7828 55.7692C48.8689 55.8558 48.9714 55.9246 49.0842 55.9717C49.197 56.0187 49.3181 56.0431 49.4403 56.0434H50.8544C50.9765 56.0437 51.0975 56.0199 51.2104 55.9735C51.3233 55.9271 51.426 55.859 51.5125 55.773C51.599 55.6869 51.6678 55.5848 51.7147 55.4722C51.7617 55.3597 51.7861 55.239 51.7863 55.1171L51.8057 49.0006L49.7029 46.8794Z" fill="black"/>
<path d="M48.4758 45.373H46.5968C46.2695 45.3725 45.9554 45.5016 45.7234 45.7321C45.4913 45.9626 45.3604 46.2756 45.3592 46.6024L45.3291 56.3079C45.3285 56.6347 45.4578 56.9484 45.6887 57.1801C45.9195 57.4118 46.2329 57.5426 46.5602 57.5437H48.437C48.5991 57.5443 48.7598 57.5129 48.9098 57.4514C49.0598 57.3899 49.1961 57.2995 49.3111 57.1853C49.426 57.0711 49.5173 56.9354 49.5797 56.786C49.642 56.6365 49.6743 56.4763 49.6746 56.3144L49.7047 46.6045C49.7047 46.2787 49.5754 45.9661 49.345 45.7353C49.1147 45.5044 48.8021 45.3742 48.4758 45.373Z" fill="black"/>
<path d="M49.6918 51.3328L49.6746 56.3188C49.6743 56.4807 49.642 56.641 49.5797 56.7904C49.5173 56.9399 49.426 57.0756 49.3111 57.1898C49.1961 57.3039 49.0598 57.3944 48.9098 57.4559C48.7598 57.5174 48.5991 57.5487 48.437 57.5482H46.5602C46.2329 57.547 45.9195 57.4163 45.6887 57.1846C45.4578 56.9529 45.3285 56.6392 45.3291 56.3124L45.3442 51.3242L49.6918 51.3328Z" fill="black"/>
</g>
<defs>
<linearGradient id="paint0_linear" x1="30.0351" y1="100.35" x2="32.3218" y2="102.64" gradientUnits="userSpaceOnUse">
<stop stop-color="#FF931E"/>
<stop offset="0.57" stop-color="#FF760E"/>
<stop offset="1" stop-color="#FF5D00"/>
</linearGradient>
<linearGradient id="paint1_linear" x1="34.3611" y1="93.7288" x2="35.6552" y2="94.8439" gradientUnits="userSpaceOnUse">
<stop stop-color="#9EB644"/>
<stop offset="1" stop-color="#738611"/>
</linearGradient>
<linearGradient id="paint2_linear" x1="602.003" y1="575.363" x2="595.79" y2="561.696" gradientUnits="userSpaceOnUse">
<stop stop-color="#9EB644"/>
<stop offset="1" stop-color="#738611"/>
</linearGradient>
<linearGradient id="paint3_linear" x1="778.727" y1="981.524" x2="798.312" y2="996.97" gradientUnits="userSpaceOnUse">
<stop stop-color="#9EB644"/>
<stop offset="1" stop-color="#738611"/>
</linearGradient>
<linearGradient id="paint4_linear" x1="981.787" y1="593.646" x2="985.959" y2="627.128" gradientUnits="userSpaceOnUse">
<stop stop-color="#9EB644"/>
<stop offset="1" stop-color="#738611"/>
</linearGradient>
<linearGradient id="paint5_linear" x1="41.4639" y1="48.1764" x2="34.6602" y2="45.2099" gradientUnits="userSpaceOnUse">
<stop stop-color="#E2EDF2" stop-opacity="0"/>
<stop offset="1" stop-color="#9FC7E2"/>
</linearGradient>
<linearGradient id="paint6_linear" x1="52.5514" y1="52.3279" x2="52.5442" y2="54.039" gradientUnits="userSpaceOnUse">
<stop stop-color="#3E2E28" stop-opacity="0"/>
<stop offset="1" stop-color="#503837"/>
</linearGradient>
<linearGradient id="paint7_linear" x1="1427.88" y1="-2302.68" x2="1392.03" y2="-2277.8" gradientUnits="userSpaceOnUse">
<stop stop-color="#3E2E28" stop-opacity="0"/>
<stop offset="1" stop-color="#503837"/>
</linearGradient>
<clipPath id="clip0">
<rect width="238" height="200" fill="white"/>
</clipPath>
</defs>
</svg>
