<svg width="222" height="215" viewBox="0 0 222 215" fill="none" xmlns="http://www.w3.org/2000/svg">
<g clip-path="url(#clip0)">
<path d="M126.487 182.341C125.945 182.341 125.52 181.956 125.443 181.416L123.239 164.335C123.161 163.756 123.587 163.217 124.167 163.139C124.747 163.062 125.288 163.486 125.365 164.065L127.57 181.146C127.647 181.724 127.221 182.264 126.641 182.341C126.564 182.341 126.525 182.341 126.487 182.341Z" fill="#808080"/>
<path d="M123.587 160.016C123.045 160.016 122.62 159.631 122.543 159.091L122.195 156.546C122.117 155.968 122.543 155.428 123.123 155.351C123.703 155.274 124.244 155.698 124.321 156.276L124.669 158.821C124.747 159.399 124.321 159.939 123.741 160.016C123.664 160.016 123.625 160.016 123.587 160.016Z" fill="#808080"/>
<path d="M91.5684 178.293L105.876 177.02C107.5 176.866 108.815 178.409 108.39 179.989L104.523 195.336C104.252 196.377 103.324 197.071 102.28 197.071C100.694 197.071 99.573 195.528 100.076 194.063L103.131 182.843L89.9443 184.269L91.5684 178.293Z" fill="black"/>
<path d="M87.3532 180.838C81.5915 179.681 77.8793 174.051 79.0393 168.306L81.3595 156.893C82.1715 152.96 85.9998 150.415 89.9827 151.225L92.5736 151.765C93.7723 151.996 94.5844 153.191 94.3137 154.425L89.1707 179.642C89.0547 180.491 88.204 181.03 87.3532 180.838Z" fill="black"/>
<path d="M94.3525 154.386L89.2095 179.603C89.0548 180.452 88.2041 180.991 87.3534 180.837C86.6187 180.683 85.9226 180.452 85.2266 180.182C85.7293 179.989 86.116 179.565 86.232 179.025L91.375 153.808C91.607 152.651 90.9109 151.495 89.7509 151.186C89.8282 151.186 89.9055 151.225 89.9829 151.225L92.5737 151.764C93.8111 151.996 94.6232 153.191 94.3525 154.386Z" fill="#808080"/>
<path d="M86.8126 177.907C86.5806 177.907 86.3872 177.83 86.1939 177.714C83.4484 175.671 82.095 172.2 82.791 168.846L82.8683 168.422C82.9843 167.843 83.5644 167.496 84.1058 167.612C84.6858 167.728 85.0338 168.306 84.9178 168.846L84.8405 169.27C84.3378 171.815 85.3432 174.437 87.4313 176.018C87.8953 176.365 88.0114 177.02 87.6633 177.483C87.47 177.753 87.122 177.907 86.8126 177.907Z" fill="#808080"/>
<path d="M86.0002 162.715C85.9229 162.715 85.8456 162.715 85.7682 162.677L85.4202 162.6C84.8402 162.484 84.4922 161.906 84.6082 161.366C84.7242 160.787 85.3042 160.402 85.8456 160.556L86.1936 160.633C86.7736 160.749 87.1216 161.327 87.0056 161.867C86.9283 162.368 86.4643 162.715 86.0002 162.715Z" fill="#808080"/>
<path d="M87.74 160.132C87.6627 160.132 87.5853 160.132 87.508 160.093L85.9612 159.785C85.3812 159.669 85.0332 159.091 85.1492 158.551C85.2652 157.973 85.8452 157.626 86.3866 157.741L87.9334 158.05C88.5134 158.166 88.8614 158.744 88.7454 159.284C88.6681 159.785 88.204 160.132 87.74 160.132Z" fill="#808080"/>
<path d="M143.656 170.35V212.455C143.656 213.226 143.037 213.843 142.264 213.843H81.1665C80.3931 213.843 79.7744 213.226 79.7744 212.455V210.219C79.7744 209.872 79.9291 209.486 80.1611 209.255L93.9273 195.528C94.198 195.258 94.5461 195.143 94.8941 195.143H103.788L111.174 187.778C111.445 187.508 111.793 187.392 112.141 187.392H120.377L138.397 169.424C138.668 169.154 139.016 169.039 139.364 169.039H142.187C143.037 168.962 143.656 169.579 143.656 170.35Z" fill="#632F00"/>
<path d="M120.377 187.354V198.073C120.377 198.652 119.913 199.153 119.294 199.153C118.714 199.153 118.25 198.69 118.25 198.073V187.354H120.377Z" fill="#654321"/>
<path d="M129.116 206.286C128.536 206.286 128.033 205.824 128.033 205.207V197.341C128.033 196.762 128.497 196.3 129.116 196.3C129.696 196.3 130.199 196.762 130.199 197.341V205.207C130.16 205.824 129.696 206.286 129.116 206.286Z" fill="#654321"/>
<path d="M138.088 197.379V213.844H135.961V197.379C135.961 196.801 136.425 196.3 137.044 196.3C137.662 196.3 138.088 196.801 138.088 197.379Z" fill="#654321"/>
<path d="M102.125 210.836C101.545 210.836 101.081 210.373 101.081 209.756V202.122C101.081 201.543 101.545 201.042 102.125 201.042H107.113C107.693 201.042 108.196 201.505 108.196 202.122C108.196 202.7 107.732 203.201 107.113 203.201H103.208V209.795C103.208 210.373 102.705 210.836 102.125 210.836Z" fill="#654321"/>
<path d="M117.284 206.749C116.665 206.749 116.201 206.247 116.201 205.669C116.201 205.091 116.665 204.628 117.245 204.628C117.825 204.628 118.289 205.129 118.289 205.708C118.328 206.286 117.864 206.749 117.284 206.749Z" fill="#654321"/>
<path d="M138.165 189.899C137.546 189.899 137.082 189.397 137.082 188.819C137.082 188.241 137.546 187.778 138.165 187.778C138.745 187.778 139.209 188.279 139.209 188.857C139.209 189.397 138.745 189.899 138.165 189.899Z" fill="#7F4511"/>
<path d="M98.4128 203.394C97.7941 203.394 97.3301 202.893 97.3301 202.315C97.3301 201.736 97.7941 201.273 98.3742 201.273C98.9542 201.273 99.4182 201.775 99.4182 202.353C99.4569 202.931 98.9929 203.394 98.4128 203.394Z" fill="#7F4511"/>
<path d="M93.696 206.749C93.0773 206.749 92.6133 206.247 92.6133 205.669C92.6133 205.091 93.0773 204.628 93.696 204.628C94.2761 204.628 94.7401 205.129 94.7401 205.708C94.7788 206.286 94.2761 206.749 93.696 206.749Z" fill="#7F4511"/>
<path d="M137.546 197.109H128.729C127.453 197.109 126.409 196.068 126.409 194.795C126.409 193.523 127.453 192.482 128.729 192.482H137.546C138.822 192.482 139.866 193.523 139.866 194.795C139.827 196.068 138.822 197.109 137.546 197.109Z" fill="#7F4511"/>
<path d="M119.488 164.875C120.532 164.682 121.267 163.718 121.151 162.638C121.035 161.481 120.029 160.633 118.869 160.749L101.12 162.33C99.9601 162.445 99.1094 163.448 99.2254 164.605C99.3414 165.761 100.347 166.61 101.507 166.494L119.256 164.913C119.333 164.875 119.411 164.875 119.488 164.875Z" fill="#FF0800"/>
<path d="M87.161 177.097L80.4325 203.278C80.0845 204.589 80.9352 205.939 82.2887 206.17C83.4874 206.401 84.6475 205.669 84.9955 204.473L92.1493 178.331L87.161 177.097Z" fill="black"/>
<path d="M102.049 164.566L98.839 177.213C98.5297 178.37 97.4469 179.102 96.2868 178.987L88.2823 178.1C87.4316 178.023 86.8902 177.174 87.1222 176.365L89.5197 167.573L90.1384 165.337L91.1825 161.597C91.8786 159.091 94.16 157.433 96.6349 157.433C97.1376 157.433 97.6403 157.51 98.143 157.625C101.082 158.435 102.861 161.558 102.049 164.566Z" fill="#FF0800"/>
<path d="M106.031 151.572C106.109 151.996 106.109 152.42 106.109 152.844C106.109 152.999 106.109 153.114 106.07 153.269C105.722 156.392 103.324 158.975 100.076 159.438C96.248 159.978 92.7291 157.317 92.1877 153.5C92.149 153.191 92.1104 152.883 92.1104 152.575C92.1104 152.42 92.1104 152.266 92.1104 152.112C92.149 151.572 92.2264 151.071 92.381 150.57C93.1544 148.025 95.3199 146.058 98.1041 145.673C101.855 145.171 105.297 147.678 105.954 151.379C106.031 151.456 106.031 151.495 106.031 151.572Z" fill="#FECAA8"/>
<path d="M95.8604 162.253C96.0538 163.41 95.2417 164.451 94.1203 164.643L86.0771 165.916L81.3208 171.584C80.5861 172.432 79.31 172.586 78.4206 171.854C78.4206 171.854 78.3819 171.854 78.3819 171.815C77.4925 171.083 77.3765 169.772 78.1112 168.885L83.4089 162.638C83.7183 162.253 84.1823 161.983 84.685 161.906L93.5016 160.518C94.623 160.325 95.6671 161.135 95.8604 162.253Z" fill="#FF0800"/>
<path d="M79.8521 206.98L86.8513 209.293C88.166 209.717 89.3261 208.291 88.5914 207.095C87.3153 204.936 85.2658 203.317 82.907 202.546L81.4763 202.083C80.7415 201.852 79.9682 202.237 79.7361 202.931L78.9628 205.245C78.7694 205.977 79.1561 206.748 79.8521 206.98Z" fill="#FF0800"/>
<path d="M94.3912 211.26H83.9118C83.3318 211.26 82.8291 210.797 82.8291 210.18C82.8291 209.602 83.2931 209.101 83.9118 209.101H94.4299C95.0099 209.101 95.5126 209.563 95.5126 210.18C95.4739 210.759 95.0099 211.26 94.3912 211.26Z" fill="#7F4511"/>
<path d="M113.688 201.119C113.108 201.119 112.605 200.656 112.605 200.039V197.957H108.351C107.771 197.957 107.269 197.494 107.269 196.877C107.269 196.299 107.733 195.798 108.351 195.798H113.688C114.268 195.798 114.77 196.261 114.77 196.877V200.039C114.732 200.656 114.268 201.119 113.688 201.119Z" fill="#7F4511"/>
<path d="M122.89 164.335L125.443 163.911C126.061 163.795 126.603 163.332 126.757 162.715L127.26 160.749C127.569 159.592 126.564 158.551 125.404 158.744L122.04 159.322C120.648 159.554 119.72 160.865 119.952 162.253C120.184 163.641 121.498 164.566 122.89 164.335Z" fill="#FECAA8"/>
<path d="M79.5816 173.936L78.1896 176.095C77.8415 176.635 77.2228 176.905 76.5654 176.827L74.5546 176.519C73.3946 176.365 72.7759 175.015 73.4332 174.051L75.2894 171.198C76.0627 170.003 77.6482 169.656 78.8083 170.427C80.007 171.198 80.355 172.779 79.5816 173.936Z" fill="#FECAA8"/>
<path d="M126.565 154.502C126.565 153.5 125.057 152.69 123.24 152.69C121.383 152.69 119.914 153.5 119.914 154.502C119.914 155.505 121.422 156.314 123.24 156.314C125.057 156.314 126.565 155.505 126.565 154.502Z" fill="#808080"/>
<path d="M72.6595 161.443H1.23742C0.541369 161.443 0 160.903 0 160.209C0 159.553 0.541369 158.975 1.23742 158.975H72.6595C73.3555 158.975 73.8969 159.515 73.8969 160.209C73.8969 160.903 73.3555 161.443 72.6595 161.443Z" fill="#BDC3C7"/>
<path d="M34.4931 191.865V211.761C34.5318 213.381 33.3331 214.73 31.7476 214.962C30.8969 215.039 30.0075 214.769 29.3501 214.19C28.6927 213.612 28.3447 212.802 28.3447 211.915V191.827H34.4931V191.865Z" fill="#FECAA8"/>
<path d="M45.5527 191.865V211.954C45.5527 212.802 45.166 213.651 44.5473 214.229C43.8899 214.807 43.0392 215.077 42.1498 215C40.5257 214.769 39.3656 213.419 39.4043 211.8V191.904H45.5527V191.865Z" fill="#FECAA8"/>
<path d="M45.5521 183.382V195.528H39.4037V193.099C39.4037 191.749 38.2823 190.67 36.9289 190.67C35.5755 190.67 34.4541 191.749 34.4541 193.099V195.528H28.3057V183.344L45.5521 183.382Z" fill="#808080"/>
<path d="M43.1161 150.492C43.1161 153.847 40.3706 156.584 36.9677 156.584C33.5649 156.584 30.8193 153.847 30.8193 150.492C30.8193 147.138 33.5649 144.4 36.9677 144.4C40.3706 144.4 43.1161 147.138 43.1161 150.492Z" fill="#FECAA8"/>
<path d="M57.8874 160.247V172.509C57.8874 173.511 57.462 174.475 56.7273 175.169C55.9539 175.824 54.9485 176.133 53.9045 176.017C52.8991 175.902 51.971 175.362 51.391 174.552L48.2201 170.542L48.0654 170.002L50.0376 163.91L50.4629 164.064L52.9764 167.535V160.247C52.9764 158.898 54.0978 157.818 55.4512 157.818C55.6446 157.818 55.8379 157.856 56.07 157.895C57.114 158.165 57.8874 159.129 57.8874 160.247Z" fill="#FECAA8"/>
<path d="M16.0088 160.247V172.509C16.0088 173.511 16.4342 174.475 17.1689 175.169C17.9423 175.825 18.9476 176.133 19.9917 176.018C20.9971 175.902 21.9252 175.362 22.5052 174.553L25.6761 170.542L25.8308 170.003L23.8973 163.872L23.4719 164.026L20.9584 167.496V160.209C20.9584 158.859 19.837 157.78 18.4836 157.78C18.2903 157.78 18.0969 157.818 17.8649 157.857C16.7822 158.165 16.0088 159.129 16.0088 160.247Z" fill="#FECAA8"/>
<path d="M62.7989 152.921H65.2738C65.9698 152.921 66.5112 153.461 66.5112 154.155V166.34C66.5112 166.995 65.9698 167.573 65.2738 167.573H62.7989C62.1029 167.573 61.5615 167.034 61.5615 166.34V154.155C61.5615 153.5 62.1416 152.921 62.7989 152.921Z" fill="#2C3E50"/>
<path d="M66.5107 155.389H70.223C70.919 155.389 71.4604 155.929 71.4604 156.623V163.872C71.4604 164.527 70.919 165.106 70.223 165.106H66.5107V155.389Z" fill="#35495E"/>
<path d="M11.098 167.535H8.62316C7.92711 167.535 7.38574 166.995 7.38574 166.301V154.117C7.38574 153.461 7.92711 152.883 8.62316 152.883H11.098C11.794 152.883 12.3354 153.423 12.3354 154.117V166.301C12.2967 166.995 11.7554 167.535 11.098 167.535Z" fill="#2C3E50"/>
<path d="M7.69574 164.528H3.82882C3.13277 164.528 2.55273 164.065 2.55273 163.448V157.047C2.55273 156.469 3.13277 155.968 3.82882 155.968H7.69574V164.528Z" fill="#35495E"/>
<path d="M50.4247 164.065L48.2979 170.465L48.1819 170.543L45.5524 167.227V183.382C45.4364 183.46 45.3591 183.498 45.243 183.575C45.127 183.614 44.9724 183.691 44.779 183.768C44.431 183.884 44.1216 183.961 43.7736 184.038C43.6189 184.076 43.4643 184.115 43.2709 184.154C42.1882 184.346 41.0668 184.462 39.984 184.501L39.288 184.539C39.056 184.539 38.8239 184.578 38.5533 184.578C38.3212 184.578 38.0506 184.578 37.7799 184.578C37.5092 184.578 37.2385 184.578 36.9292 184.578C29.5433 184.578 28.3059 183.344 28.3059 183.344V167.188L25.6764 170.504L25.5604 170.427L23.4336 164.065L25.6377 160.98C26.1791 160.479 26.9138 160.248 27.6485 160.248H46.1711C46.9058 160.248 47.6405 160.517 48.1819 160.98L50.4247 164.065Z" fill="#FF0800"/>
<path d="M180.083 149.143C178.923 147.716 176.68 147.832 175.675 149.374L167.09 162.291C166.239 163.563 166.587 165.26 167.863 166.07C169.139 166.918 170.841 166.571 171.653 165.298L178.188 155.466L183.679 162.175C183.679 162.175 172.929 167.265 165.814 170.658C163.03 171.969 161.135 174.63 160.748 177.676L156.727 210.103C156.456 212.262 158.157 214.19 160.362 214.19C162.179 214.19 163.764 212.841 163.996 210.99L168.25 179.179L172.04 183.999L180.353 211.607C180.934 213.535 183.022 214.653 184.955 214.036C186.889 213.419 187.894 211.337 187.314 209.447L179.271 182.765L189.673 177.483L186.889 189.282C186.811 189.551 186.811 189.821 186.811 190.091L187.701 203.008C187.817 204.512 189.093 205.669 190.639 205.553C192.148 205.437 193.308 204.165 193.192 202.623L192.341 190.091L195.473 176.943C195.782 175.632 195.628 174.244 195.086 173.01L188.899 159.746L180.083 149.143Z" fill="#B75D3D"/>
<path d="M168.212 179.18L172.001 183.999C172.427 185.349 174.399 191.981 174.747 193.138L181.978 191.865L179.232 182.765L165.814 170.697C163.03 172.008 161.135 174.668 160.749 177.714L158.97 191.904L166.356 193.022C166.936 188.549 167.67 183.19 168.212 179.18Z" fill="#808080"/>
<path d="M179.193 182.688L189.595 177.406L187.778 185.04L193.191 185.966C193.423 185.002 194.97 178.447 195.357 176.904C195.666 175.594 195.511 174.205 194.97 172.972L193.655 170.118C191.645 171.121 189.44 169.617 189.324 167.419C189.286 166.224 190.059 165.183 191.103 164.682L188.783 159.708L183.137 152.806L179.386 156.854L183.679 162.098C183.679 162.098 172.929 167.188 165.813 170.581L179.193 182.688Z" fill="black"/>
<path d="M199.34 169.656C202.842 169.656 205.682 166.825 205.682 163.332C205.682 159.84 202.842 157.009 199.34 157.009C195.837 157.009 192.998 159.84 192.998 163.332C192.998 166.825 195.837 169.656 199.34 169.656Z" fill="#B75D3D"/>
<path d="M158.814 120.918C152.086 120.918 146.672 126.355 146.672 133.025C146.672 139.734 152.124 145.132 158.814 145.132C165.504 145.132 170.956 139.696 170.956 133.025C170.956 126.355 165.504 120.918 158.814 120.918ZM158.814 140.775C154.56 140.775 151.08 137.305 151.08 133.064C151.08 128.822 154.56 125.352 158.814 125.352C163.068 125.352 166.548 128.822 166.548 133.064C166.548 137.305 163.068 140.775 158.814 140.775Z" fill="black"/>
<path d="M121.228 120.918C114.5 120.918 109.086 126.355 109.086 133.025C109.086 139.734 114.538 145.132 121.228 145.132C127.918 145.132 133.37 139.696 133.37 133.025C133.409 126.355 127.957 120.918 121.228 120.918ZM121.228 140.775C116.974 140.775 113.494 137.305 113.494 133.064C113.494 128.822 116.974 125.352 121.228 125.352C125.482 125.352 128.962 128.822 128.962 133.064C128.962 137.305 125.52 140.775 121.228 140.775Z" fill="black"/>
<path d="M137.818 136.341C137.779 136.341 137.702 136.341 137.663 136.341L121.113 134.144C120.494 134.066 120.068 133.527 120.146 132.91C120.146 132.794 120.223 132.64 120.262 132.524L129.117 116.021C129.31 115.674 129.697 115.443 130.084 115.443H151.081V117.641H130.741L122.969 132.177L137.354 134.105L151.313 118.026L152.976 119.453L138.63 135.956C138.436 136.226 138.127 136.341 137.818 136.341Z" fill="#D1D1CF"/>
<path d="M128.874 111.667L126.849 112.533L136.795 135.675L138.821 134.809L128.874 111.667Z" fill="#D1D1CF"/>
<path d="M157.809 133.488L147.871 111.472C147.639 110.932 147.871 110.276 148.412 110.006C148.567 109.929 148.722 109.891 148.876 109.891H158.814C161.25 109.891 163.223 111.857 163.223 114.286C163.223 116.715 161.25 118.682 158.814 118.682H155.489V116.484H158.814C160.052 116.484 161.018 115.482 161.018 114.286C161.018 113.052 160.013 112.088 158.814 112.088H150.578L159.82 132.563L157.809 133.488Z" fill="#D1D1CF"/>
<path d="M137.816 139.657C135.38 139.657 133.408 137.69 133.408 135.261C133.408 132.832 135.38 130.866 137.816 130.866C140.253 130.866 142.225 132.832 142.225 135.261C142.225 137.69 140.253 139.657 137.816 139.657ZM137.816 133.064C136.579 133.064 135.612 134.066 135.612 135.261C135.612 136.495 136.618 137.459 137.816 137.459C139.054 137.459 140.021 136.457 140.021 135.261C140.021 134.027 139.015 133.064 137.816 133.064Z" fill="#D1D1CF"/>
<path d="M151.081 81.2803C153.517 81.2803 155.489 83.2467 155.489 85.6759V88.9919C155.489 91.421 153.517 93.3875 151.081 93.3875C148.645 93.3875 146.672 91.421 146.672 88.9919V85.6759C146.634 83.2467 148.645 81.2803 151.081 81.2803Z" fill="#FEC9A3"/>
<path d="M137.817 136.341L146.634 137.46V135.262L143.347 133.064L138.088 131.984L137.817 136.341Z" fill="#FF0800"/>
<path d="M138.9 118.72L138.049 131.984L143.308 133.025L145.164 118.142C145.357 116.484 144.584 114.865 143.115 114.016L137.624 110.816L134.221 116.831L138.9 118.72Z" fill="#FEC9A3"/>
<path d="M122.35 108.001C122.35 110.507 123.858 112.744 126.217 113.669L134.298 116.908L137.701 110.893L132.288 107.77V105.572H122.35V108.001Z" fill="#545454"/>
<path d="M151.08 97.5903C151.08 96.3179 150.539 95.1226 149.572 94.2743L145.899 91.074C143.733 89.1846 140.562 88.9147 138.087 90.4185L126.603 97.4361C123.973 99.0555 122.388 101.87 122.388 104.955V105.533H132.326V103.335L144.468 98.9398L145.589 100.058V104.454H151.119V97.5903H151.08Z" fill="#FF0800"/>
<path d="M151.08 107.731V104.415H145.551V109.659C145.551 111.086 146.595 112.281 148.026 112.512L157.693 113.9L158.814 115.481H162.14V111.086L151.08 107.731Z" fill="#FEC9A3"/>
<path d="M148.838 81.2803H151.042C153.478 81.2803 155.45 83.2467 155.45 85.6759H144.391C144.429 83.2467 146.401 81.2803 148.838 81.2803Z" fill="#FF0800"/>
<path d="M53.5573 142.395C52.0106 141.316 51.6239 139.195 52.7066 137.653L60.0151 127.088L62.1806 114.711C62.4899 112.86 64.2687 111.626 66.1248 111.934C67.9809 112.243 69.2184 114.017 68.909 115.867L66.5888 128.977C66.5115 129.478 66.3182 129.941 66.0475 130.327L58.3136 141.508C57.2309 143.089 55.1041 143.475 53.5573 142.395Z" fill="#B75D3D"/>
<path d="M78.4992 143.012C76.4111 143.012 74.8257 141.2 75.0963 139.156L76.6818 126.586L70.9974 117.024C70.0307 115.404 70.572 113.322 72.1961 112.358C73.8203 111.394 75.9084 111.934 76.8751 113.554L83.1395 124.119C83.5262 124.774 83.6809 125.545 83.6036 126.278L81.8635 140.005C81.6701 141.778 80.2007 143.012 78.4992 143.012Z" fill="#B75D3D"/>
<path d="M68.9092 115.905C69.2185 114.055 67.9811 112.281 66.125 111.973C64.2689 111.664 62.4901 112.898 62.1807 114.749L60.3633 125.121L67.0917 126.47C67.2851 125.198 68.6385 117.486 68.9092 115.905Z" fill="#808080"/>
<path d="M76.1398 125.699L82.5976 123.155L76.9132 113.554C75.9465 111.934 73.8583 111.394 72.2342 112.358C70.6101 113.322 70.0688 115.404 71.0355 117.024C72.5049 119.569 74.6704 123.193 76.1398 125.699Z" fill="#808080"/>
<path d="M99.767 100.559C99.6123 99.1712 98.2976 98.1687 96.9055 98.3229L87.4315 99.4797L81.7858 93.1947C80.9737 92.2693 79.8523 91.691 78.6149 91.5367C75.212 91.1126 70.2624 90.5342 66.6275 90.0715C65.158 89.8787 63.7273 90.3029 62.5672 91.2283L56.5735 96.1251C55.9161 96.6649 55.5681 97.4747 55.6454 98.3229L56.8828 112.551C56.9988 113.978 58.2362 115.019 59.667 114.864C61.0978 114.749 62.1418 113.515 61.9872 112.088L60.8657 99.2098L64.346 96.3565C63.8046 100.598 62.3352 112.397 61.7938 116.677L70.9584 116.985L77.3388 114.363L79.3496 98.2073L84.4153 103.875C84.9567 104.492 85.8074 104.801 86.6581 104.724L97.4855 103.413C98.9163 103.258 99.9217 101.986 99.767 100.559Z" fill="#B75D3D"/>
<path d="M81.7853 93.1947C80.9732 92.2693 79.8518 91.691 78.6144 91.5367C77.6477 91.421 76.5649 91.3054 75.4435 91.1511C75.2888 92.5778 73.9354 93.696 72.5433 93.696C70.7259 93.696 69.4885 92.038 69.6431 90.4185C68.5991 90.3029 67.5937 90.1486 66.6656 90.0715C65.1962 89.8787 63.7654 90.3029 62.6053 91.2283L57.8877 95.0841L61.4839 98.7471L64.3841 96.3565C63.8428 100.598 62.3733 112.397 61.832 116.677L70.9966 116.985L77.377 114.363L79.3878 98.2073L81.5919 100.675L85.1495 96.9734L81.7853 93.1947Z" fill="black"/>
<path d="M73.7031 88.6835C76.992 88.6835 79.6582 86.025 79.6582 82.7456C79.6582 79.4661 76.992 76.8076 73.7031 76.8076C70.4142 76.8076 67.748 79.4661 67.748 82.7456C67.748 86.025 70.4142 88.6835 73.7031 88.6835Z" fill="#B75D3D"/>
<path d="M108.158 104.569C109.46 104.569 110.516 103.516 110.516 102.217C110.516 100.918 109.46 99.8652 108.158 99.8652C106.855 99.8652 105.799 100.918 105.799 102.217C105.799 103.516 106.855 104.569 108.158 104.569Z" fill="#CDEF07"/>
<path d="M105.335 91.8842C106.572 88.4526 105.18 84.7895 102.203 83.7099C99.2252 82.6303 95.8223 84.5582 94.5462 88.0284C93.6568 90.4576 94.0822 93.0024 95.4743 94.6604C95.9383 95.2388 96.093 96.0485 95.8223 96.7426L93.4635 103.22C93.3088 103.606 93.5408 104.069 93.9275 104.184L95.3583 104.724C95.745 104.878 96.209 104.647 96.325 104.261L98.6838 97.7836C98.9545 97.0896 99.5732 96.5498 100.308 96.3955C102.512 95.9714 104.446 94.3134 105.335 91.8842Z" fill="#808080"/>
<path d="M95.8614 96.7036L93.5026 103.181C93.3479 103.567 93.5799 104.03 93.9666 104.145L95.3973 104.685C95.784 104.839 96.2481 104.608 96.3641 104.222L98.7229 97.7447L95.8614 96.7036Z" fill="black"/>
<path d="M129.89 26.3738C129.89 26.3738 123.587 28.8801 118.521 21.3227H117.245V16.2716C117.245 16.2716 118.792 12.1459 121.963 11.2205C124.824 10.3722 128.382 12.9941 126.1 17.544C124.824 20.0503 126.99 25.834 129.89 26.3738Z" fill="#AD6947"/>
<path d="M114.731 27.569C114.538 27.6075 111.831 27.6075 111.637 27.6075C108.312 27.4533 105.721 24.6385 105.876 21.284C105.721 17.968 108.312 15.1533 111.637 14.999C111.831 14.999 114.576 14.999 114.731 15.0376V27.569Z" fill="#FCB892"/>
<path d="M150.733 69.8673C150.733 71.6024 149.302 73.0291 147.562 73.0291H141.259V66.7056H147.562C149.341 66.7056 150.733 68.1322 150.733 69.8673Z" fill="#FECAA8"/>
<path d="M95.3194 66.6284L95.126 70.06C95.01 71.718 93.6566 73.029 91.9552 73.029H91.7618C90.0217 72.9133 88.6683 71.4481 88.7843 69.713L89.055 65.4331L89.4417 64.1992L94.5073 65.4716L95.3194 66.6284Z" fill="#FECAA8"/>
<path d="M118.522 42.7612V45.9616C120.262 47.581 121.19 49.8559 121.035 52.208C121.035 53.6346 120.764 55.0227 120.184 56.2951L126.603 66.7058H143.811V73.0293H124.863C123.781 73.0293 122.737 72.451 122.157 71.5256L112.721 56.2566L96.1708 52.4008L95.3201 66.6673L89.4424 65.5105L89.0557 65.472L90.0611 48.3136C90.0997 47.3882 90.5638 46.5399 91.3371 45.9616C92.0719 45.4217 93.0386 45.1904 93.9667 45.4217L106.844 48.4293L108.39 48.7763L107.849 46.0772L107.192 42.7998H118.522V42.7612Z" fill="#FF0800"/>
<path d="M108.313 48.7376L107.771 46.0386L111.213 46.8868C111.832 47.0411 112.257 47.6195 112.18 48.2749C112.102 48.8919 111.561 49.3931 110.942 49.3931C110.826 49.3931 110.749 49.3931 110.633 49.3546L108.313 48.7376Z" fill="#808080"/>
<path d="M118.521 3.16176V33.9311C113.455 36.4374 112.218 31.4249 112.218 31.4249V3.16176C112.218 1.42665 113.649 0 115.389 0C117.09 0 118.521 1.42665 118.521 3.16176Z" fill="#FECAA8"/>
<path d="M118.521 33.9311V42.7609C113.456 45.2672 107.152 42.7609 107.152 42.7609L106.495 39.4834C106.224 37.8254 106.804 36.1289 108.042 34.9721C109.163 33.5841 110.594 32.5044 112.218 31.7718V31.4248C112.179 31.4248 113.456 36.4374 118.521 33.9311Z" fill="black"/>
</g>
<defs>
<clipPath id="clip0">
<rect width="222" height="215" fill="white"/>
</clipPath>
</defs>
</svg>
