<svg width="150" height="150" viewBox="0 0 150 150" fill="none" xmlns="http://www.w3.org/2000/svg">
<path d="M75 150C116.421 150 150 116.421 150 75C150 33.5786 116.421 0 75 0C33.5786 0 0 33.5786 0 75C0 116.421 33.5786 150 75 150Z" fill="white"/>
<path d="M45.1126 101C49.0525 101 52.9925 101 56.9325 101L57 101.762L51.2139 110L45 101.678L45.1126 101Z" fill="#B3B3B3"/>
<path d="M45.4179 101.215L45.3062 105.488L37 109.461V122.239C37.8262 122.84 38.6523 123.442 39.5231 124H51H65V109.461L57.2743 105.274L56.8501 101L45.4179 101.215Z" fill="#FFB69E"/>
<path d="M41.0858 105.211L43.052 104.445L44.6426 103.022L50.2541 107.224H51.6459L57.2573 103L60.8142 105.189L67 115.607L63.3769 135C52.1982 133.008 42.1683 127.777 34.3034 120.313L33 116.439L41.0858 105.211Z" fill="#939393"/>
<path d="M59.4478 103.562L57.1826 100.764L52.0527 106.96L56.4498 111.845L59.4478 103.562Z" fill="#B5B5B5"/>
<path d="M43.2363 103.518L45.5237 100.764L50.6536 106.96L46.0789 111.801L43.2363 103.518Z" fill="#B5B5B5"/>
<path d="M43.2475 104L28.3393 108.948C27.7246 109.149 27.3513 109.664 27.2196 110.313L27 111.5C32.511 119.806 40.0858 126.567 49 131L43.2475 104Z" fill="white"/>
<path d="M43.2532 104L41.5358 104.538L37 112.402L42.7248 112.582L39.2018 114.621L45.7193 129.23C46.7982 129.857 47.8771 130.44 49 131L43.2532 104Z" fill="#EEF3F7"/>
<path d="M59.3328 104L74.6898 108.943C75.3231 109.146 75.7076 109.666 75.8433 110.32L81 136.594C78.7383 136.865 76.454 137 74.1018 137C72.3603 137 70.6414 136.91 68.9225 136.774L67.8142 133.027C67.7916 132.937 67.7011 132.892 67.6107 132.892C67.5202 132.892 67.4523 132.982 67.4523 133.05L67.3166 136.594C62.3183 136.007 57.5234 134.811 53 133.027L59.3328 104Z" fill="#EEF3F7"/>
<path d="M53.5024 133L54 130.73L52.2701 108.467L53.218 108.078L52.2227 107H50.7299L49.7109 108.055L50.6825 108.467L49 130.891L49.0474 131.074C50.4929 131.785 51.9858 132.427 53.5024 133Z" fill="black"/>
<path d="M95.2049 105L93.4905 108.195L88 108.813L90.0616 124C98.1128 123.02 105.578 121.55 112.24 119.655L113 109.004L109.528 108.493L107.835 105.149L95.2049 105Z" fill="#FFB69E"/>
<path d="M91.1561 116C97.5329 118.961 104.088 119.579 111 116.17L110.933 122.519C105.158 127.206 98.4025 130.806 91 133L91.1561 116Z" fill="#B5B5B5"/>
<path d="M108.166 105L119.015 108.031C120.083 108.365 121.129 108.833 122 109.435C117.054 117.546 110.17 124.298 102 129L108.166 105Z" fill="#EEF3F7"/>
<path d="M107.993 104.717L109.459 105.294L114.433 112.756L108.593 112.667L112.212 114.599L103.929 127.48C103.241 127.901 102.53 128.323 101.819 128.723L107.993 104.717Z" fill="white"/>
<path d="M95.1575 104.672L84.0316 107.493C81.1447 108.337 78.5464 109.98 78.4131 113.022L77.3916 135.896C80.2786 135.718 83.0989 135.341 85.8526 134.741L86.3856 127.679L87.2295 134.43C91.8486 133.32 96.2679 131.654 100.376 129.478L95.1575 104.672Z" fill="white"/>
<path d="M95.1667 105L93.5417 105.66L89 112.872H94.4792L91.0625 114.719L99.3125 130C99.5417 129.868 99.7708 129.758 100 129.626L95.1667 105Z" fill="#EEF3F7"/>
<path d="M94.0974 129.152L95.3751 128.884C95.9259 128.772 96.3665 128.459 96.6529 128.013C96.9393 127.588 97.0715 127.03 96.9613 126.472L95.4633 118.789C94.8905 115.886 92.6654 114.412 90.1098 114.077C89.1405 113.943 88.1051 113.987 87.1137 114.188C86.1223 114.389 85.153 114.747 84.2938 115.238C82.0687 116.533 80.5486 118.767 81.1214 121.67L82.6195 129.353C82.7296 129.911 83.038 130.358 83.4787 130.648C83.8972 130.938 84.448 131.072 84.9988 130.961L86.2765 130.693L86.1664 130.157L84.8886 130.425C84.4921 130.514 84.0955 130.402 83.7871 130.201C83.4787 129.978 83.2363 129.643 83.1482 129.241L81.6281 121.581C81.1214 118.945 82.4873 116.913 84.5361 115.729C85.3513 115.26 86.2545 114.925 87.2018 114.747C88.1491 114.568 89.1185 114.523 90.0438 114.635C92.379 114.925 94.4278 116.288 94.9345 118.901L96.4326 126.583C96.5207 126.985 96.4106 127.387 96.2123 127.7C95.992 128.013 95.6615 128.258 95.265 128.348L93.9872 128.616L94.0974 129.152Z" fill="#EAEAEA"/>
<path d="M96 120.07L95.7657 118.893C95.1329 115.919 92.6958 114.409 89.9071 114.076C88.8526 113.943 87.7277 113.987 86.6497 114.187C85.5718 114.387 84.5172 114.742 83.6033 115.253C81.1661 116.562 79.5023 118.849 80.135 121.823L80.3694 123L81.3067 122.822L81.0724 121.646C80.5334 119.115 81.9629 117.162 84.072 116.03C84.9156 115.586 85.853 115.253 86.8372 115.075C87.8215 114.897 88.8291 114.853 89.7899 114.964C92.2037 115.253 94.3127 116.54 94.8283 119.071L95.0626 120.247L96 120.07Z" fill="#4D4D4D"/>
<path d="M84.9191 130.766L85.6076 130.633C85.7852 130.833 86.0517 130.922 86.3182 130.877C86.7179 130.788 87.0066 130.389 86.9178 129.989C86.829 129.589 86.4292 129.323 86.0295 129.389C85.763 129.434 85.5409 129.634 85.4521 129.878L84.7637 130.011L84.9191 130.766Z" fill="black"/>
<path d="M94.3792 128.879L93.6908 129.012C93.6019 129.256 93.4021 129.456 93.1134 129.5C92.7136 129.589 92.3139 129.323 92.2251 128.901C92.1362 128.501 92.4027 128.101 92.8247 128.012C93.0912 127.968 93.3577 128.057 93.5353 128.257L94.2238 128.123L94.3792 128.879Z" fill="black"/>
<path d="M87 113.714L86.8 112L86.4 112.143L86 112.286L86.2 114C86.35 113.914 86.5 113.857 86.65 113.8C86.7833 113.771 86.8833 113.743 87 113.714Z" fill="#666666"/>
<path d="M93.5365 105.294C93.5143 105.294 85.3642 105.361 86.7411 112.489L85.986 112.645C84.4315 104.628 93.4921 104.539 93.5143 104.539L93.5365 105.294Z" fill="#4D4D4D"/>
<path d="M109.792 104.561C111.124 104.606 113.678 104.961 115.654 107.36C116.898 108.892 117.92 111.224 118.186 114.843C117.942 115.132 117.72 115.421 117.475 115.71C117.298 111.823 116.321 109.38 115.055 107.848C113.278 105.694 110.969 105.361 109.77 105.316L109.792 104.561Z" fill="#4D4D4D"/>
<path d="M48.3582 33H78.6194C80.474 33 82 34.5231 82 36.3741V56.2441C82 58.0952 80.474 59.6183 78.6194 59.6183H54.1804C52.7013 62.6175 45.5645 64 45.5645 64C45.5645 64 47.7948 62.2192 49.0625 59.6183H48.3817C46.527 59.6183 45.0011 58.0952 45.0011 56.2441V36.3741C44.9541 34.5231 46.4801 33 48.3582 33Z" fill="#D0D0D0"/>
<path d="M86.5 36C96.7036 36 105 42.5617 105 50.6686C105 55.3284 102.258 59.4651 98.0148 62.1516C99.0161 65.5513 102.091 68 102.091 68C102.091 68 95.8215 66.7875 93.7236 64.1724C91.5064 64.9331 89.0509 65.3373 86.5 65.3373C76.2964 65.3373 68 58.7756 68 50.6686C68 42.5617 76.2964 36 86.5 36Z" fill="black"/>
<path d="M47.916 37.8065H69.1919V39.126H47.916V37.8065ZM47.916 46.1001H63.49V47.4195H47.916V46.1001ZM47.916 41.9533H69.1919V43.2727H47.916V41.9533Z" fill="#FEFEFE"/>
<path d="M76.7549 45.7938H98.0308V47.1133H76.7549V45.7938ZM76.7549 54.0638H92.3289V55.3833H76.7549V54.0638ZM76.7549 49.9171H98.0308V51.2365H76.7549V49.9171Z" fill="#FEFEFE"/>
<path d="M51.5 99C56.7467 99 61 94.7467 61 89.5C61 84.2533 56.7467 80 51.5 80C46.2533 80 42 84.2533 42 89.5C42 94.7467 46.2533 99 51.5 99Z" fill="#FFB69E"/>
<path d="M101.5 103C106.747 103 111 98.7467 111 93.5C111 88.2533 106.747 84 101.5 84C96.2533 84 92 88.2533 92 93.5C92 98.7467 96.2533 103 101.5 103Z" fill="#FFB69E"/>
<path d="M59.4423 104L60.4352 104.292L66 112.413L59.9964 112.592L63.6909 114.633L54.8472 133.5C54.2238 133.298 53.6004 133.074 53 132.827L59.4423 104Z" fill="white"/>
</svg>
