<svg width="150" height="150" viewBox="0 0 150 150" fill="none" xmlns="http://www.w3.org/2000/svg">
<path d="M75 149.999C116.421 149.999 150 116.42 150 74.9993C150 33.5783 116.421 0 75 0C33.5787 0 0 33.5783 0 74.9993C0 116.42 33.5787 149.999 75 149.999Z" fill="white"/>
<g clip-path="url(#clip0)">
<path d="M111.977 78.506L101.16 77.6661L90.3427 78.506C89.3725 78.5784 88.6484 79.4256 88.7208 80.3958C88.7932 81.3661 89.6404 82.0901 90.6106 82.0177L101.16 81.185C112.397 82.0684 111.709 82.0249 111.847 82.0249C112.759 82.0249 113.527 81.3226 113.599 80.4031C113.672 79.4256 112.948 78.5857 111.977 78.506Z" fill="#80391B"/>
<path d="M86.5708 73.1842L87.7003 73.2277C87.7799 73.1842 87.8668 73.1335 87.9392 73.0756L93.9778 68.6299C94.5064 68.2389 94.8177 67.6235 94.8177 66.9646V59.7675C94.825 59.362 95.187 59.0145 95.6142 59.0145H95.6794V73.539L106.62 73.5463V59.0145H106.685C107.112 59.0145 107.481 59.3548 107.481 59.7675V66.9646C107.481 67.6235 107.793 68.2389 108.321 68.6299L114.36 73.0756C114.44 73.1335 114.519 73.1842 114.606 73.2277L115.736 73.1842C116.04 73.1335 116.337 73.148 116.619 73.1987C116.858 73.0611 117.075 72.8729 117.249 72.6339C117.922 71.7144 117.727 70.4183 116.807 69.745L111.609 65.9147V59.753V59.7458C111.594 57.0668 109.386 54.8801 106.678 54.8801C105.425 54.8801 96.8596 54.8801 95.607 54.8801C92.899 54.8801 90.6906 57.0595 90.6762 59.7458V59.753V65.9147L85.4775 69.745C84.2755 70.6356 84.3841 72.4602 85.6729 73.1987C85.9771 73.148 86.2739 73.1335 86.5708 73.1842Z" fill="#80391B"/>
<path d="M116.808 73.2422C116.822 73.2422 116.829 73.2494 116.844 73.2494C116.829 73.2494 116.822 73.2422 116.808 73.2422Z" fill="#80391B"/>
<path d="M101.161 53.5117C103.524 53.5117 105.44 51.5959 105.44 49.2325C105.44 46.8692 103.524 44.9534 101.161 44.9534C98.7977 44.9534 96.8818 46.8692 96.8818 49.2325C96.8818 51.5959 98.7977 53.5117 101.161 53.5117Z" fill="#80391B"/>
<path d="M106.699 54.8801H103.499C103.542 56.1834 102.333 57.284 101.073 57.284C99.719 57.284 98.7126 56.1834 98.6474 54.8801H95.6281C92.9201 54.8801 90.7117 57.0595 90.6973 59.7458V64.177H94.8316V59.7603C94.8389 59.3548 95.2009 59.0072 95.6281 59.0072H95.6933V73.5245L106.634 73.5463V59.0145H106.699C107.126 59.0145 107.495 59.3548 107.495 59.7675V64.1842H111.63V59.753C111.615 57.0595 109.4 54.8801 106.699 54.8801Z" fill="black"/>
<path d="M118.624 75.1246C118.393 74.1254 117.589 73.3869 116.64 73.1986C116.358 73.1407 116.061 73.1335 115.757 73.1842L114.628 73.2276L106.641 73.5462L95.7008 73.5389L87.7072 73.2276L86.5777 73.1842C86.2808 73.1407 85.984 73.148 85.6943 73.2059C84.7096 73.4014 83.9132 74.1616 83.6959 75.1753C83.4063 76.551 84.2824 77.8977 85.6581 78.1874L99.4441 81.1053C100.523 81.337 101.638 81.3442 102.724 81.127L116.669 78.1874C118.031 77.8905 118.943 76.5365 118.624 75.1246Z" fill="black"/>
<path d="M45.7405 82.0758C44.401 81.7644 43.5756 80.4177 43.8869 79.0854L48.7091 58.5729C49.0205 57.2334 50.3672 56.408 51.6995 56.7193C53.039 57.0307 53.8644 58.3774 53.553 59.7097L48.7381 80.2222C48.4195 81.5617 47.08 82.3871 45.7405 82.0758Z" fill="#FFB69E"/>
<path d="M59.1213 80.2222L54.299 59.7097C53.9877 58.3702 54.8131 57.0307 56.1526 56.7193C57.4921 56.408 58.8316 57.2334 59.143 58.5729L63.9652 79.0854C64.2765 80.4249 63.4511 81.7644 62.1116 82.0758C60.7793 82.3871 59.4398 81.5689 59.1213 80.2222Z" fill="#FFB69E"/>
<path d="M51.6413 67.8776L53.5601 59.7103C53.8714 58.3708 53.046 57.0313 51.7065 56.7199C50.367 56.4086 49.0274 57.234 48.7161 58.5735L46.7539 66.9291L51.6413 67.8776Z" fill="#909090"/>
<path d="M56.2178 67.8769L61.069 66.7691L59.143 58.5656C58.8317 57.2261 57.4849 56.4007 56.1526 56.712C54.8131 57.0234 53.9877 58.3701 54.299 59.7024L56.2178 67.8769Z" fill="#909090"/>
<path d="M75.7826 41.2172C75.4061 40.2253 74.3055 39.7329 73.3136 40.1094L66.9853 42.5133L59.419 41.9196H48.4423L40.8759 42.5133L34.5477 40.1094C33.5557 39.7329 32.4552 40.2325 32.0787 41.2172C31.7022 42.2092 32.2018 43.3098 33.1865 43.6863L39.9129 46.2422C40.1736 46.3435 40.456 46.387 40.7456 46.358L48.4351 45.7498V59.7024H59.4262V45.7498L67.1157 46.358C67.3908 46.3798 67.6732 46.3435 67.9483 46.2422L74.6748 43.6863C75.6595 43.3098 76.1591 42.202 75.7826 41.2172Z" fill="#FFB69E"/>
<path d="M59.4259 41.9124H56.0518C56.0953 43.107 54.9874 44.1135 53.829 44.1135C52.5908 44.1135 51.6713 43.107 51.6061 41.9124H48.4348L43.3809 42.3106V46.1481L48.4348 45.7498V59.7024H59.4259V45.7498L64.5377 46.1553V42.3178L59.4259 41.9124Z" fill="#FF0800"/>
<path d="M53.9308 40.6018C56.3061 40.6018 58.2316 38.6762 58.2316 36.3009C58.2316 33.9256 56.3061 32 53.9308 32C51.5555 32 49.6299 33.9256 49.6299 36.3009C49.6299 38.6762 51.5555 40.6018 53.9308 40.6018Z" fill="#FFB69E"/>
<path d="M35.7205 38.5812L31.4648 44.0865L33.3496 45.5435L37.6052 40.0382L35.7205 38.5812Z" fill="#D0D0D0"/>
<path d="M31.9694 47.3499C33.0571 47.3499 33.9389 46.4681 33.9389 45.3804C33.9389 44.2928 33.0571 43.411 31.9694 43.411C30.8817 43.411 30 44.2928 30 45.3804C30 46.4681 30.8817 47.3499 31.9694 47.3499Z" fill="black"/>
<path d="M37.2477 40.5221C38.3354 40.5221 39.2172 39.6404 39.2172 38.5527C39.2172 37.465 38.3354 36.5833 37.2477 36.5833C36.1601 36.5833 35.2783 37.465 35.2783 38.5527C35.2783 39.6404 36.1601 40.5221 37.2477 40.5221Z" fill="black"/>
<path d="M72.1465 38.5342L70.2617 39.9911L74.5173 45.4964L76.4021 44.0395L72.1465 38.5342Z" fill="#D0D0D0"/>
<path d="M75.8913 47.3065C76.979 47.3065 77.8607 46.4248 77.8607 45.3371C77.8607 44.2494 76.979 43.3677 75.8913 43.3677C74.8036 43.3677 73.9219 44.2494 73.9219 45.3371C73.9219 46.4248 74.8036 47.3065 75.8913 47.3065Z" fill="black"/>
<path d="M70.6198 40.4788C71.7075 40.4788 72.5892 39.597 72.5892 38.5093C72.5892 37.4217 71.7075 36.5399 70.6198 36.5399C69.5321 36.5399 68.6504 37.4217 68.6504 38.5093C68.6504 39.597 69.5321 40.4788 70.6198 40.4788Z" fill="black"/>
<path d="M35.6982 107.07V83.0748C35.6982 82.6765 36.0385 82.3507 36.4513 82.3507H72.0096C72.4223 82.3507 72.7626 82.6765 72.7626 83.0748V107.063H35.6982V107.07Z" fill="black"/>
<path d="M72.7698 107.07V110.162C72.7698 110.589 72.4295 110.936 72.0168 110.936H36.4513C36.0385 110.936 35.6982 110.589 35.6982 110.162V107.07H72.7698Z" fill="#E2E2E2"/>
<path d="M48.8252 116.338H59.6353L58.8678 110.929H49.5999L48.8252 116.338Z" fill="#C9C9C9"/>
<path d="M62.3438 116.338H46.125V117.112H62.3438V116.338Z" fill="#E2E2E2"/>
<path d="M71.4668 83.6469H36.9873V105.774H71.4668V83.6469Z" fill="white"/>
<path d="M81.9438 115.708L81.9365 109.293C81.9365 108.409 82.6533 107.693 83.5439 107.685L115.598 107.664C116.481 107.664 117.198 108.38 117.205 109.264L117.213 115.679C117.213 116.562 116.496 117.279 115.612 117.286L83.5584 117.308C82.6606 117.308 81.9438 116.591 81.9438 115.708Z" fill="#D0D0D0"/>
<path d="M105.991 117.293L105.983 107.678L112.399 107.671L112.406 117.286L105.991 117.293Z" fill="black"/>
<path d="M75.5219 106.092L75.5146 96.4769C75.5146 95.5936 76.2315 94.8768 77.1221 94.8695L115.591 94.8406C116.474 94.8406 117.191 95.5574 117.198 96.4407L117.206 106.056C117.206 106.94 116.489 107.656 115.606 107.664L77.1365 107.693C76.2459 107.7 75.5219 106.983 75.5219 106.092Z" fill="#FF0800"/>
<path d="M110.79 102.863V99.6555L88.3444 99.67V102.878L110.79 102.863ZM81.9365 102.885H85.1441V99.6772H81.9365V102.885Z" fill="white"/>
<path d="M85.1293 93.2621L85.1221 83.6467C85.1221 82.7634 85.8389 82.0465 86.7222 82.0393L115.576 82.0176C116.459 82.0176 117.176 82.7344 117.183 83.6177L117.191 93.2331C117.191 94.1165 116.474 94.8333 115.59 94.8405L86.7367 94.8623C85.8534 94.8695 85.1366 94.1527 85.1293 93.2621Z" fill="#D0D0D0"/>
<path d="M101.161 94.8551L101.154 82.0321L94.7384 82.0393L94.7456 94.8624L101.161 94.8551ZM91.5453 94.8624H93.1527L93.1455 82.0393H91.5381L91.5453 94.8624Z" fill="black"/>
<path d="M43.5 100.45V88.425C43.4992 88.2541 43.5351 88.0847 43.6056 87.9267C43.6761 87.7686 43.7798 87.625 43.9107 87.5042C44.0416 87.3833 44.1971 87.2876 44.3683 87.2225C44.5395 87.1574 44.7229 87.1243 44.9081 87.125H63.4669C63.6521 87.1243 63.8355 87.1574 64.0067 87.2225C64.1779 87.2876 64.3334 87.3833 64.4643 87.5042C64.5952 87.625 64.6989 87.7686 64.7694 87.9267C64.8399 88.0847 64.8758 88.2541 64.875 88.425V100.45C64.8758 100.621 64.8399 100.79 64.7694 100.948C64.6989 101.106 64.5952 101.25 64.4643 101.371C64.3334 101.492 64.1779 101.587 64.0067 101.652C63.8355 101.718 63.6521 101.751 63.4669 101.75H44.9081C44.7229 101.751 44.5395 101.718 44.3683 101.652C44.1971 101.587 44.0416 101.492 43.9107 101.371C43.7798 101.25 43.6761 101.106 43.6056 100.948C43.5351 100.79 43.4992 100.621 43.5 100.45Z" fill="black"/>
<path d="M51.375 92.1508C51.375 91.6888 51.7454 91.4908 52.2083 91.7218L56.6528 94.0153C57.1157 94.2463 57.1157 94.6258 56.6528 94.8568L52.2083 97.1503C51.7454 97.3813 51.375 97.1998 51.375 96.7213V92.1508Z" fill="white"/>
</g>
<defs>
<clipPath id="clip0">
<rect x="30" y="32" width="90" height="85.1054" fill="white"/>
</clipPath>
</defs>
</svg>
