<svg width="150" height="150" viewBox="0 0 150 150" fill="none" xmlns="http://www.w3.org/2000/svg">
<path d="M75 150C116.421 150 150 116.421 150 75C150 33.5786 116.421 0 75 0C33.5786 0 0 33.5786 0 75C0 116.421 33.5786 150 75 150Z" fill="white"/>
<path d="M83.4979 106C83.249 106 83.0533 105.799 83.0178 105.518L82.0042 96.6269C81.9686 96.3259 82.1642 96.0449 82.431 96.0047C82.6977 95.9646 82.9467 96.1854 82.9822 96.4864L83.9958 105.378C84.0314 105.679 83.8358 105.96 83.569 106C83.5335 106 83.5157 106 83.4979 106Z" fill="#808080"/>
<path d="M81.562 94C81.3449 94 81.1743 93.835 81.1432 93.6041L81.0036 92.5153C80.9726 92.2678 81.1432 92.0369 81.3759 92.0039C81.6086 91.9709 81.8257 92.1523 81.8568 92.3998L81.9964 93.4886C82.0274 93.736 81.8568 93.967 81.6241 94C81.5931 94 81.5776 94 81.562 94Z" fill="#808080"/>
<path d="M66.789 103.64L73.7397 103.005C74.5287 102.928 75.1674 103.697 74.9607 104.485L73.0822 112.135C72.9507 112.654 72.4998 113 71.9926 113C71.2224 113 70.6776 112.231 70.9218 111.501L72.4059 105.908L66 106.619L66.789 103.64Z" fill="black"/>
<path d="M64.3896 104.98C61.4232 104.398 59.512 101.565 60.1092 98.673L61.3038 92.9285C61.7218 90.9489 63.6928 89.6681 65.7434 90.0756L67.0772 90.3473C67.6944 90.4638 68.1125 91.0654 67.9731 91.6864L65.3253 104.379C65.2656 104.806 64.8276 105.077 64.3896 104.98Z" fill="black"/>
<path d="M67.9716 91.6176L65.1698 104.363C65.0855 104.792 64.6221 105.065 64.1586 104.987C63.7584 104.909 63.3792 104.792 63 104.655C63.2739 104.558 63.4845 104.344 63.5477 104.071L66.3495 91.3252C66.4759 90.7406 66.0967 90.1559 65.4647 90C65.5069 90 65.549 90.0195 65.5911 90.0195L67.0026 90.2923C67.6767 90.4093 68.1191 91.0134 67.9716 91.6176Z" fill="#808080"/>
<path d="M63.5992 103C63.5109 103 63.4374 102.963 63.3638 102.907C62.3189 101.916 61.8039 100.234 62.0688 98.6087L62.0982 98.4032C62.1423 98.1229 62.3631 97.9547 62.5691 98.0107C62.7898 98.0668 62.9223 98.3471 62.8781 98.6087L62.8487 98.8143C62.6574 100.048 63.04 101.318 63.8347 102.084C64.0113 102.253 64.0554 102.57 63.923 102.794C63.8494 102.925 63.717 103 63.5992 103Z" fill="#808080"/>
<path d="M63.5792 96C63.5475 96 63.5158 96 63.4842 95.9824L63.3416 95.9473C63.1041 95.8945 62.9616 95.6308 63.0091 95.3847C63.0566 95.121 63.2941 94.9452 63.5158 95.0156L63.6584 95.0507C63.8959 95.1035 64.0384 95.3671 63.9909 95.6133C63.9592 95.8418 63.7692 96 63.5792 96Z" fill="#808080"/>
<path d="M64.4355 94C64.393 94 64.3505 94 64.308 93.984L63.4583 93.8562C63.1397 93.8082 62.9485 93.5685 63.0122 93.3448C63.0759 93.1051 63.3946 92.9612 63.692 93.0092L64.5417 93.137C64.8603 93.185 65.0515 93.4247 64.9878 93.6484C64.9453 93.8562 64.6904 94 64.4355 94Z" fill="#808080"/>
<path d="M92 99.6468V120.319C92 120.697 91.6998 121 91.3245 121H61.6755C61.3002 121 61 120.697 61 120.319V119.221C61 119.05 61.0751 118.861 61.1877 118.747L67.868 112.008C67.9994 111.876 68.1683 111.819 68.3372 111.819H72.6531L76.2373 108.203C76.3686 108.071 76.5375 108.014 76.7064 108.014H80.7034L89.4479 99.1925C89.5793 99.06 89.7482 99.0032 89.9171 99.0032H91.2869C91.6998 98.9653 92 99.2682 92 99.6468Z" fill="#632F00"/>
<path d="M80.3139 108.107V113.491C80.3139 113.782 80.0882 114.033 79.7872 114.033C79.505 114.033 79.2793 113.801 79.2793 113.491V108.107H80.3139Z" fill="#654321"/>
<path d="M84.5658 117.616C84.2836 117.616 84.0391 117.384 84.0391 117.074V113.123C84.0391 112.833 84.2648 112.6 84.5658 112.6C84.8479 112.6 85.0925 112.833 85.0925 113.123V117.074C85.0737 117.384 84.8479 117.616 84.5658 117.616Z" fill="#654321"/>
<path d="M88.9291 113.143V121.412H87.8945V113.143C87.8945 112.852 88.1203 112.6 88.4212 112.6C88.7222 112.6 88.9291 112.852 88.9291 113.143Z" fill="#654321"/>
<path d="M71.4356 119.902C71.1535 119.902 70.9277 119.669 70.9277 119.359V115.525C70.9277 115.234 71.1535 114.982 71.4356 114.982H73.8622C74.1444 114.982 74.3889 115.215 74.3889 115.525C74.3889 115.815 74.1632 116.067 73.8622 116.067H71.9623V119.379C71.9623 119.669 71.7178 119.902 71.4356 119.902Z" fill="#654321"/>
<path d="M78.8099 117.849C78.5089 117.849 78.2832 117.597 78.2832 117.306C78.2832 117.016 78.5089 116.784 78.7911 116.784C79.0733 116.784 79.299 117.035 79.299 117.326C79.3178 117.616 79.0921 117.849 78.8099 117.849Z" fill="#654321"/>
<path d="M88.5091 109C88.2182 109 88 108.764 88 108.491C88 108.218 88.2182 108 88.5091 108C88.7818 108 89 108.236 89 108.509C89 108.764 88.7818 109 88.5091 109Z" fill="#7F4511"/>
<path d="M69.518 116C69.222 116 69 115.764 69 115.491C69 115.218 69.222 115 69.4995 115C69.7769 115 69.9989 115.236 69.9989 115.509C70.0174 115.782 69.7954 116 69.518 116Z" fill="#7F4511"/>
<path d="M67.5086 118C67.218 118 67 117.764 67 117.491C67 117.218 67.218 117 67.5086 117C67.7811 117 67.999 117.236 67.999 117.509C68.0172 117.782 67.7811 118 67.5086 118Z" fill="#7F4511"/>
<path d="M88.7931 113H84.2069C83.5431 113 83 112.55 83 112C83 111.45 83.5431 111 84.2069 111H88.7931C89.4569 111 90 111.45 90 112C89.9799 112.55 89.4569 113 88.7931 113Z" fill="#7F4511"/>
<path d="M80.1606 97.152C80.6839 97.0517 81.0521 96.5502 80.994 95.9885C80.9358 95.3866 80.4319 94.9453 79.8505 95.0055L70.9549 95.828C70.3735 95.8882 69.9472 96.4097 70.0053 97.0115C70.0634 97.6134 70.5673 98.0547 71.1487 97.9945L80.0443 97.172C80.0831 97.152 80.1219 97.152 80.1606 97.152Z" fill="#FF0800"/>
<path d="M64.4624 103L61.0397 116.488C60.8627 117.164 61.2954 117.859 61.9839 117.978C62.5937 118.097 63.1838 117.72 63.3609 117.104L67 103.636L64.4624 103Z" fill="black"/>
<path d="M70.9092 96.6384L69.4289 103.089C69.2862 103.679 68.7868 104.053 68.2518 103.994L64.5599 103.542C64.1675 103.502 63.9178 103.07 64.0249 102.657L65.1306 98.1724L65.416 97.0317L65.8975 95.124C66.2186 93.8457 67.2709 93 68.4123 93C68.6442 93 68.876 93.0393 69.1079 93.0983C70.4634 93.5113 71.2838 95.1044 70.9092 96.6384Z" fill="#FF0800"/>
<path d="M72.9669 90.0033C73 90.2169 73 90.4306 73 90.6442C73 90.7219 73 90.7801 72.9834 90.8578C72.8343 92.4308 71.8066 93.7319 70.4144 93.965C68.7735 94.2368 67.2652 92.8969 67.0331 90.9743C67.0166 90.819 67 90.6636 67 90.5082C67 90.4306 67 90.3529 67 90.2752C67.0166 90.0033 67.0497 89.7509 67.116 89.4984C67.4475 88.2167 68.3757 87.2263 69.5691 87.0321C71.1768 86.7796 72.6519 88.0419 72.9337 89.9062C72.9669 89.9451 72.9669 89.9645 72.9669 90.0033Z" fill="#FECAA8"/>
<path d="M67.9875 95.8942C68.0722 96.4808 67.7164 97.0086 67.2251 97.1064L63.7013 97.7516L61.6175 100.626C61.2956 101.056 60.7365 101.134 60.3468 100.762C60.3468 100.762 60.3299 100.762 60.3299 100.743C59.9402 100.371 59.8894 99.7067 60.2113 99.257L62.5323 96.0897C62.6678 95.8942 62.8711 95.7574 63.0914 95.7183L66.9541 95.0144C67.4454 94.9167 67.9028 95.3272 67.9875 95.8942Z" fill="#FF0800"/>
<path d="M60.474 117.7L64.0065 118.958C64.67 119.189 65.2555 118.413 64.8847 117.763C64.2407 116.589 63.2063 115.708 62.0158 115.288L61.2936 115.037C60.9228 114.911 60.5325 115.12 60.4154 115.498L60.0251 116.756C59.9275 117.155 60.1227 117.574 60.474 117.7Z" fill="#FF0800"/>
<path d="M67.4695 120H62.5122C62.2378 120 62 119.786 62 119.5C62 119.232 62.2195 119 62.5122 119H67.4878C67.7622 119 68 119.214 68 119.5C67.9817 119.768 67.7622 120 67.4695 120Z" fill="#7F4511"/>
<path d="M77.4227 115C77.1134 115 76.8454 114.739 76.8454 114.391V113.217H74.5773C74.268 113.217 74 112.957 74 112.609C74 112.283 74.2474 112 74.5773 112H77.4227C77.732 112 78 112.261 78 112.609V114.391C77.9794 114.739 77.732 115 77.4227 115Z" fill="#7F4511"/>
<path d="M81.6076 96.9812L82.9871 96.756C83.3215 96.6945 83.6141 96.4488 83.6977 96.1212L83.9694 95.077C84.1366 94.4627 83.5932 93.9099 82.9662 94.0123L81.1478 94.3194C80.3954 94.4423 79.8938 95.1384 80.0192 95.8755C80.1446 96.6126 80.8552 97.104 81.6076 96.9812Z" fill="#FECAA8"/>
<path d="M60.7587 101.297L59.9433 102.563C59.7394 102.879 59.377 103.038 58.9919 102.992L57.814 102.812C57.1345 102.721 56.772 101.93 57.1571 101.365L58.2444 99.6927C58.6974 98.9921 59.6261 98.7887 60.3057 99.2407C61.0079 99.6927 61.2118 100.619 60.7587 101.297Z" fill="#FECAA8"/>
<path d="M83 92C83 91.4468 82.3198 91 81.5 91C80.6628 91 80 91.4468 80 92C80 92.5532 80.6802 93 81.5 93C82.3198 93 83 92.5532 83 92Z" fill="#808080"/>
<path d="M57.3972 95H22.6028C22.2637 95 22 94.7812 22 94.5C22 94.2344 22.2637 94 22.6028 94H57.3972C57.7363 94 58 94.2188 58 94.5C58 94.7812 57.7363 95 57.3972 95Z" fill="#BDC3C7"/>
<path d="M38.9996 110.02V120.334C39.0184 121.174 38.4336 121.873 37.6601 121.993C37.2451 122.033 36.8112 121.893 36.4905 121.594C36.1698 121.294 36 120.874 36 120.414V110H38.9996V110.02Z" fill="#FECAA8"/>
<path d="M44 110V120.414C44 120.854 43.8113 121.294 43.5095 121.594C43.1888 121.893 42.7738 122.033 42.3399 121.993C41.5475 121.873 40.9816 121.174 41.0005 120.334V110.02H44V110Z" fill="#FECAA8"/>
<path d="M44 106.019V112H41.148V110.804C41.148 110.139 40.6278 109.608 40 109.608C39.3722 109.608 38.852 110.139 38.852 110.804V112H36V106L44 106.019Z" fill="#808080"/>
<path d="M42.7299 89.5916C42.7299 91.2766 41.3943 92.6517 39.739 92.6517C38.0836 92.6517 36.748 91.2766 36.748 89.5916C36.748 87.9066 38.0836 86.5315 39.739 86.5315C41.3943 86.5315 42.7299 87.9066 42.7299 89.5916Z" fill="#FECAA8"/>
<path d="M49.9157 94.4916V100.651C49.9157 101.154 49.7087 101.638 49.3513 101.987C48.9751 102.316 48.486 102.471 47.9781 102.413C47.4891 102.355 47.0376 102.084 46.7554 101.677L45.2129 99.6628L45.1377 99.3916L46.097 96.3316L46.304 96.409L47.5267 98.1521V94.4916C47.5267 93.8138 48.0722 93.2715 48.7306 93.2715C48.8246 93.2715 48.9187 93.2909 49.0315 93.3102C49.5394 93.4458 49.9157 93.93 49.9157 94.4916Z" fill="#FECAA8"/>
<path d="M29.5439 94.4915V100.65C29.5439 101.154 29.7509 101.638 30.1083 101.987C30.4845 102.316 30.9736 102.471 31.4815 102.413C31.9706 102.355 32.422 102.084 32.7042 101.677L34.2467 99.6626L34.3219 99.3914L33.3814 96.312L33.1745 96.3895L31.9517 98.1326V94.4721C31.9517 93.7942 31.4062 93.252 30.7478 93.252C30.6538 93.252 30.5597 93.2713 30.4469 93.2907C29.9202 93.4456 29.5439 93.9298 29.5439 94.4915Z" fill="#FECAA8"/>
<path d="M52.5 91H53.5C53.7813 91 54 91.2579 54 91.5895V97.4105C54 97.7237 53.7813 98 53.5 98H52.5C52.2187 98 52 97.7421 52 97.4105V91.5895C52 91.2763 52.2344 91 52.5 91Z" fill="#2C3E50"/>
<path d="M54 92H56.25C56.6719 92 57 92.2778 57 92.6349V96.3651C57 96.7024 56.6719 97 56.25 97H54V92Z" fill="#35495E"/>
<path d="M27.25 98H25.75C25.3281 98 25 97.7421 25 97.4105V91.5895C25 91.2763 25.3281 91 25.75 91H27.25C27.6719 91 28 91.2579 28 91.5895V97.4105C27.9766 97.7421 27.6484 98 27.25 98Z" fill="#2C3E50"/>
<path d="M26 97H23.7444C23.3383 97 23 96.7297 23 96.3694V92.6306C23 92.2928 23.3383 92 23.7444 92H26V97Z" fill="#35495E"/>
<path d="M46 96.0396L44.9756 99.4596L44.9198 99.5008L43.6533 97.729V106.361C43.5974 106.403 43.5602 106.423 43.5043 106.464C43.4484 106.485 43.3739 106.526 43.2808 106.567C43.1132 106.629 42.9642 106.67 42.7966 106.712C42.7221 106.732 42.6476 106.753 42.5544 106.773C42.033 106.876 41.4928 106.938 40.9713 106.959L40.6361 106.979C40.5244 106.979 40.4126 107 40.2822 107C40.1705 107 40.0401 107 39.9097 107C39.7794 107 39.649 107 39.5 107C35.9427 107 35.3467 106.341 35.3467 106.341V97.7084L34.0802 99.4802L34.0244 99.439L33 96.0396L34.0616 94.3914C34.3224 94.1236 34.6762 94 35.0301 94H43.9513C44.3052 94 44.659 94.1442 44.9198 94.3914L46 96.0396Z" fill="#FF0800"/>
<path d="M109.412 88.5154C108.846 87.7812 107.752 87.8407 107.261 88.6345L103.071 95.2821C102.656 95.937 102.826 96.8101 103.449 97.2268C104.072 97.6634 104.902 97.4848 105.298 96.8299L108.488 91.7698L111.167 95.2226C111.167 95.2226 105.921 97.842 102.449 99.5882C101.09 100.263 100.165 101.632 99.9765 103.2L98.0138 119.888C97.8817 121 98.7121 121.992 99.7878 121.992C100.675 121.992 101.448 121.297 101.562 120.345L103.638 103.974L105.487 106.454L109.544 120.662C109.827 121.654 110.846 122.23 111.79 121.912C112.734 121.595 113.224 120.523 112.941 119.551L109.016 105.819L114.092 103.101L112.734 109.173C112.696 109.312 112.696 109.451 112.696 109.589L113.13 116.237C113.187 117.011 113.809 117.606 114.564 117.547C115.3 117.487 115.866 116.832 115.81 116.039L115.394 109.589L116.923 102.823C117.074 102.148 116.999 101.434 116.734 100.799L113.715 93.9724L109.412 88.5154Z" fill="#B75D3D"/>
<path d="M103.418 104.158L105.23 106.521C105.434 107.182 106.376 110.433 106.543 111L110 110.376L108.687 105.916L102.272 100C100.941 100.643 100.035 101.947 99.8504 103.44L99 110.395L102.531 110.943C102.808 108.751 103.16 106.124 103.418 104.158Z" fill="#808080"/>
<path d="M108.757 105.419L114.011 102.87L113.093 106.553L115.827 107C115.944 106.535 116.725 103.372 116.92 102.628C117.077 101.995 116.998 101.326 116.725 100.73L116.061 99.3535C115.046 99.8372 113.932 99.1116 113.874 98.0512C113.854 97.4744 114.245 96.9721 114.772 96.7302L113.6 94.3302L110.749 91L108.855 92.9535L111.023 95.4837C111.023 95.4837 105.593 97.9395 102 99.5767L108.757 105.419Z" fill="black"/>
<path d="M119 99C120.657 99 122 97.6569 122 96C122 94.3431 120.657 93 119 93C117.343 93 116 94.3431 116 96C116 97.6569 117.343 99 119 99Z" fill="#B75D3D"/>
<path d="M99.0131 74.7368C95.74 74.7368 93.1064 77.4676 93.1064 80.8182C93.1064 84.1882 95.7588 86.8997 99.0131 86.8997C102.267 86.8997 104.92 84.1688 104.92 80.8182C104.92 77.4676 102.267 74.7368 99.0131 74.7368ZM99.0131 84.7111C96.9439 84.7111 95.2509 82.968 95.2509 80.8376C95.2509 78.7072 96.9439 76.9641 99.0131 76.9641C101.082 76.9641 102.775 78.7072 102.775 80.8376C102.775 82.968 101.082 84.7111 99.0131 84.7111Z" fill="black"/>
<path d="M80.7289 74.7368C77.4558 74.7368 74.8223 77.4676 74.8223 80.8182C74.8223 84.1882 77.4746 86.8997 80.7289 86.8997C83.9832 86.8997 86.6355 84.1688 86.6355 80.8182C86.6543 77.4676 84.002 74.7368 80.7289 74.7368ZM80.7289 84.7111C78.6597 84.7111 76.9667 82.968 76.9667 80.8376C76.9667 78.7072 78.6597 76.9641 80.7289 76.9641C82.7981 76.9641 84.4911 78.7072 84.4911 80.8376C84.4911 82.968 82.8169 84.7111 80.7289 84.7111Z" fill="black"/>
<path d="M88.7983 82.4838C88.7794 82.4838 88.7418 82.4838 88.723 82.4838L80.6719 81.3798C80.371 81.3411 80.1641 81.07 80.2017 80.7601C80.2017 80.702 80.2393 80.6245 80.2581 80.5664L84.5658 72.2771C84.6599 72.1028 84.848 71.9866 85.0361 71.9866H95.2504V73.0905H85.3559L81.5749 80.3921L88.5725 81.3605L95.3633 73.2842L96.1721 74.0008L89.1933 82.2901C89.0992 82.4257 88.9487 82.4838 88.7983 82.4838Z" fill="#D1D1CF"/>
<path d="M84.4493 70.0901L83.4639 70.5249L88.3023 82.1488L89.2878 81.7139L84.4493 70.0901Z" fill="#D1D1CF"/>
<path d="M98.5245 81.0504L93.6901 69.9916C93.5772 69.7204 93.6901 69.3912 93.9534 69.2556C94.0287 69.2169 94.1039 69.1975 94.1792 69.1975H99.0136C100.199 69.1975 101.158 70.1853 101.158 71.4054C101.158 72.6256 100.199 73.6133 99.0136 73.6133H97.3958V72.5094H99.0136C99.6155 72.5094 100.086 72.0058 100.086 71.4054C100.086 70.7856 99.5967 70.3015 99.0136 70.3015H95.0068L99.5026 80.5856L98.5245 81.0504Z" fill="#D1D1CF"/>
<path d="M88.7987 84.1494C87.6136 84.1494 86.6543 83.1617 86.6543 81.9415C86.6543 80.7214 87.6136 79.7336 88.7987 79.7336C89.9838 79.7336 90.9432 80.7214 90.9432 81.9415C90.9432 83.1617 89.9838 84.1494 88.7987 84.1494ZM88.7987 80.8376C88.1968 80.8376 87.7265 81.3411 87.7265 81.9415C87.7265 82.5613 88.2156 83.0455 88.7987 83.0455C89.4007 83.0455 89.871 82.5419 89.871 81.9415C89.871 81.3218 89.3819 80.8376 88.7987 80.8376Z" fill="#D1D1CF"/>
<path d="M95.2512 54.8269C96.4363 54.8269 97.3956 55.8146 97.3956 57.0348V58.7004C97.3956 59.9206 96.4363 60.9083 95.2512 60.9083C94.0661 60.9083 93.1067 59.9206 93.1067 58.7004V57.0348C93.0879 55.8146 94.0661 54.8269 95.2512 54.8269Z" fill="#FEC9A3"/>
<path d="M88.7988 82.4837L93.0877 83.0454V81.9414L91.4888 80.8375L88.9305 80.2952L88.7988 82.4837Z" fill="#FF0800"/>
<path d="M89.3249 73.6329L88.9111 80.2954L91.4694 80.8183L92.3723 73.3424C92.4664 72.5096 92.0901 71.6962 91.3753 71.2701L88.7042 69.6626L87.0488 72.6839L89.3249 73.6329Z" fill="#FEC9A3"/>
<path d="M81.2744 68.2487C81.2744 69.5076 82.008 70.6309 83.1555 71.0958L87.087 72.7226L88.7423 69.7013L86.1088 68.1325V67.0286H81.2744V68.2487Z" fill="#545454"/>
<path d="M95.2507 63.0194C95.2507 62.3803 94.9873 61.7799 94.517 61.3538L92.73 59.7463C91.6766 58.7973 90.1341 58.6617 88.9302 59.417L83.3434 62.9419C82.0642 63.7554 81.293 65.1692 81.293 66.7186V67.0091H86.1274V65.9052L92.034 63.6973L92.5795 64.2589V66.4668H95.2695V63.0194H95.2507Z" fill="#FF0800"/>
<path d="M95.2505 68.1129V66.4473H92.5605V69.0813C92.5605 69.7979 93.0684 70.3983 93.7644 70.5145L98.4672 71.2117L99.0127 72.0058H100.63V69.7979L95.2505 68.1129Z" fill="#FEC9A3"/>
<path d="M94.1603 54.8269H95.2326C96.4176 54.8269 97.377 55.8146 97.377 57.0348H91.9971C92.0159 55.8146 92.9752 54.8269 94.1603 54.8269Z" fill="#FF0800"/>
<path d="M47.8096 85.525C47.0572 84.9827 46.869 83.9175 47.3958 83.1428L50.951 77.8361L52.0044 71.6191C52.1549 70.6895 53.0202 70.0697 53.9231 70.2247C54.8261 70.3796 55.428 71.2705 55.2775 72.2001L54.1489 78.7851C54.1113 79.0369 54.0172 79.2693 53.8855 79.463L50.1233 85.0796C49.5966 85.8736 48.562 86.0673 47.8096 85.525Z" fill="#B75D3D"/>
<path d="M59.9433 85.8343C58.9275 85.8343 58.1562 84.924 58.2879 83.8976L59.0592 77.5837L56.294 72.7806C55.8237 71.9671 56.087 70.9213 56.8771 70.4371C57.6672 69.9529 58.6829 70.2241 59.1532 71.0375L62.2006 76.3442C62.3887 76.6735 62.4639 77.0608 62.4263 77.4288L61.5798 84.3236C61.4858 85.2146 60.771 85.8343 59.9433 85.8343Z" fill="#B75D3D"/>
<path d="M55.2773 72.218C55.4278 71.2883 54.8259 70.3974 53.9229 70.2425C53.02 70.0875 52.1547 70.7073 52.0042 71.6369L51.1201 76.8468L54.3932 77.5247C54.4873 76.8856 55.1457 73.012 55.2773 72.218Z" fill="#808080"/>
<path d="M58.7946 77.1383L61.936 75.86L59.1708 71.0375C58.7005 70.2241 57.6847 69.9529 56.8947 70.4371C56.1046 70.9213 55.8413 71.9671 56.3115 72.7806C57.0264 74.0588 58.0798 75.8794 58.7946 77.1383Z" fill="#808080"/>
<path d="M69.9925 64.47C69.919 63.7492 69.2936 63.2286 68.6314 63.3087L64.1249 63.9094L61.4394 60.6456C61.0531 60.165 60.5197 59.8647 59.9311 59.7846C58.3124 59.5643 55.958 59.264 54.2289 59.0237C53.53 58.9236 52.8494 59.1438 52.2976 59.6244L49.4465 62.1674C49.1338 62.4477 48.9683 62.8682 49.0051 63.3087L49.5937 70.6973C49.6488 71.4382 50.2375 71.9788 50.918 71.8987C51.5986 71.8386 52.0952 71.1979 52.0217 70.457L51.4882 63.7692L53.1437 62.2875C52.8862 64.4901 52.1872 70.6172 51.9297 72.8398L56.2891 73L59.3241 71.6384L60.2805 63.2486L62.6901 66.1921C62.9477 66.5124 63.3523 66.6726 63.757 66.6326L68.9073 65.9518C69.5879 65.8717 70.0661 65.2109 69.9925 64.47Z" fill="#B75D3D"/>
<path d="M61.3957 60.6456C61.0085 60.165 60.4738 59.8647 59.8837 59.7846C59.4227 59.7245 58.9064 59.6644 58.3716 59.5844C58.2979 60.3252 57.6525 60.9059 56.9887 60.9059C56.122 60.9059 55.5319 60.0449 55.6057 59.2039C55.1078 59.1438 54.6284 59.0637 54.1858 59.0237C53.4851 58.9236 52.8028 59.1438 52.2496 59.6244L50 61.6267L51.7149 63.529L53.0979 62.2875C52.8397 64.4901 52.139 70.6172 51.8809 72.8398L56.2511 73L59.2936 71.6384L60.2525 63.2486L61.3035 64.5301L63 62.6079L61.3957 60.6456Z" fill="black"/>
<path d="M58 59C59.6569 59 61 57.6569 61 56C61 54.3431 59.6569 53 58 53C56.3431 53 55 54.3431 55 56C55 57.6569 56.3431 59 58 59Z" fill="#B75D3D"/>
<path d="M74.5 67C75.3284 67 76 66.3284 76 65.5C76 64.6716 75.3284 64 74.5 64C73.6716 64 73 64.6716 73 65.5C73 66.3284 73.6716 67 74.5 67Z" fill="#CDEF07"/>
<path d="M72.7811 60.3635C73.3812 58.5965 72.7061 56.7103 71.262 56.1544C69.8179 55.5984 68.1675 56.5912 67.5486 58.3781C67.1173 59.6289 67.3236 60.9393 67.9987 61.7931C68.2238 62.0909 68.2988 62.5078 68.1675 62.8652L67.0235 66.2008C66.9485 66.3993 67.061 66.6376 67.2485 66.6972L67.9425 66.9751C68.13 67.0545 68.3551 66.9354 68.4113 66.7369L69.5553 63.4013C69.6866 63.0439 69.9867 62.7659 70.343 62.6865C71.412 62.4681 72.3497 61.6144 72.7811 60.3635Z" fill="#808080"/>
<path d="M68.3888 62.574L67.2413 65.8277C67.1661 66.0214 67.279 66.2538 67.4671 66.3119L68.1631 66.5831C68.3512 66.6605 68.5769 66.5443 68.6333 66.3506L69.7808 63.0969L68.3888 62.574Z" fill="black"/>
<path d="M85 26.8224C85 26.8224 82.0092 27.9391 79.6055 24.5718H79V22.3212C79 22.3212 79.7339 20.4829 81.2385 20.0706C82.5963 19.6926 84.2844 20.8609 83.2018 22.8882C82.5963 24.0049 83.6239 26.5819 85 26.8224Z" fill="#AD6947"/>
<path d="M78 27.9817C77.8909 28 76.3637 28 76.2546 28C74.3782 27.9266 72.9164 26.5872 73.0037 24.9908C72.9164 23.4128 74.3782 22.0734 76.2546 22C76.3637 22 77.9127 22 78 22.0183V27.9817Z" fill="#FCB892"/>
<path d="M95 49.5C95 50.3232 94.2449 51 93.3265 51H90V48H93.3265C94.2653 48 95 48.6768 95 49.5Z" fill="#FECAA8"/>
<path d="M68 47.3755L67.9113 49.3188C67.8581 50.2576 67.2375 51 66.4573 51H66.3686C65.5706 50.9345 64.95 50.1048 65.0032 49.1223L65.1273 46.6987L65.3046 46L67.6276 46.7205L68 47.3755Z" fill="#FECAA8"/>
<path d="M79.5297 35V36.6917C80.3877 37.5478 80.8453 38.7503 80.7691 39.9936C80.7691 40.7478 80.6356 41.4815 80.3496 42.1541L83.5148 47.6573H92V51H82.6568C82.1229 51 81.6081 50.6943 81.322 50.2051L76.6695 42.1338L68.5085 40.0955L68.089 47.6369L65.1907 47.0255L65 47.0051L65.4958 37.935C65.5148 37.4459 65.7436 36.9975 66.125 36.6917C66.4873 36.4064 66.964 36.2841 67.4216 36.4064L73.7712 37.9962L74.5339 38.1796L74.2669 36.7529L73.9428 35.0204H79.5297V35Z" fill="#FF0800"/>
<path d="M74.2451 38.6092L74 37L75.5582 37.5057C75.8383 37.5977 76.0309 37.9425 75.9959 38.3333C75.9609 38.7011 75.7158 39 75.4356 39C75.3831 39 75.3481 39 75.2956 38.977L74.2451 38.6092Z" fill="#808080"/>
<path d="M79 15.552V30.6555C76.589 31.8858 76 29.4253 76 29.4253V15.552C76 14.7003 76.681 14 77.5092 14C78.319 14 79 14.7003 79 15.552Z" fill="#FECAA8"/>
<path d="M79 31.2078V35.4632C76.9053 36.671 74.2989 35.4632 74.2989 35.4632L74.027 33.8837C73.9151 33.0847 74.155 32.267 74.6667 31.7096C75.1304 31.0406 75.722 30.5203 76.3936 30.1672V30C76.3776 30 76.9053 32.4157 79 31.2078Z" fill="black"/>
</svg>
