<svg width="150" height="150" viewBox="0 0 150 150" fill="none" xmlns="http://www.w3.org/2000/svg">
<path d="M75 149.999C116.421 149.999 150 116.42 150 74.9993C150 33.5783 116.421 0 75 0C33.5787 0 0 33.5783 0 74.9993C0 116.42 33.5787 149.999 75 149.999Z" fill="white"/>
<g clip-path="url(#clip0)">
<path d="M61.9428 62.266C61.2732 60.8867 59.5992 60.3108 58.2199 60.9804L50.4661 64.7569C49.8233 62.9624 50.1447 63.8731 50.1447 63.8731L46.8235 62.8955L44.8281 65.1855C44.8281 65.1855 46.1807 69.3235 46.261 69.5646C46.5289 70.3145 47.1047 70.9037 47.8279 71.2117C48.1627 71.3457 48.5243 71.4126 48.8724 71.4126C49.2876 71.4126 49.7027 71.3189 50.0911 71.1314L60.6438 65.989C62.0365 65.3194 62.6124 63.6588 61.9428 62.266Z" fill="#FFB69E"/>
<path d="M33.6602 109.566C31.8523 109.566 30.3926 108.106 30.3926 106.298V80.1843C30.3926 78.3765 31.8523 76.9167 33.6602 76.9167C35.4681 76.9167 36.9278 78.3765 36.9278 80.1843V106.298C36.9278 108.106 35.4547 109.566 33.6602 109.566Z" fill="#FFB69E"/>
<path d="M41.6006 109.566C39.7927 109.566 38.333 108.106 38.333 106.298V80.1843C38.333 78.3765 39.7927 76.9167 41.6006 76.9167C43.4085 76.9167 44.8682 78.3765 44.8682 80.1843V106.298C44.8682 108.106 43.4085 109.566 41.6006 109.566Z" fill="#FFB69E"/>
<path d="M37.6233 52.2759C40.737 52.2759 43.2612 49.7517 43.2612 46.6379C43.2612 43.5242 40.737 41 37.6233 41C34.5095 41 31.9854 43.5242 31.9854 46.6379C31.9854 49.7517 34.5095 52.2759 37.6233 52.2759Z" fill="#FFB69E"/>
<path d="M37.5704 58.0745C39.3113 58.0745 40.6907 56.588 40.5702 54.8471L40.5166 54.0837H34.6376C34.6376 54.0837 34.6108 54.3918 34.584 54.8337C34.4367 56.588 35.8161 58.0745 37.5704 58.0745Z" fill="#FFB69E"/>
<path d="M25.1823 63.7125C25.1823 63.7125 20.2006 77.506 20.1604 77.6131C19.6381 79.0193 20.3747 80.5861 21.7808 81.1084C23.1869 81.6307 24.7538 80.8941 25.276 79.488C25.3162 79.3809 30.4319 65.199 30.4319 65.199L28.0481 63.6991L25.1823 63.7125Z" fill="#FFB69E"/>
<path d="M44.5605 64.4623C44.6409 64.7034 44.7346 64.9444 44.815 65.1855L50.1315 63.8731C49.569 62.2795 49.0468 60.8064 48.6316 59.6145C47.3728 55.9318 45.2435 54.0703 42.3375 54.0703H40.5028C40.5698 55.6639 39.0967 57.0165 37.5566 57.0165C35.9094 57.0165 34.6908 55.6639 34.6104 54.0703H32.9097C29.9903 54.0703 27.8744 55.9318 26.6155 59.6145C26.2272 60.7662 25.7183 62.1723 25.1826 63.699L30.4322 65.1855C30.5259 64.9444 30.6063 64.69 30.6866 64.4623L26.8298 84.7508C26.6423 85.6883 27.3655 86.5587 28.3163 86.5587H46.9576C47.9085 86.5587 48.6182 85.6883 48.4441 84.7508L44.5605 64.4623Z" fill="#FF0800"/>
<path d="M63.1485 109.566C61.3406 109.566 59.8809 108.106 59.8809 106.298V80.1843C59.8809 78.3765 61.3406 76.9167 63.1485 76.9167C64.9563 76.9167 66.416 78.3765 66.416 80.1843V106.298C66.416 108.106 64.9563 109.566 63.1485 109.566Z" fill="#FFB69E"/>
<path d="M71.1026 109.566C69.2947 109.566 67.835 108.106 67.835 106.298V80.1843C67.835 78.3765 69.2947 76.9167 71.1026 76.9167C72.9105 76.9167 74.3702 78.3765 74.3702 80.1843V106.298C74.3702 108.106 72.8971 109.566 71.1026 109.566Z" fill="#FFB69E"/>
<path d="M67.0989 52.2892C70.2126 52.2892 72.7368 49.765 72.7368 46.6512C72.7368 43.5375 70.2126 41.0133 67.0989 41.0133C63.9851 41.0133 61.4609 43.5375 61.4609 46.6512C61.4609 49.765 63.9851 52.2892 67.0989 52.2892Z" fill="#FFB69E"/>
<path d="M67.0724 58.0745C68.8133 58.0745 70.1926 56.588 70.0721 54.8471L70.0185 54.0837H64.1396C64.1396 54.0837 64.1128 54.3918 64.086 54.8337C63.9387 56.588 65.318 58.0745 67.0724 58.0745Z" fill="#FFB69E"/>
<path d="M54.6843 63.7125C54.6843 63.7125 49.7025 77.506 49.6623 77.6131C49.1401 79.0193 49.8766 80.5861 51.2827 81.1084C52.6889 81.6307 54.2557 80.8941 54.778 79.488C54.8182 79.3809 59.9338 65.199 59.9338 65.199L57.5501 63.6991L54.6843 63.7125Z" fill="#FFB69E"/>
<path d="M84.5889 77.613C84.5487 77.5058 79.6339 63.8864 79.6339 63.8864L76.594 63.7257L74.3174 65.1988C74.3174 65.1988 79.433 79.3807 79.4732 79.4878C79.9955 80.9073 81.5489 81.6305 82.9685 81.1082C84.3746 80.5859 85.0977 79.0191 84.5889 77.613Z" fill="#FFB69E"/>
<path d="M74.0629 64.4623C74.1432 64.7034 74.237 64.9444 74.3173 65.1855L79.6339 63.8731C79.0714 62.2795 78.5491 60.8064 78.134 59.6145C76.8752 55.9318 74.7459 54.0703 71.8398 54.0703H70.0052C70.0721 55.6639 68.599 57.0165 67.059 57.0165C65.4118 57.0165 64.1931 55.6639 64.1128 54.0703H62.3853C59.4659 54.0703 57.35 55.9318 56.0911 59.6145C55.7028 60.7662 55.1939 62.1723 54.6582 63.699L59.9078 65.1855C60.0015 64.9444 60.0819 64.69 60.1622 64.4623L56.292 84.7375C56.1045 85.6749 56.8277 86.5454 57.7785 86.5454H76.4198C77.3706 86.5454 78.0804 85.6749 77.9063 84.7375L74.0629 64.4623Z" fill="black"/>
<path d="M111.024 64.5963C110.475 64.5963 109.913 64.4222 109.431 64.0874C106.806 62.1992 103.11 59.5476 101.034 59.5476L99.7217 56.8291L101.034 54.1105C104.436 54.1105 108.078 56.6951 110.716 58.3959L117.64 51.6598C118.711 50.6153 120.439 50.6287 121.497 51.7134C122.541 52.7847 122.528 54.5123 121.443 55.5702L112.926 63.8597C112.404 64.3284 111.721 64.5963 111.024 64.5963Z" fill="#80391B"/>
<path d="M108.118 56.6951C105.921 55.356 103.43 54.0837 101.047 54.0837L99.7344 56.8023L101.047 59.5208C102.6 59.5208 105.038 60.9939 107.274 62.5206L108.118 56.6951Z" fill="#909090"/>
<path d="M93.7883 52.2892C96.9021 52.2892 99.4263 49.765 99.4263 46.6512C99.4263 43.5375 96.9021 41.0133 93.7883 41.0133C90.6746 41.0133 88.1504 43.5375 88.1504 46.6512C88.1504 49.765 90.6746 52.2892 93.7883 52.2892Z" fill="#80391B"/>
<path d="M97.7656 109.566C95.9578 109.566 94.498 108.106 94.498 106.298V80.1843C94.498 78.3765 95.9578 76.9167 97.7656 76.9167C99.5735 76.9167 101.033 78.3765 101.033 80.1843V106.298C101.033 108.106 99.5735 109.566 97.7656 109.566Z" fill="black"/>
<path d="M89.8252 109.566C88.0173 109.566 86.5576 108.106 86.5576 106.298V80.1843C86.5576 78.3765 88.0173 76.9167 89.8252 76.9167C91.6331 76.9167 93.0928 78.3765 93.0928 80.1843V106.298C93.0928 108.106 91.6331 109.566 89.8252 109.566Z" fill="black"/>
<path d="M111.613 52.2759C114.726 52.2759 117.25 49.7517 117.25 46.6379C117.25 43.5242 114.726 41 111.613 41C108.499 41 105.975 43.5242 105.975 46.6379C105.975 49.7517 108.499 52.2759 111.613 52.2759Z" fill="#FFB69E"/>
<path d="M96.8015 54.6998L96.7211 54.0837H91.2975L91.2171 54.6864C90.9895 56.3737 92.3019 57.887 94.016 57.887C95.7034 57.9004 97.0292 56.3871 96.8015 54.6998Z" fill="#80391B"/>
<path d="M79.9414 67.0737V80.5191C79.9414 82.019 81.1601 83.2376 82.6599 83.2376C84.1598 83.2376 85.3785 82.019 85.3785 80.5191V67.0737L82.285 66.1229L79.9414 67.0737Z" fill="#80391B"/>
<path d="M96.7079 54.0837C96.7615 55.5434 95.4089 56.7755 93.9894 56.7755C92.4761 56.7755 91.3512 55.5434 91.2842 54.0837H86.49C82.8876 54.0837 79.9548 56.963 79.9414 60.4984V60.5118V67.0738H85.3919V60.5252C85.3919 60.0029 85.9275 59.5342 86.5034 59.5342H86.5703V80.1843H101.047V54.0837H96.7079Z" fill="#909090"/>
<path d="M112.162 109.566C110.354 109.566 108.895 108.106 108.895 106.298V80.1843C108.895 78.3765 110.354 76.9167 112.162 76.9167C113.97 76.9167 115.43 78.3765 115.43 80.1843V106.298C115.43 108.106 113.97 109.566 112.162 109.566Z" fill="#909090"/>
<path d="M120.116 109.566C118.308 109.566 116.849 108.106 116.849 106.298V80.1843C116.849 78.3765 118.308 76.9167 120.116 76.9167C121.924 76.9167 123.384 78.3765 123.384 80.1843V106.298C123.384 108.106 121.911 109.566 120.116 109.566Z" fill="#909090"/>
<path d="M119.487 55.2488L119.407 54.0837H113.675L113.581 55.222C113.434 56.9496 114.8 58.4361 116.541 58.4361C118.242 58.4361 119.608 56.9764 119.487 55.2488Z" fill="#FFB69E"/>
<path d="M124.563 67.047V80.4522C124.563 81.9253 125.715 83.1841 127.188 83.2376C128.742 83.2912 130.014 82.0592 130.014 80.5191V67.047L127.295 66.0024L124.563 67.047Z" fill="#FFB69E"/>
<path d="M105.413 64.5963L104.114 61.5698L101.034 60.7261C101.034 60.7529 101.034 69.2298 101.034 69.2298L105.413 64.5963Z" fill="#FFB69E"/>
<path d="M130 60.4984C129.986 56.963 127.04 54.0837 123.451 54.0837H119.407C119.407 54.0971 119.407 54.1239 119.407 54.1373C119.474 55.6908 118.041 57.0031 116.541 57.0031C114.934 57.0031 113.742 55.6908 113.675 54.1373C113.675 54.1239 113.675 54.0971 113.675 54.0837H109.912C107.863 54.0837 105.908 54.9676 104.556 56.4943L101.047 60.7261C101.047 60.7528 105.413 64.5963 105.413 64.5963L108.921 60.8734L108.894 80.1843H123.384V59.5342H123.451C124.027 59.5342 124.549 60.0029 124.563 60.5252V67.0604H130V60.5252C130 60.5118 130 60.4984 130 60.4984Z" fill="#FF0800"/>
</g>
<defs>
<clipPath id="clip0">
<rect x="20" y="41" width="110" height="68.5659" fill="white"/>
</clipPath>
</defs>
</svg>
