<?xml version="1.0" encoding="UTF-8" standalone="no"?>
<!-- Created with Inkscape (http://www.inkscape.org/) -->

<svg
   xmlns:dc="http://purl.org/dc/elements/1.1/"
   xmlns:cc="http://creativecommons.org/ns#"
   xmlns:rdf="http://www.w3.org/1999/02/22-rdf-syntax-ns#"
   xmlns:svg="http://www.w3.org/2000/svg"
   xmlns="http://www.w3.org/2000/svg"
   xmlns:xlink="http://www.w3.org/1999/xlink"
   xmlns:sodipodi="http://sodipodi.sourceforge.net/DTD/sodipodi-0.dtd"
   xmlns:inkscape="http://www.inkscape.org/namespaces/inkscape"
   width="450"
   height="138"
   viewBox="0 0 119.0625 36.512501"
   version="1.1"
   id="svg8"
   inkscape:version="0.92.4 (5da689c313, 2019-01-14)"
   sodipodi:docname="text-transparent-white-new.svg">
  <defs
     id="defs2">
    <pattern
       height="1"
       width="1"
       patternContentUnits="objectBoundingBox"
       id="pattern0">
      <use
         id="use852"
         transform="translate(-0.00102775) scale(0.00222679 0.00719424)"
         xlink:href="#image0" />
    </pattern>
  </defs>
  <sodipodi:namedview
     id="base"
     pagecolor="#ffffff"
     bordercolor="#666666"
     borderopacity="1.0"
     inkscape:pageopacity="0.0"
     inkscape:pageshadow="2"
     inkscape:zoom="0.98994949"
     inkscape:cx="35.335987"
     inkscape:cy="363.17931"
     inkscape:document-units="px"
     inkscape:current-layer="layer1"
     showgrid="false"
     units="px"
     inkscape:window-width="1920"
     inkscape:window-height="1027"
     inkscape:window-x="-8"
     inkscape:window-y="22"
     inkscape:window-maximized="1" />
  <metadata
     id="metadata5">
    <rdf:RDF>
      <cc:Work
         rdf:about="">
        <dc:format>image/svg+xml</dc:format>
        <dc:type
           rdf:resource="http://purl.org/dc/dcmitype/StillImage" />
        <dc:title></dc:title>
      </cc:Work>
    </rdf:RDF>
  </metadata>
  <g
     inkscape:label="Layer 1"
     inkscape:groupmode="layer"
     id="layer1"
     transform="translate(0,-260.48749)">
    <path
       style="fill:#ffffff;fill-opacity:1;stroke-width:0.26458335"
       d="m 50.188499,296.81012 c -0.582083,-0.12959 0.624261,0.008 0,0 -1.410382,-0.0189 -4.930426,-0.93217 -6.644164,-2.47297 -2.902304,-2.60942 -4.065394,-5.32856 -4.262014,-9.96397 -0.212437,-5.00835 0.922258,-8.34711 3.822457,-11.24731 2.673405,-2.6734 5.021095,-3.97026 9.352833,-3.97026 3.332697,0 5.553964,0.97219 7.432616,2.31249 3.229613,2.30413 5.280212,6.41939 5.348622,10.7339 0.0289,1.82476 -0.0164,1.98959 -0.711457,2.58917 l -0.74236,0.64034 h -9.494187 -9.494184 l 0.424241,1.25677 c 1.237205,3.66508 4.482386,6.15156 8.028577,6.15156 1.553877,0 4.158547,-0.82106 5.503149,-1.73474 1.309356,-0.88973 3.516693,-0.92105 4.120869,-0.0585 0.528606,0.75469 0.262865,2.03042 -0.26447,2.78329 -0.831165,1.18665 -2.417476,2.52665 -4.848976,2.75774 -4.022326,0.55887 -6.497394,0.4616 -7.571557,0.22246 z m 9.61286,-16.60413 c -0.678556,-2.52761 -2.912351,-4.9506 -5.264335,-5.71021 -1.787501,-0.5773 -2.5649,-0.5568 -4.360286,0.11494 -2.415222,0.90365 -3.99324,2.63223 -4.995045,5.47165 l -0.393679,1.11581 h 7.639852 7.639855 z m 42.906931,16.61952 c -0.3638,-0.12581 -1.02614,-0.24062 -1.47185,-0.25513 -0.95978,-0.0312 -2.017664,-1.05475 -2.460904,-2.38096 -0.20144,-0.60271 -0.30058,-3.94093 -0.30058,-10.12031 v -9.22093 h -1.81108 c -2.14577,0 -2.67854,-0.40234 -2.87623,-2.17208 -0.0996,-0.89192 -0.004,-1.29115 0.44738,-1.86282 0.52751,-0.66847 0.72313,-0.7276 2.40705,-0.7276 h 1.83288 v -3.134 c 0,-3.78471 0.21684,-4.14205 2.513544,-4.14205 2.2967,0 2.51354,0.35734 2.51354,4.14205 v 3.134 h 2.24896 c 2.84851,0 3.30729,0.34659 3.30729,2.49853 0,1.96187 -0.45193,2.26397 -3.38686,2.26397 h -2.21078 l 0.0868,7.87135 c 0.10941,9.91696 0.14594,10.02119 3.39327,9.68178 1.21271,-0.12675 1.7189,-0.066 2.2279,0.26755 0.76805,0.50324 1.12009,1.90228 0.75515,3.00105 -0.21137,0.63641 -0.43132,0.76851 -1.54813,0.92974 -2.44399,0.35284 -5.00508,0.45491 -5.66739,0.22586 z m -94.6534879,-0.221 c -0.717936,-0.058 -1.207808,-0.25243 -1.35752,-0.53868 -0.128832,-0.24632 -1.571605,-4.61505 -3.206162,-9.70828 -3.27354692,-10.20027 -3.86927892,-13.02935 -3.30108592,-15.67656 0.1799,-0.83816 0.219858,-0.8599 1.58043292,-0.8599 2.337097,0 2.273507,-0.11751 5.30965,9.81223 l 2.6995871,8.82903 2.8321278,-8.69528 c 2.035174,-6.24845 3.008099,-8.87125 3.457475,-9.32063 0.500766,-0.50077 0.905921,-0.62535 2.033711,-0.62535 0.822782,0 1.643627,0.16479 1.974189,0.39632 0.42236,0.29583 1.284237,2.55997 3.399222,8.92969 1.558368,4.69335 2.90955,8.61844 3.002625,8.72243 0.09307,0.10398 1.353291,-3.69485 2.800477,-8.44184 1.747917,-5.73343 2.807042,-8.79467 3.154895,-9.11875 0.706823,-0.6585 3.048338,-0.67364 3.842183,-0.0248 1.229501,1.00487 1.101532,1.66913 -2.491411,12.9324 -4.603467,14.43108 -4.094155,13.23401 -5.696062,13.38793 -0.723945,0.0696 -1.899813,0.0704 -2.613043,0.002 -1.603416,-0.15407 -1.312813,0.46695 -4.698995,-10.04176 -1.416923,-4.39729 -2.615357,-7.95594 -2.663186,-7.90811 -0.04783,0.0478 -1.327809,3.93301 -2.8444,8.63373 -1.51659,4.70073 -2.912273,8.69109 -3.101516,8.86747 -0.388098,0.36173 -2.4267048,0.5832 -4.1131939,0.44687 z m 65.1558769,-0.01 c -0.58019,-0.0496 -1.14392,-0.23019 -1.25272,-0.40125 -0.1088,-0.17105 -0.19964,-5.04375 -0.20187,-10.8282 l -0.004,-10.5172 h -1.81107 c -2.29187,0 -2.68685,-0.35681 -2.68685,-2.42722 0,-1.97126 0.42108,-2.33528 2.70126,-2.33528 h 1.73354 l 0.1244,-2.4474 c 0.14529,-2.85859 0.72582,-4.41508 2.16971,-5.81737 0.99647,-0.96776 0.95082,-0.95539 5.17734,-1.40357 0.83745,-0.0888 2.1853,-0.002 3.175,0.20371 l 1.7198,0.35803 0.0789,1.34667 c 0.11014,1.8805 -0.27474,2.20368 -2.62445,2.20368 -1.10849,0 -2.14745,0.15572 -2.59984,0.38966 -0.9919,0.51293 -1.86604,2.35262 -1.86604,3.92721 v 1.23938 h 2.20795 c 2.7314,0 3.08371,0.27731 3.08371,2.42722 0,2.0522 -0.37832,2.33528 -3.12098,2.33528 h -2.15328 l -0.0749,10.57035 c -0.0468,6.60895 -0.174,10.66184 -0.33943,10.81449 -0.32779,0.30246 -2.03195,0.4819 -3.43615,0.3618 z m 13.88719,0.007 c -0.50932,-0.0481 -1.07487,-0.28214 -1.25677,-0.52009 -0.2536,-0.33175 -0.33073,-3.29269 -0.33073,-12.69722 v -12.26454 l 0.64944,-0.64944 c 0.91688,-0.91688 3.220667,-0.93788 4.066937,-0.0371 0.57384,0.61083 0.57529,0.64376 0.57529,13.06448 0,9.64597 -0.0745,12.51099 -0.33073,12.71336 -0.39793,0.31433 -2.097317,0.51108 -3.373437,0.39056 z m 26.867751,0.0121 c -0.89327,-0.35568 -1.73328,-1.63668 -1.45933,-2.76153 -0.0316,-0.93901 0.0568,-1.83082 0.80569,-2.57969 0.74762,-0.74762 0.95935,-0.8141 2.59291,-0.8141 1.90222,0 1.53975,0.402 2.6973,0.99169 0.46652,0.7115 0.37699,0.44324 0.52916,2.21166 0.0431,0.97688 -0.0732,0.97512 -0.90713,2.35907 -1.47459,0.75152 -3.09508,1.05619 -4.2586,0.5929 z m -28.162681,-29.6768 c -0.76105,-0.71092 -0.82173,-0.89846 -0.82173,-2.53968 0,-1.64121 0.0607,-1.82875 0.82173,-2.53968 0.70683,-0.66027 1.03156,-0.76761 2.32238,-0.76761 2.246587,0 3.470467,1.16634 3.470467,3.30729 0,2.14096 -1.22388,3.3073 -3.470467,3.3073 -1.29082,0 -1.61555,-0.10734 -2.32238,-0.76762 z"
       id="path870"
       inkscape:connector-curvature="0"
       sodipodi:nodetypes="ccsscsscccccsssccccccssccccccccscsccscssscsssccccccccccscsscssscscsccsccscscccccccssscssccccscscsssccccccsscccscccsccscccscscsssc" />
    <path
       style="fill:#000000;stroke-width:0.26458335"
       d=""
       id="path832"
       inkscape:connector-curvature="0" />
    <path
       style="fill:#000000;stroke-width:0.26458335"
       d=""
       id="path830"
       inkscape:connector-curvature="0" />
    <path
       style="fill:#000000;stroke-width:0.26458335"
       d=""
       id="path828"
       inkscape:connector-curvature="0" />
  </g>
</svg>
