<svg width="1920" height="900" viewBox="0 0 1920 900" fill="none" xmlns="http://www.w3.org/2000/svg">
<path d="M1920 0V12.9C1851.9 170.9 1756.7 314.4 1640.3 437.7C1482.8 604.6 1286.5 734.3 1065.7 812.5C913.2 866.6 749 896 578 896C372.7 896 177.3 853.6 0 777.1V0H1920Z" fill="#FF0800"/>
<path opacity="0.2" d="M1920 0V12.9C1851.9 170.9 1756.7 314.4 1640.3 437.7C1545.1 388.2 1480 288.7 1480 174C1480 109 1500.9 48.9 1536.3 0H1920Z" fill="white"/>
<path opacity="0.2" d="M1065.7 812.5C913.2 866.6 749 896 578 896C372.7 896 177.3 853.6 0 777.1V0H571.4C817.5 204.6 995.4 488.5 1065.7 812.5Z" fill="white"/>
</svg>
