<svg width="30" height="30" viewBox="0 0 30 30" fill="none" xmlns="http://www.w3.org/2000/svg">
<g clip-path="url(#clip0)">
<path d="M22.3762 0.133301H7.49034C3.36591 0.133301 0 3.49921 0 7.62364V22.5332C0 26.6339 3.36591 29.9998 7.49034 29.9998H22.3999C26.5243 29.9998 29.8902 26.6339 29.8902 22.5095V7.62364C29.8665 3.49921 26.5006 0.133301 22.3762 0.133301ZM22.3525 11.3214C22.3525 11.4873 22.3525 11.6533 22.3525 11.8192C22.3525 16.7969 18.5125 22.5332 11.4725 22.5332C9.31551 22.5332 7.30071 21.9169 5.61775 20.8502C5.9259 20.8739 6.21034 20.8977 6.51849 20.8977C8.31996 20.8977 9.95551 20.3051 11.2592 19.2858C9.57625 19.2621 8.17774 18.1717 7.67997 16.6784C7.917 16.7258 8.15404 16.7495 8.39107 16.7495C8.74663 16.7495 9.10218 16.7021 9.41033 16.6073C7.70367 16.2517 6.39997 14.7347 6.39997 12.9095V12.8621C6.87404 13.1466 7.49034 13.3125 8.10663 13.3362C7.08738 12.6725 6.39997 11.511 6.39997 10.2073C6.39997 9.51993 6.5896 8.87993 6.92145 8.31104C8.81774 10.5866 11.6148 12.0799 14.791 12.2458C14.7199 11.9614 14.6962 11.677 14.6962 11.3925C14.6962 9.30659 16.4029 7.62364 18.5125 7.62364C19.6029 7.62364 20.5984 8.07401 21.3095 8.80882C22.1866 8.64289 22.9925 8.33475 23.7273 7.88438C23.4429 8.76141 22.8266 9.49622 22.0443 9.97029C22.8266 9.87548 23.5614 9.68585 24.2488 9.3777C23.7273 10.1362 23.0873 10.7999 22.3525 11.3214Z" fill="white"/>
</g>
<defs>
<clipPath id="clip0">
<rect width="30" height="30" fill="white"/>
</clipPath>
</defs>
</svg>
