<svg width="25" height="25" viewBox="0 0 25 25" fill="none" xmlns="http://www.w3.org/2000/svg">
<path d="M12.5 25C19.4036 25 25 19.4036 25 12.5C25 5.59644 19.4036 0 12.5 0C5.59644 0 0 5.59644 0 12.5C0 19.4036 5.59644 25 12.5 25Z" fill="white"/>
<path d="M19.1663 8.02116C18.6976 8.28158 18.1247 8.43783 17.6038 8.48991C18.1768 8.12533 18.5934 7.55241 18.8018 6.87533C18.2809 7.18783 17.708 7.44824 17.0309 7.60449C16.5101 7.03158 15.833 6.66699 15.0518 6.66699C13.5413 6.66699 12.2913 7.96908 12.2913 9.63574C12.2913 9.84408 12.2913 10.1045 12.3434 10.3128C10.0518 10.2087 8.02051 9.01074 6.66634 7.23991C6.40592 7.65658 6.30176 8.17741 6.30176 8.75033C6.30176 9.79199 6.77051 10.6774 7.49967 11.1982C7.03092 11.1982 6.61426 11.042 6.24967 10.8337V10.8857C6.24967 12.292 7.18717 13.4899 8.43717 13.8024C8.22884 13.8545 7.96842 13.9066 7.70801 13.9066C7.55176 13.9066 7.34342 13.9066 7.18717 13.8545C7.55176 15.0524 8.54134 15.8857 9.73926 15.8857C8.80176 16.667 7.60384 17.1357 6.35384 17.1357C6.14551 17.1357 5.93717 17.1357 5.67676 17.0837C6.87467 17.917 8.33301 18.4378 9.89551 18.4378C14.9476 18.4378 17.708 13.9587 17.708 10.0524C17.708 9.94824 17.708 9.79199 17.708 9.68783C18.333 9.16699 18.8018 8.64616 19.1663 8.02116Z" fill="black"/>
</svg>
