<svg width="130" height="36" viewBox="0 0 130 36" fill="none" xmlns="http://www.w3.org/2000/svg">
<rect width="130" height="36" rx="18" fill="#FF0800"/>
<path d="M26.6836 20.1289L28.0234 13.0469H30.0674L27.8594 23H25.7949L24.1748 16.3418L22.5547 23H20.4902L18.2822 13.0469H20.3262L21.6729 20.1152L23.3135 13.0469H25.0498L26.6836 20.1289ZM32.9795 16.4102C33.5036 15.7812 34.1621 15.4668 34.9551 15.4668C36.5592 15.4668 37.3727 16.3988 37.3955 18.2627V23H35.4199V18.3174C35.4199 17.8936 35.3288 17.5814 35.1465 17.3809C34.9642 17.1758 34.6611 17.0732 34.2373 17.0732C33.6585 17.0732 33.2393 17.2965 32.9795 17.7432V23H31.0039V12.5H32.9795V16.4102ZM43.1719 23C43.0807 22.8223 43.0146 22.6012 42.9736 22.3369C42.4951 22.8701 41.873 23.1367 41.1074 23.1367C40.3828 23.1367 39.7812 22.9271 39.3027 22.5078C38.8288 22.0885 38.5918 21.5599 38.5918 20.9219C38.5918 20.138 38.8812 19.5365 39.46 19.1172C40.0433 18.6979 40.8841 18.486 41.9824 18.4814H42.8916V18.0576C42.8916 17.7158 42.8027 17.4424 42.625 17.2373C42.4518 17.0322 42.1761 16.9297 41.7979 16.9297C41.4652 16.9297 41.2031 17.0094 41.0117 17.1689C40.8249 17.3285 40.7314 17.5472 40.7314 17.8252H38.7559C38.7559 17.3968 38.888 17.0003 39.1523 16.6357C39.4167 16.2712 39.7904 15.9863 40.2734 15.7812C40.7565 15.5716 41.2988 15.4668 41.9004 15.4668C42.8118 15.4668 43.5342 15.6969 44.0674 16.1572C44.6051 16.613 44.874 17.2555 44.874 18.085V21.291C44.8786 21.9928 44.9766 22.5238 45.168 22.8838V23H43.1719ZM41.5381 21.626C41.8298 21.626 42.0986 21.5622 42.3447 21.4346C42.5908 21.3024 42.7731 21.127 42.8916 20.9082V19.6367H42.1533C41.1644 19.6367 40.638 19.9785 40.5742 20.6621L40.5674 20.7783C40.5674 21.0244 40.654 21.2272 40.8271 21.3867C41.0003 21.5462 41.2373 21.626 41.5381 21.626ZM48.7568 13.7852V15.6035H50.0215V17.0527H48.7568V20.7441C48.7568 21.0176 48.8092 21.2135 48.9141 21.332C49.0189 21.4505 49.2194 21.5098 49.5156 21.5098C49.7344 21.5098 49.9281 21.4938 50.0967 21.4619V22.959C49.7093 23.0775 49.3105 23.1367 48.9004 23.1367C47.515 23.1367 46.8086 22.4372 46.7812 21.0381V17.0527H45.7012V15.6035H46.7812V13.7852H48.7568ZM56.6934 23H54.7109V15.6035H56.6934V23ZM54.5947 13.6895C54.5947 13.3932 54.6927 13.1494 54.8887 12.958C55.0892 12.7666 55.3604 12.6709 55.7021 12.6709C56.0394 12.6709 56.3083 12.7666 56.5088 12.958C56.7093 13.1494 56.8096 13.3932 56.8096 13.6895C56.8096 13.9902 56.707 14.2363 56.502 14.4277C56.3014 14.6191 56.0348 14.7148 55.7021 14.7148C55.3695 14.7148 55.1006 14.6191 54.8955 14.4277C54.695 14.2363 54.5947 13.9902 54.5947 13.6895ZM62.333 20.9561C62.333 20.7145 62.2122 20.5254 61.9707 20.3887C61.7337 20.2474 61.3509 20.1221 60.8223 20.0127C59.0632 19.6436 58.1836 18.8962 58.1836 17.7705C58.1836 17.1143 58.4548 16.5674 58.9971 16.1299C59.5439 15.6878 60.2572 15.4668 61.1367 15.4668C62.0755 15.4668 62.8252 15.6878 63.3857 16.1299C63.9508 16.5719 64.2334 17.1462 64.2334 17.8525H62.2578C62.2578 17.57 62.1667 17.3376 61.9844 17.1553C61.8021 16.9684 61.5173 16.875 61.1299 16.875C60.7972 16.875 60.5397 16.9502 60.3574 17.1006C60.1751 17.251 60.084 17.4424 60.084 17.6748C60.084 17.8936 60.1865 18.0713 60.3916 18.208C60.6012 18.3402 60.9521 18.4564 61.4443 18.5566C61.9365 18.6523 62.3512 18.7617 62.6885 18.8848C63.7321 19.2676 64.2539 19.9307 64.2539 20.874C64.2539 21.5485 63.9645 22.0954 63.3857 22.5146C62.807 22.9294 62.0596 23.1367 61.1436 23.1367C60.5238 23.1367 59.9723 23.0273 59.4893 22.8086C59.0107 22.5853 58.6348 22.2822 58.3613 21.8994C58.0879 21.512 57.9512 21.0951 57.9512 20.6484H59.8242C59.8424 20.9993 59.9723 21.2682 60.2139 21.4551C60.4554 21.6419 60.779 21.7354 61.1846 21.7354C61.5628 21.7354 61.8477 21.6647 62.0391 21.5234C62.235 21.3776 62.333 21.1885 62.333 20.9561ZM76.9004 20.1289L78.2402 13.0469H80.2842L78.0762 23H76.0117L74.3916 16.3418L72.7715 23H70.707L68.499 13.0469H70.543L71.8896 20.1152L73.5303 13.0469H75.2666L76.9004 20.1289ZM84.4541 23.1367C83.3695 23.1367 82.4854 22.804 81.8018 22.1387C81.1227 21.4733 80.7832 20.5869 80.7832 19.4795V19.2881C80.7832 18.5452 80.9268 17.8822 81.2139 17.2988C81.501 16.7109 81.9066 16.2598 82.4307 15.9453C82.9593 15.6263 83.5609 15.4668 84.2354 15.4668C85.2471 15.4668 86.0423 15.7858 86.6211 16.4238C87.2044 17.0618 87.4961 17.9665 87.4961 19.1377V19.9443H82.7861C82.8499 20.4274 83.0413 20.8148 83.3604 21.1064C83.6839 21.3981 84.0918 21.5439 84.584 21.5439C85.3451 21.5439 85.9398 21.2682 86.3682 20.7168L87.3389 21.8037C87.0426 22.223 86.6416 22.5511 86.1357 22.7881C85.6299 23.0205 85.0693 23.1367 84.4541 23.1367ZM84.2285 17.0664C83.8366 17.0664 83.5176 17.1986 83.2715 17.4629C83.0299 17.7272 82.875 18.1055 82.8066 18.5977H85.5547V18.4404C85.5456 18.0029 85.4271 17.6657 85.1992 17.4287C84.9714 17.1872 84.6478 17.0664 84.2285 17.0664ZM94.7422 18.9326H90.8047V23H88.7539V13.0469H95.2344V14.708H90.8047V17.2783H94.7422V18.9326ZM98.3789 23H96.3965V15.6035H98.3789V23ZM96.2803 13.6895C96.2803 13.3932 96.3783 13.1494 96.5742 12.958C96.7747 12.7666 97.0459 12.6709 97.3877 12.6709C97.7249 12.6709 97.9938 12.7666 98.1943 12.958C98.3949 13.1494 98.4951 13.3932 98.4951 13.6895C98.4951 13.9902 98.3926 14.2363 98.1875 14.4277C97.987 14.6191 97.7204 14.7148 97.3877 14.7148C97.055 14.7148 96.7861 14.6191 96.5811 14.4277C96.3805 14.2363 96.2803 13.9902 96.2803 13.6895ZM102.378 13.7852V15.6035H103.643V17.0527H102.378V20.7441C102.378 21.0176 102.43 21.2135 102.535 21.332C102.64 21.4505 102.84 21.5098 103.137 21.5098C103.355 21.5098 103.549 21.4938 103.718 21.4619V22.959C103.33 23.0775 102.932 23.1367 102.521 23.1367C101.136 23.1367 100.43 22.4372 100.402 21.0381V17.0527H99.3223V15.6035H100.402V13.7852H102.378ZM106.356 19.9443C106.356 19.3063 106.434 18.7982 106.589 18.4199C106.744 18.0417 107.026 17.6702 107.437 17.3057C107.851 16.9365 108.127 16.638 108.264 16.4102C108.4 16.1777 108.469 15.9339 108.469 15.6787C108.469 14.9085 108.113 14.5234 107.402 14.5234C107.065 14.5234 106.794 14.6283 106.589 14.8379C106.388 15.043 106.284 15.3278 106.274 15.6924H104.292C104.301 14.8219 104.581 14.1406 105.133 13.6484C105.689 13.1562 106.445 12.9102 107.402 12.9102C108.368 12.9102 109.118 13.1449 109.651 13.6143C110.185 14.0791 110.451 14.7376 110.451 15.5898C110.451 15.9772 110.365 16.3441 110.191 16.6904C110.018 17.0322 109.715 17.4128 109.282 17.832L108.729 18.3584C108.382 18.6911 108.184 19.0807 108.134 19.5273L108.106 19.9443H106.356ZM106.158 22.043C106.158 21.7376 106.261 21.487 106.466 21.291C106.675 21.0905 106.942 20.9902 107.266 20.9902C107.589 20.9902 107.854 21.0905 108.059 21.291C108.268 21.487 108.373 21.7376 108.373 22.043C108.373 22.3438 108.271 22.5921 108.065 22.7881C107.865 22.984 107.598 23.082 107.266 23.082C106.933 23.082 106.664 22.984 106.459 22.7881C106.258 22.5921 106.158 22.3438 106.158 22.043Z" fill="white"/>
</svg>
