<svg width="25" height="25" viewBox="0 0 25 25" fill="none" xmlns="http://www.w3.org/2000/svg">
<path d="M12.5 25C19.4036 25 25 19.4036 25 12.5C25 5.59644 19.4036 0 12.5 0C5.59644 0 0 5.59644 0 12.5C0 19.4036 5.59644 25 12.5 25Z" fill="white"/>
<path d="M18.333 9.63558C18.333 9.5835 18.333 9.53141 18.2809 9.47933V9.42725C18.1247 8.9585 17.708 8.646 17.1872 8.646H17.2913C17.2913 8.646 15.2601 8.3335 12.4997 8.3335C9.79134 8.3335 7.70801 8.646 7.70801 8.646H7.81218C7.29134 8.646 6.87467 8.9585 6.71842 9.42725V9.47933C6.71842 9.53141 6.71842 9.5835 6.66634 9.63558C6.61426 10.1564 6.45801 11.2502 6.45801 12.5002C6.45801 13.7502 6.61426 14.8439 6.66634 15.3647C6.66634 15.4168 6.66634 15.4689 6.71842 15.521V15.5731C6.87467 16.0418 7.29134 16.3543 7.81218 16.3543H7.70801C7.70801 16.3543 9.73926 16.6668 12.4997 16.6668C15.208 16.6668 17.2913 16.3543 17.2913 16.3543H17.1872C17.708 16.3543 18.1247 16.0418 18.2809 15.5731V15.521C18.2809 15.4689 18.2809 15.4168 18.333 15.3647C18.3851 14.8439 18.5413 13.7502 18.5413 12.5002C18.5413 11.2502 18.4372 10.1564 18.333 9.63558ZM14.2705 12.7606L11.8226 14.5314C11.7705 14.5835 11.7184 14.5835 11.6663 14.5835C11.6143 14.5835 11.5622 14.5835 11.5101 14.5314C11.4059 14.4793 11.3538 14.3752 11.3538 14.271V10.7293C11.3538 10.6252 11.4059 10.521 11.5101 10.4689C11.6143 10.4168 11.7184 10.4168 11.8226 10.4689L14.2705 12.2397C14.3226 12.2918 14.3747 12.396 14.3747 12.5002C14.4268 12.6043 14.3747 12.7085 14.2705 12.7606Z" fill="black"/>
</svg>
